<svg data-v-fde0c5aa="" xmlns="http://www.w3.org/2000/svg" viewBox="0 0 300 300" class="iconLeftSlogan"><!----><defs data-v-fde0c5aa=""><!----></defs><rect data-v-fde0c5aa="" fill="transparent" x="0" y="0" width="300px" height="300px" class="logo-background-square"></rect><defs data-v-fde0c5aa=""><!----></defs><g data-v-fde0c5aa="" id="c0d26e6d-5d46-4ff1-9e5a-f4ff70c2ae4e" fill="#000000" transform="matrix(3.238959642287189,0,0,3.238959642287189,131.4780819500486,111.07609017815152)"><path d="M6.96 2.18L6.96 12.82Q6.55 12.96 5.92 13.09Q5.29 13.22 4.33 13.22L4.33 13.22Q3.53 13.22 2.88 12.96Q2.23 12.70 1.76 12.21Q1.29 11.72 1.03 11.02Q0.77 10.32 0.77 9.44L0.77 9.44Q0.77 8.61 0.99 7.92Q1.20 7.22 1.62 6.72Q2.04 6.22 2.65 5.94Q3.26 5.66 4.05 5.66L4.05 5.66Q4.76 5.66 5.29 5.86Q5.81 6.06 6.05 6.24L6.05 6.24L6.05 2.35L6.96 2.18ZM6.05 12.19L6.05 7.13Q5.92 7.03 5.73 6.92Q5.54 6.80 5.29 6.71Q5.04 6.61 4.75 6.54Q4.45 6.48 4.13 6.48L4.13 6.48Q3.46 6.48 3.00 6.72Q2.55 6.96 2.27 7.36Q1.99 7.76 1.86 8.29Q1.74 8.83 1.74 9.44L1.74 9.44Q1.74 10.86 2.45 11.63Q3.16 12.39 4.34 12.39L4.34 12.39Q5.01 12.39 5.42 12.33Q5.84 12.26 6.05 12.19L6.05 12.19ZM11.65 12.39L11.65 12.39Q12.18 12.39 12.58 12.36Q12.98 12.32 13.26 12.26L13.26 12.26L13.26 9.72Q13.10 9.65 12.77 9.57Q12.43 9.49 11.84 9.49L11.84 9.49Q11.51 9.49 11.14 9.54Q10.78 9.59 10.47 9.75Q10.16 9.91 9.97 10.19Q9.77 10.47 9.77 10.93L9.77 10.93Q9.77 11.34 9.91 11.62Q10.04 11.90 10.28 12.07Q10.53 12.24 10.87 12.31Q11.21 12.39 11.65 12.39ZM11.56 5.64L11.56 5.64Q12.28 5.64 12.78 5.84Q13.27 6.05 13.58 6.41Q13.89 6.76 14.03 7.25Q14.17 7.74 14.17 8.32L14.17 8.32L14.17 12.88Q14.03 12.92 13.76 12.97Q13.50 13.02 13.15 13.08Q12.80 13.13 12.37 13.17Q11.94 13.20 11.49 13.20L11.49 13.20Q10.92 13.20 10.44 13.08Q9.95 12.95 9.60 12.68Q9.24 12.40 9.04 11.98Q8.83 11.55 8.83 10.93L8.83 10.93Q8.83 10.35 9.06 9.93Q9.28 9.51 9.69 9.23Q10.09 8.96 10.65 8.83Q11.21 8.71 11.87 8.71L11.87 8.71Q12.07 8.71 12.29 8.73Q12.50 8.75 12.71 8.79Q12.91 8.82 13.05 8.86Q13.20 8.89 13.26 8.92L13.26 8.92L13.26 8.47Q13.26 8.09 13.20 7.74Q13.15 7.38 12.96 7.09Q12.77 6.80 12.43 6.63Q12.08 6.45 11.52 6.45L11.52 6.45Q10.72 6.45 10.33 6.57Q9.94 6.68 9.76 6.75L9.76 6.75L9.63 5.95Q9.87 5.84 10.37 5.74Q10.86 5.64 11.56 5.64ZM17.35 3.51L17.35 5.81L20.23 5.81L20.23 6.58L17.35 6.58L17.35 10.43Q17.35 11.05 17.45 11.43Q17.56 11.82 17.75 12.03Q17.95 12.24 18.23 12.31Q18.51 12.38 18.84 12.38L18.84 12.38Q19.42 12.38 19.77 12.24Q20.12 12.11 20.31 12.00L20.31 12.00L20.54 12.75Q20.34 12.88 19.85 13.04Q19.36 13.20 18.79 13.20L18.79 13.20Q18.12 13.20 17.66 13.03Q17.21 12.85 16.93 12.49Q16.66 12.14 16.55 11.61Q16.44 11.07 16.44 10.35L16.44 10.35L16.44 3.68L17.35 3.51ZM24.19 12.39L24.19 12.39Q24.72 12.39 25.12 12.36Q25.52 12.32 25.80 12.26L25.80 12.26L25.80 9.72Q25.65 9.65 25.31 9.57Q24.98 9.49 24.39 9.49L24.39 9.49Q24.05 9.49 23.69 9.54Q23.32 9.59 23.02 9.75Q22.71 9.91 22.51 10.19Q22.32 10.47 22.32 10.93L22.32 10.93Q22.32 11.34 22.45 11.62Q22.58 11.90 22.83 12.07Q23.07 12.24 23.41 12.31Q23.76 12.39 24.19 12.39ZM24.11 5.64L24.11 5.64Q24.82 5.64 25.32 5.84Q25.82 6.05 26.12 6.41Q26.43 6.76 26.57 7.25Q26.71 7.74 26.71 8.32L26.71 8.32L26.71 12.88Q26.57 12.92 26.31 12.97Q26.04 13.02 25.69 13.08Q25.34 13.13 24.91 13.17Q24.49 13.20 24.04 13.20L24.04 13.20Q23.46 13.20 22.98 13.08Q22.50 12.95 22.14 12.68Q21.78 12.40 21.58 11.98Q21.38 11.55 21.38 10.93L21.38 10.93Q21.38 10.35 21.60 9.93Q21.83 9.51 22.23 9.23Q22.64 8.96 23.20 8.83Q23.76 8.71 24.42 8.71L24.42 8.71Q24.61 8.71 24.83 8.73Q25.05 8.75 25.25 8.79Q25.45 8.82 25.60 8.86Q25.75 8.89 25.80 8.92L25.80 8.92L25.80 8.47Q25.80 8.09 25.75 7.74Q25.69 7.38 25.50 7.09Q25.31 6.80 24.97 6.63Q24.63 6.45 24.07 6.45L24.07 6.45Q23.27 6.45 22.88 6.57Q22.48 6.68 22.30 6.75L22.30 6.75L22.18 5.95Q22.41 5.84 22.91 5.74Q23.41 5.64 24.11 5.64ZM31.70 2.18L31.70 2.18Q32.28 2.18 32.66 2.28Q33.03 2.37 33.14 2.44L33.14 2.44L32.96 3.22Q32.80 3.15 32.50 3.07Q32.20 3.00 31.74 3.00L31.74 3.00Q30.77 3.00 30.36 3.49Q29.95 3.98 29.95 5.05L29.95 5.05L29.95 5.81L32.86 5.81L32.86 6.58L29.95 6.58L29.95 13.05L29.04 13.05L29.04 5.03Q29.04 3.61 29.69 2.90Q30.34 2.18 31.70 2.18ZM36.54 13.20L36.54 13.20Q36.08 12.35 35.65 11.42Q35.22 10.50 34.85 9.55Q34.48 8.61 34.17 7.67Q33.87 6.72 33.64 5.81L33.64 5.81L34.61 5.81Q34.76 6.48 35 7.26Q35.24 8.04 35.54 8.86Q35.84 9.69 36.20 10.56Q36.57 11.42 36.99 12.26L36.99 12.26Q37.30 11.40 37.53 10.63Q37.77 9.86 37.98 9.09Q38.18 8.33 38.37 7.53Q38.56 6.73 38.77 5.81L38.77 5.81L39.68 5.81Q39.23 7.84 38.65 9.76Q38.08 11.68 37.41 13.27L37.41 13.27Q37.14 13.90 36.86 14.36Q36.58 14.81 36.24 15.11Q35.90 15.40 35.44 15.54Q34.99 15.68 34.37 15.68L34.37 15.68Q34.02 15.68 33.73 15.60Q33.45 15.51 33.38 15.47L33.38 15.47L33.56 14.71Q33.61 14.76 33.87 14.83Q34.13 14.91 34.41 14.91L34.41 14.91Q34.80 14.91 35.12 14.83Q35.43 14.74 35.69 14.54Q35.94 14.34 36.14 14.01Q36.34 13.69 36.54 13.20Z"></path></g><defs data-v-fde0c5aa=""><linearGradient data-v-fde0c5aa="" gradientTransform="rotate(25)" id="c8a505d5-e308-493f-906d-840a4af7d4b4" x1="0%" y1="0%" x2="100%" y2="0%"><stop data-v-fde0c5aa="" offset="0%" stop-color="#945069" stop-opacity="1"></stop><stop data-v-fde0c5aa="" offset="100%" stop-color="#86C866" stop-opacity="1"></stop></linearGradient></defs><g data-v-fde0c5aa="" id="2500b3d8-f06d-4dca-8181-e3b503115cc1" stroke="none" fill="url(#c8a505d5-e308-493f-906d-840a4af7d4b4)" transform="matrix(1.1298533722960633,0,0,1.1298533722960633,29.64263434304432,99.43905727970258)"><path d="M77.546 34.59H12.455a3.288 3.288 0 00-3.288 3.288v14.246a3.288 3.288 0 003.288 3.287h65.091a3.287 3.287 0 003.287-3.287V37.877a3.287 3.287 0 00-3.287-3.287zM57.491 48.178H16.508v-6.355h40.983v6.355zm14.738-.219a2.958 2.958 0 110-5.917 2.958 2.958 0 010 5.917zm5.317 10.506H12.455a3.288 3.288 0 00-3.288 3.287v14.246a3.288 3.288 0 003.288 3.287h65.091a3.287 3.287 0 003.287-3.287V61.752a3.287 3.287 0 00-3.287-3.287zM57.491 72.053H16.508v-6.355h40.983v6.355zm14.738-.219a2.958 2.958 0 110-5.917 2.958 2.958 0 010 5.917zm5.317-61.619H12.455a3.288 3.288 0 00-3.288 3.288v14.246a3.288 3.288 0 003.288 3.287h65.091a3.287 3.287 0 003.287-3.287V13.502a3.287 3.287 0 00-3.287-3.287zM57.491 23.803H16.508v-6.355h40.983v6.355zm14.738-.219a2.958 2.958 0 110-5.917 2.958 2.958 0 010 5.917z"></path></g><defs data-v-fde0c5aa=""><!----></defs><g data-v-fde0c5aa="" id="d3ad1960-1867-417f-8fc8-7813f91176cc" fill="#000000" transform="matrix(0.19253543208059778,0,0,0.19253543208059778,133.95282726933652,171.3046248140432)"><path d="M0.10 3.44C0.10 3.68 0.18 3.70 0.35 3.70L0.76 3.70C0.88 3.70 3.14 7.74 3.54 8.50C3.60 8.60 3.64 8.65 3.64 8.81C3.64 10.50 3.63 12.18 3.50 12.18L2.79 12.18C2.56 12.18 2.52 12.19 2.52 12.39C2.52 12.63 2.53 12.68 2.73 12.68C2.93 12.68 3.74 12.64 4.33 12.64C5.15 12.64 5.68 12.68 6.01 12.68C6.17 12.68 6.20 12.61 6.20 12.40C6.20 12.24 6.17 12.18 6.01 12.18L5.04 12.18C4.94 12.18 4.91 9.72 4.91 8.22C4.91 8.18 4.91 8.15 4.96 8.09C5.50 7.22 7.45 3.70 7.52 3.70L7.99 3.70C8.16 3.70 8.26 3.68 8.26 3.44C8.26 3.22 8.18 3.19 7.99 3.19C7.77 3.19 7.53 3.23 6.93 3.23C6.34 3.23 6.01 3.19 5.84 3.19C5.64 3.19 5.60 3.25 5.60 3.49C5.60 3.68 5.67 3.70 5.89 3.70L6.62 3.70C6.64 3.70 6.65 3.71 6.65 3.74C6.65 4.05 5.08 6.99 4.70 7.71C4.59 7.92 4.59 7.88 4.48 7.67C4.07 6.89 2.79 4.56 2.49 3.85C2.44 3.71 2.42 3.70 2.60 3.70L3.43 3.70C3.65 3.70 3.68 3.68 3.68 3.49C3.68 3.25 3.64 3.19 3.49 3.19C3.25 3.19 2.63 3.23 1.83 3.23C1.02 3.23 0.53 3.19 0.35 3.19C0.17 3.19 0.10 3.21 0.10 3.44ZM15.39 8.15C15.39 11.17 17.72 12.80 19.98 12.80C22.76 12.80 24.74 10.89 24.74 8.06C24.74 5.33 22.99 3.11 20.19 3.11C17.58 3.11 15.39 5.10 15.39 8.15ZM16.79 7.77C16.79 5.64 18.07 3.58 20.05 3.58C22.29 3.58 23.37 5.81 23.37 7.94C23.37 10.08 22.26 12.32 19.99 12.32C18.00 12.32 16.79 10.28 16.79 7.77ZM32.84 3.51C32.84 3.75 32.93 3.77 33.10 3.77L33.63 3.77C33.68 3.77 33.68 4.12 33.68 4.55C33.68 5.66 33.67 8.96 33.67 9.42C33.67 11.13 33.92 12.80 36.78 12.80C37.86 12.80 39.02 12.38 39.68 12.00C39.93 11.86 40.22 11.72 40.31 11.72C40.57 11.72 40.84 12.74 41.17 12.74C41.50 12.74 41.51 12.35 41.51 12.25C41.51 11.96 41.57 10.08 41.61 8.16C41.66 6.12 41.65 3.77 41.76 3.77L42.08 3.77C42.31 3.77 42.38 3.75 42.38 3.56C42.38 3.32 42.34 3.26 42.14 3.26C42 3.26 41.47 3.30 41.05 3.30C40.63 3.30 39.83 3.26 39.61 3.26C39.42 3.26 39.33 3.28 39.33 3.51C39.33 3.75 39.44 3.77 39.61 3.77L40.31 3.77C40.38 3.77 40.39 4.30 40.39 4.87L40.39 9.14C40.39 11.19 40.39 11.12 40.05 11.34C39.66 11.61 38.85 12.08 37.67 12.08C35.70 12.08 34.90 11.17 34.90 9.41C34.90 8.82 34.97 3.77 35.08 3.77L35.99 3.77C36.22 3.77 36.26 3.75 36.26 3.56C36.26 3.32 36.25 3.26 36.05 3.26C35.73 3.26 34.85 3.30 34.43 3.30C34.01 3.30 33.32 3.26 33.10 3.26C32.91 3.26 32.84 3.28 32.84 3.51ZM50.41 3.51C50.41 3.72 50.48 3.79 50.68 3.79L51.49 3.77C51.59 3.77 51.63 6.61 51.63 8.55L51.63 10.42C51.63 11.30 51.62 12.18 51.58 12.18L50.97 12.18C50.75 12.18 50.68 12.19 50.68 12.39C50.68 12.63 50.72 12.68 50.92 12.68C51.04 12.68 51.87 12.64 52.29 12.64C52.71 12.64 53.48 12.68 53.80 12.68C53.97 12.68 54.00 12.61 54.00 12.40C54.00 12.24 53.97 12.18 53.80 12.18L52.99 12.18C52.92 12.18 52.84 9.18 52.84 8.37C52.84 8.30 52.84 8.26 52.95 8.26C53.34 8.26 53.94 8.27 54.24 8.27C56.48 8.32 56.62 10.00 56.62 11.68L56.62 12.49C56.62 12.61 56.67 12.64 56.77 12.64C56.77 12.64 58.21 12.68 58.69 12.68C58.86 12.68 58.91 12.64 58.91 12.53C58.91 12.24 58.86 12.18 58.70 12.18L58.06 12.18C57.96 12.18 57.93 12.14 57.90 11.31C57.82 8.99 56.45 8.34 55.54 8.05C55.40 8.01 55.43 8.01 55.54 7.95C56.13 7.69 57.44 6.94 57.44 5.63C57.44 3.63 55.75 3.21 54.35 3.21C54.03 3.21 52.74 3.29 52.32 3.29C51.90 3.29 50.92 3.26 50.69 3.26C50.51 3.26 50.41 3.28 50.41 3.51ZM52.84 7.80L52.84 4.40C52.84 4.05 52.86 3.68 52.91 3.68C53.12 3.65 53.40 3.65 53.62 3.65C54.92 3.65 56.17 4.47 56.17 5.82C56.17 6.99 55.62 7.57 54.96 7.88C54.92 7.90 54.88 7.90 54.81 7.90C54.33 7.88 53.62 7.88 53.02 7.87C52.85 7.87 52.84 7.85 52.84 7.80ZM76.05 12.39C76.05 12.63 76.05 12.68 76.24 12.68C76.41 12.68 76.73 12.64 77.31 12.64C77.92 12.64 78.47 12.68 78.62 12.68C78.79 12.68 78.79 12.61 78.79 12.40C78.79 12.24 78.79 12.18 78.62 12.18L77.55 12.18C77.55 12.18 77.53 12.18 77.53 12.17C77.55 11.87 78.32 9.90 78.67 9.02C78.74 8.83 78.75 8.79 78.96 8.79L81.79 8.79C81.93 8.79 81.93 8.81 82.00 9.03C82.26 9.77 82.98 11.89 82.98 12.17C82.98 12.18 82.96 12.18 82.96 12.18L82.19 12.18C81.97 12.18 81.96 12.19 81.96 12.39C81.96 12.63 81.97 12.68 82.14 12.68C82.46 12.68 83.33 12.64 83.75 12.64C84.17 12.64 84.84 12.68 85.05 12.68C85.19 12.68 85.20 12.61 85.20 12.40C85.20 12.24 85.19 12.18 85.05 12.18L84.56 12.18C84.46 12.18 83.44 9.34 82.88 7.78L81.20 3.07C81.19 3.00 81.12 2.94 81.03 2.94C80.91 2.94 80.81 3.16 80.72 3.35C80.57 3.71 80.33 3.84 80.22 4.13L78.74 7.57C78.55 8.01 76.85 12.18 76.72 12.18L76.30 12.18C76.08 12.18 76.05 12.19 76.05 12.39ZM78.95 8.33C78.95 8.30 78.97 8.23 79.02 8.13L80.39 4.77C80.43 4.66 80.46 4.61 80.49 4.61C80.50 4.61 80.51 4.63 80.56 4.77L81.72 8.18C81.75 8.25 81.76 8.29 81.76 8.32C81.76 8.36 81.73 8.37 81.63 8.37L79.13 8.37C78.95 8.37 78.95 8.34 78.95 8.33ZM92.96 12.39C92.96 12.63 92.99 12.68 93.18 12.68C93.51 12.68 94.47 12.64 94.89 12.64C95.31 12.64 99.67 12.68 99.99 12.68C100.25 12.68 100.32 12.66 100.34 12.49C100.39 12.08 100.63 10.72 100.63 10.60C100.63 10.47 100.48 10.44 100.31 10.43C100.21 10.42 100.13 10.46 100.11 10.56L99.95 11.76C99.90 12.05 99.89 12.03 99.67 12.04C99.51 12.05 97.01 12.12 95.58 12.12C95.54 12.12 95.49 11.38 95.49 10.54L95.49 6.66C95.49 5.40 95.51 3.70 95.61 3.70L96.59 3.70C96.82 3.70 96.85 3.63 96.85 3.44C96.85 3.23 96.84 3.19 96.60 3.19C96.28 3.19 95.34 3.23 94.92 3.23C94.50 3.23 93.56 3.19 93.34 3.19C93.11 3.19 93.06 3.22 93.06 3.44C93.06 3.65 93.10 3.70 93.30 3.70L94.12 3.70C94.16 3.70 94.19 4.23 94.19 4.90L94.19 8.13C94.19 10.07 94.16 12.18 94.08 12.18L93.24 12.18C93.02 12.18 92.96 12.21 92.96 12.39ZM108.25 12.39C108.25 12.63 108.28 12.68 108.47 12.68C108.79 12.68 109.76 12.64 110.18 12.64C110.60 12.64 114.95 12.68 115.28 12.68C115.54 12.68 115.61 12.66 115.63 12.49C115.68 12.08 115.92 10.72 115.92 10.60C115.92 10.47 115.77 10.44 115.60 10.43C115.50 10.42 115.42 10.46 115.40 10.56L115.23 11.76C115.19 12.05 115.18 12.03 114.95 12.04C114.80 12.05 112.29 12.12 110.87 12.12C110.82 12.12 110.78 11.38 110.78 10.54L110.78 6.66C110.78 5.40 110.80 3.70 110.89 3.70L111.87 3.70C112.11 3.70 112.14 3.63 112.14 3.44C112.14 3.23 112.13 3.19 111.89 3.19C111.57 3.19 110.63 3.23 110.21 3.23C109.79 3.23 108.85 3.19 108.63 3.19C108.40 3.19 108.35 3.22 108.35 3.44C108.35 3.65 108.39 3.70 108.58 3.70L109.41 3.70C109.45 3.70 109.48 4.23 109.48 4.90L109.48 8.13C109.48 10.07 109.45 12.18 109.37 12.18L108.53 12.18C108.30 12.18 108.25 12.21 108.25 12.39ZM123.31 9.79C123.31 9.84 123.35 9.87 123.41 9.87C123.61 9.87 125.92 9.77 126.11 9.76C126.21 9.74 126.25 9.38 126.25 9.21C126.25 9.17 126.25 9.09 126.20 9.09C126.11 9.09 123.72 9.17 123.58 9.18C123.45 9.20 123.31 9.69 123.31 9.79ZM134.01 12.39C134.01 12.63 134.05 12.68 134.25 12.68C134.57 12.68 135.32 12.64 136.04 12.64C136.70 12.64 137.49 12.68 137.72 12.68C137.89 12.68 137.91 12.61 137.91 12.40C137.91 12.24 137.89 12.18 137.72 12.18L136.75 12.18C136.65 12.18 136.63 9.55 136.63 7.76L136.63 5.87C136.63 5.14 136.65 3.70 136.75 3.70L137.66 3.70C137.89 3.70 137.91 3.68 137.91 3.49C137.91 3.25 137.89 3.19 137.72 3.19C137.40 3.19 136.72 3.23 136.07 3.23C135.25 3.23 134.54 3.19 134.32 3.19C134.13 3.19 134.06 3.21 134.06 3.44C134.06 3.68 134.15 3.70 134.32 3.70L135.24 3.70C135.28 3.70 135.35 4.79 135.35 5.71L135.35 7.08C135.35 8.92 135.34 12.18 135.23 12.18L134.30 12.18C134.08 12.18 134.01 12.19 134.01 12.39ZM145.81 12.39C145.81 12.63 145.82 12.68 146.02 12.68C146.20 12.68 146.58 12.64 147.20 12.64C147.83 12.64 148.39 12.68 148.71 12.68C148.88 12.68 148.88 12.61 148.88 12.40C148.88 12.24 148.88 12.18 148.71 12.18L147.50 12.18C147.46 12.18 147.45 11.54 147.45 10.79C147.45 9.46 147.46 7.48 147.46 5.99C147.46 5.25 147.46 4.84 147.48 4.28C147.48 4.02 147.55 4.14 147.67 4.28L154.56 12.66C154.64 12.75 154.73 12.89 154.84 12.89C154.95 12.89 155.02 12.77 155.02 12.54C155.02 12.39 155.19 6.65 155.20 4.48C155.20 4.06 155.23 3.70 155.26 3.70L155.89 3.70C156.11 3.70 156.17 3.68 156.17 3.49C156.17 3.25 156.17 3.19 155.97 3.19C155.78 3.19 155.34 3.23 154.78 3.23C154.17 3.23 153.37 3.19 153.27 3.19C153.10 3.19 153.10 3.26 153.10 3.47C153.10 3.64 153.10 3.70 153.27 3.70L154.57 3.70C154.59 3.70 154.59 4.33 154.59 4.44C154.59 5.85 154.62 8.33 154.62 9.70L154.62 10.29C154.62 10.57 154.60 10.65 154.38 10.37L148.69 3.39C148.58 3.25 148.55 3.19 148.39 3.19C148.30 3.19 147.92 3.23 147.62 3.23C147.32 3.23 146.24 3.19 146.05 3.19C145.88 3.19 145.85 3.26 145.85 3.47C145.85 3.64 145.88 3.70 146.05 3.70L146.96 3.70C146.96 4.17 146.92 8.53 146.85 10.79C146.82 11.69 146.83 12.18 146.72 12.18L146.08 12.18C145.85 12.18 145.81 12.19 145.81 12.39ZM163.98 9.79C163.98 9.84 164.02 9.87 164.08 9.87C164.28 9.87 166.59 9.77 166.78 9.76C166.88 9.74 166.92 9.38 166.92 9.21C166.92 9.17 166.92 9.09 166.87 9.09C166.78 9.09 164.39 9.17 164.25 9.18C164.12 9.20 163.98 9.69 163.98 9.79ZM174.89 8.15C174.89 11.17 177.23 12.80 179.48 12.80C182.27 12.80 184.24 10.89 184.24 8.06C184.24 5.33 182.49 3.11 179.69 3.11C177.09 3.11 174.89 5.10 174.89 8.15ZM176.29 7.77C176.29 5.64 177.58 3.58 179.55 3.58C181.79 3.58 182.87 5.81 182.87 7.94C182.87 10.08 181.76 12.32 179.49 12.32C177.51 12.32 176.29 10.28 176.29 7.77ZM192.35 12.39C192.35 12.63 192.36 12.68 192.56 12.68C192.74 12.68 193.12 12.64 193.73 12.64C194.36 12.64 194.92 12.68 195.24 12.68C195.41 12.68 195.41 12.61 195.41 12.40C195.41 12.24 195.41 12.18 195.24 12.18L194.04 12.18C194.00 12.18 193.98 11.54 193.98 10.79C193.98 9.46 194.00 7.48 194.00 5.99C194.00 5.25 194.00 4.84 194.01 4.28C194.01 4.02 194.08 4.14 194.21 4.28L201.10 12.66C201.18 12.75 201.26 12.89 201.38 12.89C201.49 12.89 201.56 12.77 201.56 12.54C201.56 12.39 201.73 6.65 201.74 4.48C201.74 4.06 201.77 3.70 201.80 3.70L202.43 3.70C202.65 3.70 202.71 3.68 202.71 3.49C202.71 3.25 202.71 3.19 202.51 3.19C202.31 3.19 201.88 3.23 201.32 3.23C200.70 3.23 199.91 3.19 199.81 3.19C199.64 3.19 199.64 3.26 199.64 3.47C199.64 3.64 199.64 3.70 199.81 3.70L201.11 3.70C201.12 3.70 201.12 4.33 201.12 4.44C201.12 5.85 201.15 8.33 201.15 9.70L201.15 10.29C201.15 10.57 201.14 10.65 200.91 10.37L195.23 3.39C195.12 3.25 195.09 3.19 194.92 3.19C194.84 3.19 194.46 3.23 194.15 3.23C193.86 3.23 192.78 3.19 192.58 3.19C192.42 3.19 192.39 3.26 192.39 3.47C192.39 3.64 192.42 3.70 192.58 3.70L193.49 3.70C193.49 4.17 193.45 8.53 193.38 10.79C193.35 11.69 193.37 12.18 193.26 12.18L192.61 12.18C192.39 12.18 192.35 12.19 192.35 12.39ZM210.74 12.39C210.74 12.63 210.77 12.68 210.97 12.68C211.29 12.68 212.25 12.64 212.67 12.64C213.09 12.64 217.60 12.68 217.92 12.68C218.05 12.68 218.20 12.66 218.20 12.49C218.20 12.07 218.25 11.23 218.25 10.53C218.25 10.39 218.09 10.39 217.97 10.39C217.85 10.39 217.73 10.39 217.73 10.51C217.71 11.06 217.71 11.41 217.69 11.76C217.66 12.01 217.66 12.04 217.56 12.04C217.41 12.04 214.77 12.08 213.28 12.08C213.21 12.08 213.16 10.11 213.12 8.26C213.12 8.06 213.16 8.09 213.30 8.09L215.59 8.09C216.29 8.09 216.31 8.20 216.31 8.30L216.31 9.00C216.31 9.14 216.50 9.14 216.61 9.14C216.71 9.14 216.83 9.13 216.83 9.02C216.83 8.83 216.80 8.33 216.80 7.83C216.80 7.32 216.83 6.83 216.83 6.71C216.83 6.59 216.69 6.58 216.59 6.58C216.48 6.58 216.31 6.59 216.31 6.72L216.31 7.45C216.31 7.62 215.87 7.63 215.59 7.63L213.25 7.63C213.14 7.63 213.12 7.63 213.12 7.45C213.11 6.75 213.09 6.06 213.09 5.46C213.09 5.12 213.09 3.71 213.18 3.71C214.41 3.71 216.92 3.75 216.92 3.81C216.92 3.99 216.87 4.83 216.87 4.89C216.87 5.04 216.94 5.10 217.13 5.10C217.32 5.10 217.39 5.08 217.39 4.94C217.39 3.85 217.45 3.36 217.45 3.09C217.45 2.91 217.36 2.90 217.17 2.90C216.97 2.90 216.97 2.95 216.94 3.11C216.93 3.25 217 3.25 216.09 3.25C215.47 3.25 213.33 3.29 212.56 3.29C212.07 3.29 211.13 3.25 211.04 3.25C210.91 3.25 210.85 3.30 210.85 3.49C210.85 3.72 210.92 3.74 211.09 3.74L211.75 3.74C211.81 3.74 211.88 4.79 211.88 5.71C211.88 5.80 211.93 8.27 211.93 9.83L211.93 11.17C211.93 11.84 211.90 12.18 211.88 12.18L211.02 12.18C210.80 12.18 210.74 12.21 210.74 12.39ZM236.01 12.39C236.01 12.63 236.01 12.68 236.21 12.68C236.53 12.68 237.47 12.64 237.89 12.64C238.31 12.64 239.13 12.68 239.46 12.68C239.62 12.68 239.62 12.61 239.62 12.40C239.62 12.24 239.62 12.18 239.46 12.18L238.53 12.18C238.45 12.18 238.41 9.93 238.41 8.20C238.41 8.01 238.41 8.01 238.53 8.01L243.77 8.01C243.84 8.01 243.85 8.01 243.85 8.18L243.85 9.91C243.85 11.05 243.84 12.18 243.78 12.18L243.01 12.18C242.79 12.18 242.75 12.19 242.75 12.39C242.75 12.63 242.76 12.68 242.96 12.68C243.28 12.68 244.12 12.64 244.54 12.64C244.96 12.64 245.55 12.68 245.87 12.68C246.04 12.68 246.05 12.61 246.05 12.40C246.05 12.24 246.04 12.18 245.87 12.18L245.13 12.18C245.08 12.18 245.07 9.27 245.07 7.04C245.07 5.40 245.07 3.70 245.11 3.70L245.73 3.70C245.95 3.70 245.99 3.68 245.99 3.49C245.99 3.25 245.98 3.19 245.78 3.19C245.64 3.19 245.01 3.23 244.43 3.23C243.75 3.23 243.15 3.19 242.93 3.19C242.73 3.19 242.70 3.22 242.70 3.44C242.70 3.67 242.77 3.70 242.94 3.70L243.74 3.70C243.80 3.70 243.85 4.79 243.85 5.71L243.85 7.42C243.85 7.59 243.85 7.59 243.68 7.59L238.57 7.59C238.41 7.59 238.41 7.59 238.41 7.38C238.41 6.96 238.39 6.23 238.39 5.53C238.39 4.66 238.41 3.70 238.46 3.70L239.23 3.70C239.46 3.70 239.50 3.68 239.50 3.49C239.50 3.25 239.48 3.19 239.29 3.19C238.97 3.19 238.38 3.23 237.78 3.23C237.19 3.23 236.70 3.19 236.47 3.19C236.29 3.19 236.19 3.21 236.19 3.44C236.19 3.68 236.31 3.70 236.47 3.70L237.09 3.70C237.15 3.70 237.16 5.59 237.16 7.18L237.16 8.61C237.16 10.08 237.15 12.18 237.08 12.18L236.26 12.18C236.04 12.18 236.01 12.19 236.01 12.39ZM254.09 3.51C254.09 3.75 254.17 3.77 254.34 3.77L254.87 3.77C254.93 3.77 254.93 4.12 254.93 4.55C254.93 5.66 254.91 8.96 254.91 9.42C254.91 11.13 255.16 12.80 258.02 12.80C259.10 12.80 260.26 12.38 260.92 12.00C261.17 11.86 261.46 11.72 261.55 11.72C261.81 11.72 262.08 12.74 262.42 12.74C262.74 12.74 262.75 12.35 262.75 12.25C262.75 11.96 262.81 10.08 262.85 8.16C262.91 6.12 262.89 3.77 263.00 3.77L263.33 3.77C263.55 3.77 263.62 3.75 263.62 3.56C263.62 3.32 263.58 3.26 263.38 3.26C263.24 3.26 262.71 3.30 262.29 3.30C261.87 3.30 261.07 3.26 260.85 3.26C260.67 3.26 260.57 3.28 260.57 3.51C260.57 3.75 260.68 3.77 260.85 3.77L261.55 3.77C261.62 3.77 261.63 4.30 261.63 4.87L261.63 9.14C261.63 11.19 261.63 11.12 261.30 11.34C260.90 11.61 260.09 12.08 258.92 12.08C256.94 12.08 256.14 11.17 256.14 9.41C256.14 8.82 256.21 3.77 256.33 3.77L257.24 3.77C257.46 3.77 257.50 3.75 257.50 3.56C257.50 3.32 257.49 3.26 257.29 3.26C256.97 3.26 256.09 3.30 255.67 3.30C255.25 3.30 254.56 3.26 254.34 3.26C254.16 3.26 254.09 3.28 254.09 3.51ZM271.66 3.51C271.66 3.75 271.74 3.79 271.91 3.79L272.76 3.77C272.82 3.77 272.87 5.52 272.87 7.11L272.87 11.63C272.87 11.93 272.86 12.18 272.83 12.18L272.10 12.18C271.88 12.18 271.81 12.19 271.81 12.39C271.81 12.63 271.84 12.68 272.03 12.68C272.16 12.68 273.11 12.64 273.53 12.64C273.71 12.64 274.23 12.67 274.88 12.67C276.43 12.67 278.84 12.43 278.84 10.23C278.84 8.27 277.02 7.94 276.33 7.84C276.25 7.83 276.23 7.83 276.23 7.81C276.23 7.80 276.28 7.78 276.35 7.76C276.99 7.52 278.43 6.90 278.43 5.54C278.43 3.81 276.96 3.25 275.28 3.25C274.71 3.25 274.11 3.29 273.56 3.29C273.14 3.29 272.13 3.26 271.91 3.26C271.73 3.26 271.66 3.28 271.66 3.51ZM274.11 8.19C274.11 8.12 274.11 8.08 274.22 8.08L274.69 8.08C275.31 8.08 275.95 8.09 276.33 8.22C277.20 8.51 277.52 9.16 277.52 10.14C277.52 11.17 277.06 12.18 275.04 12.18L274.20 12.18C274.12 12.18 274.11 9.02 274.11 8.19ZM274.11 7.59L274.11 6.92C274.11 5.87 274.12 3.71 274.16 3.68C274.22 3.65 274.53 3.63 274.74 3.63C276.15 3.63 277.17 4.41 277.17 5.77C277.17 6.92 276.44 7.46 275.81 7.66C275.73 7.69 275.63 7.70 275.55 7.70C275.46 7.70 275.32 7.69 275.09 7.69L274.29 7.69C274.11 7.69 274.11 7.67 274.11 7.59ZM296.74 3.49C296.74 3.72 296.86 3.74 297.02 3.74L297.64 3.74C297.70 3.74 297.77 4.79 297.77 5.71C297.77 5.80 297.82 8.27 297.82 9.83L297.82 11.17C297.82 11.84 297.81 12.18 297.75 12.18L297.16 12.18C296.94 12.18 296.87 12.19 296.87 12.39C296.87 12.63 296.88 12.68 297.08 12.68C297.29 12.68 298.13 12.64 298.55 12.64C298.97 12.64 299.91 12.68 300.23 12.68C300.40 12.68 300.43 12.61 300.43 12.40C300.43 12.24 300.40 12.18 300.23 12.18L299.10 12.18C299.04 12.18 299.05 10.16 299.01 8.33C299.01 8.08 299.00 8.09 299.19 8.09L301.62 8.09C302.32 8.09 302.34 8.19 302.34 8.30L302.34 9.16C302.34 9.28 302.53 9.28 302.64 9.28C302.74 9.28 302.86 9.28 302.86 9.17C302.86 8.99 302.83 8.33 302.83 7.83C302.83 7.32 302.86 6.82 302.86 6.69C302.86 6.58 302.75 6.58 302.62 6.58C302.46 6.58 302.34 6.58 302.34 6.71L302.34 7.45C302.34 7.62 301.90 7.63 301.62 7.63L299.19 7.63C298.98 7.63 299.01 7.66 299.01 7.45C299.00 7.13 298.98 6.15 298.98 5.26C298.98 4.52 299.00 3.71 299.07 3.71C300.47 3.71 302.65 3.75 302.95 3.79C302.95 3.96 302.90 4.82 302.90 4.89C302.90 5.04 302.97 5.10 303.16 5.10C303.35 5.10 303.42 5.08 303.42 4.94C303.42 3.85 303.48 3.36 303.48 3.09C303.48 2.93 303.39 2.90 303.20 2.90C303.07 2.90 303.00 2.90 302.97 3.11C302.96 3.25 303.03 3.25 302.08 3.25C301.48 3.25 299.19 3.29 298.45 3.29C297.96 3.29 297.02 3.25 296.93 3.25C296.80 3.25 296.74 3.30 296.74 3.49ZM311.51 8.15C311.51 11.17 313.85 12.80 316.11 12.80C318.89 12.80 320.87 10.89 320.87 8.06C320.87 5.33 319.12 3.11 316.32 3.11C313.71 3.11 311.51 5.10 311.51 8.15ZM312.91 7.77C312.91 5.64 314.20 3.58 316.18 3.58C318.42 3.58 319.49 5.81 319.49 7.94C319.49 10.08 318.39 12.32 316.12 12.32C314.13 12.32 312.91 10.28 312.91 7.77ZM328.97 3.51C328.97 3.72 329.04 3.79 329.24 3.79L330.05 3.77C330.15 3.77 330.19 6.61 330.19 8.55L330.19 10.42C330.19 11.30 330.18 12.18 330.13 12.18L329.53 12.18C329.31 12.18 329.24 12.19 329.24 12.39C329.24 12.63 329.28 12.68 329.48 12.68C329.60 12.68 330.43 12.64 330.85 12.64C331.27 12.64 332.04 12.68 332.36 12.68C332.53 12.68 332.56 12.61 332.56 12.40C332.56 12.24 332.53 12.18 332.36 12.18L331.55 12.18C331.48 12.18 331.39 9.18 331.39 8.37C331.39 8.30 331.39 8.26 331.51 8.26C331.90 8.26 332.50 8.27 332.79 8.27C335.03 8.32 335.17 10.00 335.17 11.68L335.17 12.49C335.17 12.61 335.23 12.64 335.33 12.64C335.33 12.64 336.77 12.68 337.25 12.68C337.41 12.68 337.47 12.64 337.47 12.53C337.47 12.24 337.41 12.18 337.26 12.18L336.62 12.18C336.52 12.18 336.49 12.14 336.46 11.31C336.38 8.99 335.01 8.34 334.10 8.05C333.96 8.01 333.98 8.01 334.10 7.95C334.68 7.69 336.00 6.94 336.00 5.63C336.00 3.63 334.31 3.21 332.91 3.21C332.58 3.21 331.30 3.29 330.88 3.29C330.46 3.29 329.48 3.26 329.25 3.26C329.07 3.26 328.97 3.28 328.97 3.51ZM331.39 7.80L331.39 4.40C331.39 4.05 331.42 3.68 331.46 3.68C331.67 3.65 331.95 3.65 332.18 3.65C333.48 3.65 334.73 4.47 334.73 5.82C334.73 6.99 334.18 7.57 333.52 7.88C333.48 7.90 333.44 7.90 333.37 7.90C332.89 7.88 332.18 7.88 331.58 7.87C331.41 7.87 331.39 7.85 331.39 7.80ZM354.75 3.51C354.75 3.75 354.79 3.79 355.00 3.79L355.92 3.77C355.98 3.77 355.98 4.47 355.98 5.24L355.98 5.96C355.98 7.70 355.96 12.18 355.85 12.18L355.18 12.18C354.96 12.18 354.89 12.19 354.89 12.39C354.89 12.63 354.90 12.68 355.10 12.68C355.22 12.68 356.20 12.64 356.62 12.64C357.04 12.64 357.91 12.68 358.23 12.68C358.40 12.68 358.43 12.61 358.43 12.40C358.43 12.24 358.40 12.18 358.23 12.18L357.24 12.18C357.20 12.18 357.18 10.60 357.18 9.58L357.18 8.65C357.18 8.57 357.18 8.54 357.28 8.54C357.67 8.54 357.99 8.58 358.50 8.58C360.49 8.58 361.89 7.83 361.89 6.01C361.89 4.09 360.40 3.22 358.48 3.22C358.16 3.22 357.07 3.29 356.65 3.29C356.41 3.29 355.22 3.26 355.00 3.26C354.82 3.26 354.75 3.28 354.75 3.51ZM357.20 8.05L357.20 4.40C357.20 4.05 357.21 3.70 357.25 3.68C357.38 3.67 357.55 3.67 357.69 3.67C359.34 3.67 360.60 4.47 360.60 5.80C360.60 7.57 359.27 8.19 357.69 8.19C357.43 8.19 357.20 8.16 357.20 8.05ZM368.38 12.39C368.38 12.63 368.38 12.68 368.58 12.68C368.75 12.68 369.07 12.64 369.64 12.64C370.26 12.64 370.80 12.68 370.96 12.68C371.13 12.68 371.13 12.61 371.13 12.40C371.13 12.24 371.13 12.18 370.96 12.18L369.88 12.18C369.88 12.18 369.87 12.18 369.87 12.17C369.88 11.87 370.65 9.90 371.00 9.02C371.07 8.83 371.08 8.79 371.29 8.79L374.12 8.79C374.26 8.79 374.26 8.81 374.33 9.03C374.60 9.77 375.31 11.89 375.31 12.17C375.31 12.18 375.30 12.18 375.30 12.18L374.53 12.18C374.30 12.18 374.29 12.19 374.29 12.39C374.29 12.63 374.30 12.68 374.47 12.68C374.79 12.68 375.66 12.64 376.08 12.64C376.50 12.64 377.17 12.68 377.38 12.68C377.52 12.68 377.54 12.61 377.54 12.40C377.54 12.24 377.52 12.18 377.38 12.18L376.89 12.18C376.80 12.18 375.77 9.34 375.21 7.78L373.53 3.07C373.52 3.00 373.45 2.94 373.37 2.94C373.24 2.94 373.14 3.16 373.06 3.35C372.90 3.71 372.67 3.84 372.55 4.13L371.07 7.57C370.89 8.01 369.18 12.18 369.05 12.18L368.63 12.18C368.41 12.18 368.38 12.19 368.38 12.39ZM371.28 8.33C371.28 8.30 371.31 8.23 371.35 8.13L372.72 4.77C372.76 4.66 372.79 4.61 372.82 4.61C372.83 4.61 372.85 4.63 372.89 4.77L374.05 8.18C374.08 8.25 374.09 8.29 374.09 8.32C374.09 8.36 374.07 8.37 373.97 8.37L371.46 8.37C371.28 8.37 371.28 8.34 371.28 8.33ZM384.03 3.44C384.03 3.68 384.12 3.70 384.29 3.70L384.69 3.70C384.82 3.70 387.07 7.74 387.48 8.50C387.53 8.60 387.58 8.65 387.58 8.81C387.58 10.50 387.56 12.18 387.44 12.18L386.72 12.18C386.50 12.18 386.46 12.19 386.46 12.39C386.46 12.63 386.47 12.68 386.67 12.68C386.86 12.68 387.67 12.64 388.26 12.64C389.09 12.64 389.62 12.68 389.94 12.68C390.11 12.68 390.14 12.61 390.14 12.40C390.14 12.24 390.11 12.18 389.94 12.18L388.98 12.18C388.88 12.18 388.85 9.72 388.85 8.22C388.85 8.18 388.85 8.15 388.89 8.09C389.44 7.22 391.38 3.70 391.45 3.70L391.93 3.70C392.10 3.70 392.20 3.68 392.20 3.44C392.20 3.22 392.11 3.19 391.93 3.19C391.71 3.19 391.47 3.23 390.87 3.23C390.28 3.23 389.94 3.19 389.77 3.19C389.58 3.19 389.54 3.25 389.54 3.49C389.54 3.68 389.61 3.70 389.83 3.70L390.56 3.70C390.57 3.70 390.59 3.71 390.59 3.74C390.59 4.05 389.02 6.99 388.64 7.71C388.53 7.92 388.53 7.88 388.42 7.67C388.01 6.89 386.72 4.56 386.43 3.85C386.37 3.71 386.36 3.70 386.54 3.70L387.37 3.70C387.59 3.70 387.62 3.68 387.62 3.49C387.62 3.25 387.58 3.19 387.42 3.19C387.18 3.19 386.57 3.23 385.77 3.23C384.96 3.23 384.47 3.19 384.29 3.19C384.10 3.19 384.03 3.21 384.03 3.44ZM399.74 12.39C399.74 12.63 399.77 12.68 399.97 12.68C400.20 12.68 400.71 12.64 401.13 12.64C401.55 12.64 402.04 12.68 402.36 12.68C402.53 12.68 402.56 12.61 402.56 12.40C402.56 12.24 402.53 12.18 402.36 12.18L401.39 12.18C401.34 12.18 401.32 11.54 401.32 10.79C401.32 8.96 401.37 6.13 401.44 4.28C401.46 3.88 401.49 3.91 401.63 4.27L404.89 12.32C404.99 12.54 405.06 12.74 405.17 12.74C405.27 12.74 405.34 12.63 405.43 12.45C405.76 11.79 405.94 11.75 406.21 11.09L408.80 4.47C408.93 4.16 408.97 4.02 408.98 4.47C409.01 5.66 409.05 8.47 409.05 9.74C409.05 10.99 409.01 12.18 408.95 12.18L408.32 12.18C408.10 12.18 408.03 12.19 408.03 12.39C408.03 12.63 408.06 12.68 408.25 12.68C408.45 12.68 409.15 12.64 409.75 12.64C410.17 12.64 410.93 12.68 411.25 12.68C411.42 12.68 411.45 12.61 411.45 12.40C411.45 12.22 411.39 12.18 411.22 12.18L410.49 12.18C410.38 12.18 410.28 8.44 410.28 6.03L410.28 4.77C410.28 4.17 410.31 3.77 410.35 3.70L411.01 3.70C411.24 3.70 411.28 3.68 411.28 3.49C411.28 3.25 411.26 3.19 411.07 3.19C410.75 3.19 410.06 3.23 409.64 3.23L408.97 3.23C408.74 3.23 408.72 3.29 408.60 3.58L405.86 10.72C405.78 10.95 405.75 11.02 405.64 10.74L402.70 3.40C402.63 3.22 402.57 3.19 402.43 3.19C402.35 3.19 401.86 3.23 401.55 3.23C401.04 3.23 400.19 3.19 399.99 3.19C399.85 3.19 399.85 3.26 399.85 3.47C399.85 3.64 399.85 3.70 399.99 3.70L400.69 3.70C400.96 3.70 400.96 3.72 400.96 3.84C400.96 4.82 400.75 9.94 400.71 10.79C400.67 11.55 400.67 12.18 400.61 12.18L400.04 12.18C399.81 12.18 399.74 12.19 399.74 12.39ZM419.34 12.39C419.34 12.63 419.37 12.68 419.57 12.68C419.89 12.68 420.85 12.64 421.27 12.64C421.69 12.64 426.20 12.68 426.52 12.68C426.65 12.68 426.80 12.66 426.80 12.49C426.80 12.07 426.85 11.23 426.85 10.53C426.85 10.39 426.69 10.39 426.57 10.39C426.45 10.39 426.33 10.39 426.33 10.51C426.31 11.06 426.31 11.41 426.29 11.76C426.26 12.01 426.26 12.04 426.16 12.04C426.01 12.04 423.37 12.08 421.88 12.08C421.81 12.08 421.76 10.11 421.72 8.26C421.72 8.06 421.76 8.09 421.90 8.09L424.19 8.09C424.89 8.09 424.91 8.20 424.91 8.30L424.91 9.00C424.91 9.14 425.10 9.14 425.21 9.14C425.31 9.14 425.43 9.13 425.43 9.02C425.43 8.83 425.40 8.33 425.40 7.83C425.40 7.32 425.43 6.83 425.43 6.71C425.43 6.59 425.29 6.58 425.19 6.58C425.08 6.58 424.91 6.59 424.91 6.72L424.91 7.45C424.91 7.62 424.47 7.63 424.19 7.63L421.85 7.63C421.74 7.63 421.72 7.63 421.72 7.45C421.71 6.75 421.69 6.06 421.69 5.46C421.69 5.12 421.69 3.71 421.78 3.71C423.01 3.71 425.52 3.75 425.52 3.81C425.52 3.99 425.47 4.83 425.47 4.89C425.47 5.04 425.54 5.10 425.73 5.10C425.92 5.10 425.99 5.08 425.99 4.94C425.99 3.85 426.05 3.36 426.05 3.09C426.05 2.91 425.96 2.90 425.77 2.90C425.57 2.90 425.57 2.95 425.54 3.11C425.53 3.25 425.60 3.25 424.69 3.25C424.07 3.25 421.93 3.29 421.16 3.29C420.67 3.29 419.73 3.25 419.64 3.25C419.51 3.25 419.45 3.30 419.45 3.49C419.45 3.72 419.52 3.74 419.69 3.74L420.35 3.74C420.41 3.74 420.48 4.79 420.48 5.71C420.48 5.80 420.53 8.27 420.53 9.83L420.53 11.17C420.53 11.84 420.50 12.18 420.48 12.18L419.62 12.18C419.40 12.18 419.34 12.21 419.34 12.39ZM434.81 12.39C434.81 12.63 434.83 12.68 435.02 12.68C435.20 12.68 435.58 12.64 436.20 12.64C436.83 12.64 437.39 12.68 437.71 12.68C437.88 12.68 437.88 12.61 437.88 12.40C437.88 12.24 437.88 12.18 437.71 12.18L436.51 12.18C436.46 12.18 436.45 11.54 436.45 10.79C436.45 9.46 436.46 7.48 436.46 5.99C436.46 5.25 436.46 4.84 436.48 4.28C436.48 4.02 436.55 4.14 436.67 4.28L443.56 12.66C443.65 12.75 443.73 12.89 443.84 12.89C443.95 12.89 444.02 12.77 444.02 12.54C444.02 12.39 444.19 6.65 444.21 4.48C444.21 4.06 444.23 3.70 444.26 3.70L444.89 3.70C445.12 3.70 445.17 3.68 445.17 3.49C445.17 3.25 445.17 3.19 444.98 3.19C444.78 3.19 444.35 3.23 443.79 3.23C443.17 3.23 442.37 3.19 442.27 3.19C442.11 3.19 442.11 3.26 442.11 3.47C442.11 3.64 442.11 3.70 442.27 3.70L443.58 3.70C443.59 3.70 443.59 4.33 443.59 4.44C443.59 5.85 443.62 8.33 443.62 9.70L443.62 10.29C443.62 10.57 443.60 10.65 443.38 10.37L437.70 3.39C437.58 3.25 437.56 3.19 437.39 3.19C437.30 3.19 436.93 3.23 436.62 3.23C436.32 3.23 435.25 3.19 435.05 3.19C434.88 3.19 434.85 3.26 434.85 3.47C434.85 3.64 434.88 3.70 435.05 3.70L435.96 3.70C435.96 4.17 435.92 8.53 435.85 10.79C435.82 11.69 435.83 12.18 435.72 12.18L435.08 12.18C434.85 12.18 434.81 12.19 434.81 12.39ZM452.94 5.01C452.94 5.17 453.12 5.17 453.25 5.17C453.40 5.17 453.45 5.15 453.46 4.97L453.57 3.89C453.59 3.81 454.13 3.75 454.89 3.75L456.88 3.75C456.93 3.75 456.96 4.35 456.96 4.97C456.96 6.43 456.90 12.18 456.78 12.18L455.91 12.18C455.69 12.18 455.64 12.19 455.64 12.39C455.64 12.63 455.66 12.68 455.85 12.68C456.18 12.68 457.16 12.64 457.58 12.64C458.00 12.64 458.93 12.68 459.26 12.68C459.42 12.68 459.45 12.61 459.45 12.40C459.45 12.24 459.42 12.18 459.26 12.18L458.26 12.18C458.23 12.18 458.23 11.76 458.23 11.31C458.23 9.56 458.32 5.96 458.32 5.92C458.33 5.18 458.33 3.75 458.43 3.75L460.04 3.75C460.75 3.75 461.58 3.78 461.58 3.85C461.58 3.99 461.54 4.90 461.54 4.97C461.54 5.12 461.61 5.17 461.79 5.17C461.99 5.17 462.06 5.17 462.06 5.03C462.06 3.93 462.11 3.40 462.11 3.14C462.11 2.94 462.03 2.94 461.83 2.94C461.68 2.94 461.62 2.98 461.61 3.16C461.61 3.23 460.96 3.28 460.12 3.28L455.13 3.28C454.47 3.28 453.66 3.28 453.66 3.21L453.66 3.07C453.66 2.94 453.53 2.94 453.43 2.94C453.21 2.94 453.18 3.00 453.17 3.19C453.11 3.89 452.94 4.97 452.94 5.01ZM470.08 5.77C470.08 9.07 475.06 8.20 475.06 10.65C475.06 11.59 474.22 12.31 473.24 12.31C472.42 12.31 470.82 11.83 470.79 11.47L470.71 10.15C470.69 9.97 470.62 9.91 470.44 9.91L470.37 9.91C470.16 9.91 470.16 10.00 470.16 10.12C470.16 10.32 470.27 11.66 470.30 12.17C470.32 12.38 471.58 12.85 473.12 12.85C474.68 12.85 476.29 11.87 476.29 10.11C476.29 6.79 471.32 7.87 471.32 5.32C471.32 4.31 472.11 3.56 473.14 3.56C474.17 3.56 475.26 4.58 475.26 4.89C475.26 5.01 475.22 5.73 475.22 5.78C475.22 5.92 475.26 5.99 475.52 5.99C475.76 5.99 475.78 5.94 475.78 5.75C475.78 5.04 475.86 3.68 475.86 3.53C475.86 3.30 475.82 3.29 475.55 3.29C475.33 3.29 475.31 3.32 475.30 3.53C475.30 3.61 475.29 3.78 475.24 3.78C475.19 3.78 475.10 3.74 475.03 3.68C474.24 3.14 473.62 3.08 473.12 3.08C471.59 3.08 470.08 4.17 470.08 5.77ZM493.92 12.39C493.92 12.63 493.92 12.68 494.12 12.68C494.28 12.68 494.61 12.64 495.18 12.64C495.80 12.64 496.34 12.68 496.50 12.68C496.66 12.68 496.66 12.61 496.66 12.40C496.66 12.24 496.66 12.18 496.50 12.18L495.42 12.18C495.42 12.18 495.40 12.18 495.40 12.17C495.42 11.87 496.19 9.90 496.54 9.02C496.61 8.83 496.62 8.79 496.83 8.79L499.66 8.79C499.80 8.79 499.80 8.81 499.87 9.03C500.14 9.77 500.85 11.89 500.85 12.17C500.85 12.18 500.84 12.18 500.84 12.18L500.07 12.18C499.84 12.18 499.83 12.19 499.83 12.39C499.83 12.63 499.84 12.68 500.01 12.68C500.33 12.68 501.20 12.64 501.62 12.64C502.04 12.64 502.71 12.68 502.92 12.68C503.06 12.68 503.08 12.61 503.08 12.40C503.08 12.24 503.06 12.18 502.92 12.18L502.43 12.18C502.33 12.18 501.31 9.34 500.75 7.78L499.07 3.07C499.06 3.00 498.99 2.94 498.90 2.94C498.78 2.94 498.68 3.16 498.60 3.35C498.44 3.71 498.20 3.84 498.09 4.13L496.61 7.57C496.43 8.01 494.72 12.18 494.59 12.18L494.17 12.18C493.95 12.18 493.92 12.19 493.92 12.39ZM496.82 8.33C496.82 8.30 496.85 8.23 496.89 8.13L498.26 4.77C498.30 4.66 498.33 4.61 498.36 4.61C498.37 4.61 498.39 4.63 498.43 4.77L499.59 8.18C499.62 8.25 499.63 8.29 499.63 8.32C499.63 8.36 499.60 8.37 499.51 8.37L497.00 8.37C496.82 8.37 496.82 8.34 496.82 8.33ZM510.83 12.39C510.83 12.63 510.85 12.68 511.04 12.68C511.22 12.68 511.60 12.64 512.22 12.64C512.85 12.64 513.41 12.68 513.73 12.68C513.90 12.68 513.90 12.61 513.90 12.40C513.90 12.24 513.90 12.18 513.73 12.18L512.53 12.18C512.48 12.18 512.47 11.54 512.47 10.79C512.47 9.46 512.48 7.48 512.48 5.99C512.48 5.25 512.48 4.84 512.50 4.28C512.50 4.02 512.57 4.14 512.69 4.28L519.58 12.66C519.67 12.75 519.75 12.89 519.86 12.89C519.97 12.89 520.04 12.77 520.04 12.54C520.04 12.39 520.21 6.65 520.23 4.48C520.23 4.06 520.25 3.70 520.28 3.70L520.91 3.70C521.14 3.70 521.19 3.68 521.19 3.49C521.19 3.25 521.19 3.19 521.00 3.19C520.80 3.19 520.37 3.23 519.81 3.23C519.19 3.23 518.39 3.19 518.29 3.19C518.13 3.19 518.13 3.26 518.13 3.47C518.13 3.64 518.13 3.70 518.29 3.70L519.60 3.70C519.61 3.70 519.61 4.33 519.61 4.44C519.61 5.85 519.64 8.33 519.64 9.70L519.64 10.29C519.64 10.57 519.62 10.65 519.40 10.37L513.72 3.39C513.60 3.25 513.58 3.19 513.41 3.19C513.32 3.19 512.95 3.23 512.64 3.23C512.34 3.23 511.27 3.19 511.07 3.19C510.90 3.19 510.87 3.26 510.87 3.47C510.87 3.64 510.90 3.70 511.07 3.70L511.98 3.70C511.98 4.17 511.94 8.53 511.87 10.79C511.84 11.69 511.85 12.18 511.74 12.18L511.10 12.18C510.87 12.18 510.83 12.19 510.83 12.39ZM529.16 12.46C529.16 12.63 529.17 12.70 529.35 12.70C529.51 12.70 530.74 12.64 531.13 12.64C531.99 12.64 532.87 12.70 533.72 12.70C536.34 12.70 538.73 11.07 538.73 7.91C538.73 4.89 536.40 3.07 533.36 3.07C532.80 3.07 531.54 3.23 530.50 3.23C530.03 3.23 529.56 3.22 529.51 3.22C529.33 3.22 529.31 3.32 529.31 3.49C529.31 3.68 529.38 3.70 529.51 3.70L530.47 3.67C530.50 3.67 530.50 4.20 530.50 4.72C530.50 5.91 530.42 12.21 530.33 12.21L529.44 12.21C529.26 12.21 529.16 12.22 529.16 12.46ZM531.73 11.40C531.73 9.46 531.73 7.52 531.75 5.60C531.75 5.03 531.79 3.61 531.83 3.60C532.13 3.53 532.71 3.51 533.06 3.51C535.63 3.51 537.24 5.75 537.24 7.73C537.24 8.95 537.19 12.25 532.52 12.25C532.25 12.25 531.85 12.25 531.75 12.21C531.73 12.19 531.73 11.79 531.73 11.40ZM556.71 7.91C556.71 11.31 559.08 12.87 561.67 12.87C563.44 12.87 565.22 11.90 565.26 11.59C565.43 10.29 565.49 9.70 565.49 9.66C565.49 9.56 565.45 9.52 565.28 9.51C565.22 9.51 565.17 9.49 565.12 9.49C565.01 9.49 564.96 9.53 564.93 9.70L564.75 11.33C564.73 11.45 563.63 12.24 562.06 12.24C559.93 12.24 558.22 10.29 558.22 7.94C558.22 5.42 559.65 3.54 561.65 3.54C563.50 3.54 564.84 5.01 564.84 5.17C564.84 5.29 564.79 6.40 564.79 6.45C564.79 6.59 564.83 6.64 565.10 6.64C565.29 6.64 565.36 6.62 565.36 6.44C565.36 5.73 565.42 3.92 565.42 3.67C565.42 3.47 565.31 3.44 565.10 3.44C564.87 3.44 564.84 3.50 564.84 3.67L564.84 4.05C564.84 4.16 564.80 4.16 564.68 4.06C564.40 3.86 563.42 3.04 561.75 3.04C558.91 3.04 556.71 4.96 556.71 7.91ZM573.87 3.51C573.87 3.72 573.94 3.79 574.14 3.79L574.95 3.77C575.05 3.77 575.09 6.61 575.09 8.55L575.09 10.42C575.09 11.30 575.08 12.18 575.04 12.18L574.43 12.18C574.21 12.18 574.14 12.19 574.14 12.39C574.14 12.63 574.18 12.68 574.38 12.68C574.50 12.68 575.33 12.64 575.75 12.64C576.17 12.64 576.94 12.68 577.26 12.68C577.43 12.68 577.46 12.61 577.46 12.40C577.46 12.24 577.43 12.18 577.26 12.18L576.45 12.18C576.38 12.18 576.30 9.18 576.30 8.37C576.30 8.30 576.30 8.26 576.41 8.26C576.80 8.26 577.40 8.27 577.70 8.27C579.94 8.32 580.08 10.00 580.08 11.68L580.08 12.49C580.08 12.61 580.13 12.64 580.23 12.64C580.23 12.64 581.67 12.68 582.15 12.68C582.32 12.68 582.37 12.64 582.37 12.53C582.37 12.24 582.32 12.18 582.16 12.18L581.52 12.18C581.42 12.18 581.39 12.14 581.36 11.31C581.28 8.99 579.91 8.34 579.00 8.05C578.86 8.01 578.89 8.01 579.00 7.95C579.59 7.69 580.90 6.94 580.90 5.63C580.90 3.63 579.21 3.21 577.81 3.21C577.49 3.21 576.20 3.29 575.78 3.29C575.36 3.29 574.38 3.26 574.15 3.26C573.97 3.26 573.87 3.28 573.87 3.51ZM576.30 7.80L576.30 4.40C576.30 4.05 576.32 3.68 576.37 3.68C576.58 3.65 576.86 3.65 577.08 3.65C578.38 3.65 579.63 4.47 579.63 5.82C579.63 6.99 579.08 7.57 578.42 7.88C578.38 7.90 578.34 7.90 578.27 7.90C577.79 7.88 577.08 7.88 576.48 7.87C576.31 7.87 576.30 7.85 576.30 7.80ZM589.01 3.44C589.01 3.68 589.09 3.70 589.26 3.70L589.67 3.70C589.79 3.70 592.05 7.74 592.45 8.50C592.51 8.60 592.55 8.65 592.55 8.81C592.55 10.50 592.54 12.18 592.41 12.18L591.70 12.18C591.47 12.18 591.43 12.19 591.43 12.39C591.43 12.63 591.44 12.68 591.64 12.68C591.84 12.68 592.65 12.64 593.24 12.64C594.06 12.64 594.59 12.68 594.92 12.68C595.08 12.68 595.11 12.61 595.11 12.40C595.11 12.24 595.08 12.18 594.92 12.18L593.95 12.18C593.85 12.18 593.82 9.72 593.82 8.22C593.82 8.18 593.82 8.15 593.87 8.09C594.41 7.22 596.36 3.70 596.43 3.70L596.90 3.70C597.07 3.70 597.17 3.68 597.17 3.44C597.17 3.22 597.09 3.19 596.90 3.19C596.68 3.19 596.44 3.23 595.84 3.23C595.25 3.23 594.92 3.19 594.75 3.19C594.55 3.19 594.51 3.25 594.51 3.49C594.51 3.68 594.58 3.70 594.80 3.70L595.53 3.70C595.55 3.70 595.56 3.71 595.56 3.74C595.56 4.05 593.99 6.99 593.61 7.71C593.50 7.92 593.50 7.88 593.39 7.67C592.98 6.89 591.70 4.56 591.40 3.85C591.35 3.71 591.33 3.70 591.51 3.70L592.34 3.70C592.56 3.70 592.59 3.68 592.59 3.49C592.59 3.25 592.55 3.19 592.40 3.19C592.16 3.19 591.54 3.23 590.74 3.23C589.93 3.23 589.44 3.19 589.26 3.19C589.08 3.19 589.01 3.21 589.01 3.44ZM604.79 3.51C604.79 3.75 604.83 3.79 605.04 3.79L605.96 3.77C606.02 3.77 606.02 4.47 606.02 5.24L606.02 5.96C606.02 7.70 606.00 12.18 605.89 12.18L605.22 12.18C605.00 12.18 604.93 12.19 604.93 12.39C604.93 12.63 604.94 12.68 605.14 12.68C605.26 12.68 606.24 12.64 606.66 12.64C607.08 12.64 607.95 12.68 608.27 12.68C608.44 12.68 608.47 12.61 608.47 12.40C608.47 12.24 608.44 12.18 608.27 12.18L607.28 12.18C607.24 12.18 607.22 10.60 607.22 9.58L607.22 8.65C607.22 8.57 607.22 8.54 607.32 8.54C607.71 8.54 608.03 8.58 608.54 8.58C610.53 8.58 611.93 7.83 611.93 6.01C611.93 4.09 610.44 3.22 608.52 3.22C608.20 3.22 607.11 3.29 606.69 3.29C606.45 3.29 605.26 3.26 605.04 3.26C604.86 3.26 604.79 3.28 604.79 3.51ZM607.24 8.05L607.24 4.40C607.24 4.05 607.25 3.70 607.29 3.68C607.42 3.67 607.59 3.67 607.73 3.67C609.38 3.67 610.64 4.47 610.64 5.80C610.64 7.57 609.31 8.19 607.73 8.19C607.47 8.19 607.24 8.16 607.24 8.05ZM619.42 5.01C619.42 5.17 619.60 5.17 619.72 5.17C619.88 5.17 619.92 5.15 619.93 4.97L620.05 3.89C620.06 3.81 620.61 3.75 621.36 3.75L623.35 3.75C623.41 3.75 623.43 4.35 623.43 4.97C623.43 6.43 623.38 12.18 623.25 12.18L622.38 12.18C622.16 12.18 622.12 12.19 622.12 12.39C622.12 12.63 622.13 12.68 622.33 12.68C622.65 12.68 623.63 12.64 624.05 12.64C624.47 12.64 625.41 12.68 625.73 12.68C625.90 12.68 625.93 12.61 625.93 12.40C625.93 12.24 625.90 12.18 625.73 12.18L624.74 12.18C624.71 12.18 624.71 11.76 624.71 11.31C624.71 9.56 624.79 5.96 624.79 5.92C624.81 5.18 624.81 3.75 624.90 3.75L626.51 3.75C627.23 3.75 628.05 3.78 628.05 3.85C628.05 3.99 628.01 4.90 628.01 4.97C628.01 5.12 628.08 5.17 628.26 5.17C628.46 5.17 628.53 5.17 628.53 5.03C628.53 3.93 628.59 3.40 628.59 3.14C628.59 2.94 628.50 2.94 628.31 2.94C628.15 2.94 628.10 2.98 628.08 3.16C628.08 3.23 627.44 3.28 626.60 3.28L621.60 3.28C620.94 3.28 620.13 3.28 620.13 3.21L620.13 3.07C620.13 2.94 620.00 2.94 619.91 2.94C619.68 2.94 619.65 3.00 619.64 3.19C619.58 3.89 619.42 4.97 619.42 5.01ZM635.85 8.15C635.85 11.17 638.19 12.80 640.44 12.80C643.23 12.80 645.20 10.89 645.20 8.06C645.20 5.33 643.45 3.11 640.65 3.11C638.05 3.11 635.85 5.10 635.85 8.15ZM637.25 7.77C637.25 5.64 638.54 3.58 640.51 3.58C642.75 3.58 643.83 5.81 643.83 7.94C643.83 10.08 642.73 12.32 640.46 12.32C638.47 12.32 637.25 10.28 637.25 7.77ZM653.17 12.07C653.17 12.31 653.62 12.75 654.04 12.75C654.22 12.75 654.67 12.35 654.67 11.90C654.67 11.51 654.09 11.20 653.83 11.20C653.56 11.20 653.17 11.76 653.17 12.07Z"></path></g></svg>