<?xml version="1.0" encoding="UTF-8"?>
<svg xmlns="http://www.w3.org/2000/svg" xmlns:xlink="http://www.w3.org/1999/xlink" width="150px" height="150px" viewBox="0 0 225 225" version="1.1">
<defs>
<linearGradient id="linear0" gradientUnits="userSpaceOnUse" x1="0" y1="0" x2="1" y2="0" gradientTransform="matrix(55.040497,24.736375,-25.665805,53.047328,30,83.234375)">
<stop offset="0" style="stop-color:rgb(58.039216%,31.372549%,41.176471%);stop-opacity:1;"/>
<stop offset="1" style="stop-color:rgb(52.54902%,78.431373%,40%);stop-opacity:1;"/>
</linearGradient>
</defs>
<g id="surface1">
<path style=" stroke:none;fill-rule:nonzero;fill:rgb(0%,0%,0%);fill-opacity:1;" d="M 115.515625 88.601562 L 115.515625 114.449219 C 114.851562 114.675781 114.011719 114.894531 112.988281 115.105469 C 111.96875 115.316406 110.683594 115.421875 109.128906 115.421875 C 107.832031 115.421875 106.65625 115.210938 105.605469 114.789062 C 104.550781 114.367188 103.644531 113.761719 102.882812 112.96875 C 102.121094 112.175781 101.53125 111.210938 101.109375 110.078125 C 100.691406 108.945312 100.480469 107.664062 100.480469 106.238281 C 100.480469 104.894531 100.65625 103.664062 101.011719 102.546875 C 101.355469 101.414062 101.863281 100.441406 102.542969 99.632812 C 103.222656 98.820312 104.058594 98.191406 105.046875 97.738281 C 106.035156 97.28125 107.167969 97.054688 108.445312 97.054688 C 109.597656 97.054688 110.601562 97.21875 111.460938 97.542969 C 112.300781 97.867188 112.917969 98.175781 113.304688 98.464844 L 113.304688 89.015625 Z M 113.304688 112.917969 L 113.304688 100.628906 C 113.09375 100.464844 112.835938 100.296875 112.527344 100.117188 C 112.21875 99.921875 111.863281 99.753906 111.460938 99.605469 C 111.054688 99.445312 110.617188 99.308594 110.148438 99.195312 C 109.660156 99.097656 109.160156 99.046875 108.640625 99.046875 C 107.554688 99.046875 106.640625 99.242188 105.894531 99.632812 C 105.167969 100.019531 104.578125 100.539062 104.121094 101.1875 C 103.667969 101.832031 103.335938 102.585938 103.125 103.445312 C 102.933594 104.320312 102.835938 105.25 102.835938 106.238281 C 102.835938 108.539062 103.410156 110.3125 104.558594 111.558594 C 105.710938 112.789062 107.242188 113.40625 109.152344 113.40625 C 110.238281 113.40625 111.109375 113.355469 111.773438 113.257812 C 112.457031 113.144531 112.964844 113.03125 113.304688 112.917969 Z M 126.910156 113.40625 C 127.765625 113.40625 128.519531 113.378906 129.167969 113.332031 C 129.816406 113.265625 130.367188 113.1875 130.820312 113.089844 L 130.820312 106.917969 C 130.5625 106.804688 130.164062 106.683594 129.628906 106.554688 C 129.078125 106.425781 128.324219 106.359375 127.371094 106.359375 C 126.835938 106.359375 126.269531 106.402344 125.671875 106.480469 C 125.085938 106.5625 124.542969 106.734375 124.042969 106.992188 C 123.539062 107.25 123.136719 107.605469 122.828125 108.0625 C 122.503906 108.515625 122.34375 109.113281 122.34375 109.859375 C 122.34375 110.523438 122.457031 111.082031 122.683594 111.535156 C 122.894531 111.988281 123.191406 112.351562 123.582031 112.628906 C 123.984375 112.902344 124.464844 113.097656 125.015625 113.210938 C 125.566406 113.339844 126.195312 113.40625 126.910156 113.40625 Z M 126.691406 97.007812 C 127.855469 97.007812 128.84375 97.167969 129.652344 97.492188 C 130.449219 97.832031 131.09375 98.296875 131.597656 98.878906 C 132.097656 99.445312 132.464844 100.125 132.691406 100.917969 C 132.917969 101.710938 133.03125 102.578125 133.03125 103.519531 L 133.03125 114.59375 C 132.804688 114.660156 132.472656 114.734375 132.035156 114.8125 C 131.613281 114.894531 131.121094 114.984375 130.554688 115.082031 C 129.984375 115.164062 129.355469 115.234375 128.65625 115.300781 C 127.960938 115.347656 127.25 115.371094 126.519531 115.371094 C 125.597656 115.371094 124.746094 115.277344 123.96875 115.082031 C 123.175781 114.871094 122.496094 114.546875 121.929688 114.109375 C 121.347656 113.65625 120.894531 113.089844 120.570312 112.410156 C 120.230469 111.710938 120.058594 110.863281 120.058594 109.859375 C 120.058594 108.917969 120.246094 108.109375 120.617188 107.429688 C 120.972656 106.75 121.484375 106.183594 122.148438 105.730469 C 122.796875 105.292969 123.574219 104.96875 124.480469 104.757812 C 125.386719 104.5625 126.375 104.464844 127.445312 104.464844 C 127.765625 104.464844 128.105469 104.480469 128.464844 104.515625 C 128.804688 104.546875 129.144531 104.59375 129.484375 104.660156 C 129.808594 104.707031 130.082031 104.765625 130.308594 104.828125 C 130.554688 104.878906 130.722656 104.925781 130.820312 104.976562 L 130.820312 103.882812 C 130.820312 103.265625 130.769531 102.675781 130.675781 102.109375 C 130.59375 101.527344 130.398438 101 130.089844 100.53125 C 129.785156 100.0625 129.355469 99.6875 128.804688 99.414062 C 128.238281 99.121094 127.5 98.976562 126.59375 98.976562 C 125.296875 98.976562 124.335938 99.074219 123.703125 99.265625 C 123.070312 99.445312 122.609375 99.589844 122.316406 99.703125 L 122 97.761719 C 122.390625 97.582031 122.988281 97.414062 123.800781 97.25 C 124.59375 97.089844 125.558594 97.007812 126.691406 97.007812 Z M 140.753906 91.832031 L 140.753906 97.421875 L 147.75 97.421875 L 147.75 99.292969 L 140.753906 99.292969 L 140.753906 108.644531 C 140.753906 109.648438 140.835938 110.457031 141 111.074219 C 141.175781 111.703125 141.417969 112.191406 141.726562 112.53125 C 142.050781 112.871094 142.441406 113.097656 142.894531 113.210938 C 143.347656 113.324219 143.839844 113.378906 144.375 113.378906 C 145.3125 113.378906 146.066406 113.265625 146.632812 113.039062 C 147.199219 112.832031 147.636719 112.636719 147.945312 112.457031 L 148.503906 114.28125 C 148.179688 114.488281 147.621094 114.726562 146.828125 114.984375 C 146.035156 115.242188 145.175781 115.371094 144.253906 115.371094 C 143.167969 115.371094 142.253906 115.234375 141.507812 114.960938 C 140.78125 114.667969 140.1875 114.230469 139.734375 113.648438 C 139.296875 113.082031 138.992188 112.367188 138.8125 111.511719 C 138.632812 110.636719 138.546875 109.617188 138.546875 108.449219 L 138.546875 92.246094 Z M 157.371094 113.40625 C 158.230469 113.40625 158.984375 113.378906 159.628906 113.332031 C 160.277344 113.265625 160.828125 113.1875 161.28125 113.089844 L 161.28125 106.917969 C 161.039062 106.804688 160.644531 106.683594 160.09375 106.554688 C 159.558594 106.425781 158.8125 106.359375 157.855469 106.359375 C 157.304688 106.359375 156.738281 106.402344 156.15625 106.480469 C 155.558594 106.5625 155.015625 106.734375 154.527344 106.992188 C 154.027344 107.25 153.613281 107.605469 153.289062 108.0625 C 152.984375 108.515625 152.828125 109.113281 152.828125 109.859375 C 152.828125 110.523438 152.933594 111.082031 153.144531 111.535156 C 153.355469 111.988281 153.664062 112.351562 154.066406 112.628906 C 154.457031 112.902344 154.925781 113.097656 155.476562 113.210938 C 156.042969 113.339844 156.675781 113.40625 157.371094 113.40625 Z M 157.175781 97.007812 C 158.328125 97.007812 159.308594 97.167969 160.117188 97.492188 C 160.925781 97.832031 161.574219 98.296875 162.058594 98.878906 C 162.5625 99.445312 162.925781 100.125 163.152344 100.917969 C 163.378906 101.710938 163.492188 102.578125 163.492188 103.519531 L 163.492188 114.59375 C 163.265625 114.660156 162.941406 114.734375 162.519531 114.8125 C 162.085938 114.894531 161.582031 114.984375 161.015625 115.082031 C 160.449219 115.164062 159.816406 115.234375 159.121094 115.300781 C 158.441406 115.347656 157.734375 115.371094 157.007812 115.371094 C 156.066406 115.371094 155.210938 115.277344 154.433594 115.082031 C 153.65625 114.871094 152.972656 114.546875 152.390625 114.109375 C 151.808594 113.65625 151.355469 113.089844 151.03125 112.410156 C 150.707031 111.710938 150.546875 110.863281 150.546875 109.859375 C 150.546875 108.917969 150.722656 108.109375 151.078125 107.429688 C 151.453125 106.75 151.960938 106.183594 152.609375 105.730469 C 153.273438 105.292969 154.058594 104.96875 154.964844 104.757812 C 155.875 104.5625 156.859375 104.464844 157.929688 104.464844 C 158.238281 104.464844 158.570312 104.480469 158.925781 104.515625 C 159.28125 104.546875 159.621094 104.59375 159.945312 104.660156 C 160.269531 104.707031 160.554688 104.765625 160.796875 104.828125 C 161.039062 104.878906 161.203125 104.925781 161.28125 104.976562 L 161.28125 103.882812 C 161.28125 103.265625 161.242188 102.675781 161.160156 102.109375 C 161.0625 101.527344 160.863281 101 160.554688 100.53125 C 160.246094 100.0625 159.816406 99.6875 159.265625 99.414062 C 158.714844 99.121094 157.988281 98.976562 157.078125 98.976562 C 155.785156 98.976562 154.820312 99.074219 154.1875 99.265625 C 153.542969 99.445312 153.070312 99.589844 152.78125 99.703125 L 152.488281 97.761719 C 152.859375 97.582031 153.453125 97.414062 154.261719 97.25 C 155.070312 97.089844 156.042969 97.007812 157.175781 97.007812 Z M 175.613281 88.601562 C 176.554688 88.601562 177.332031 88.683594 177.945312 88.84375 C 178.546875 88.992188 178.933594 89.121094 179.113281 89.234375 L 178.675781 91.128906 C 178.417969 91.015625 178.042969 90.894531 177.558594 90.765625 C 177.074219 90.652344 176.457031 90.59375 175.710938 90.59375 C 174.140625 90.59375 173.023438 90.992188 172.359375 91.785156 C 171.695312 92.578125 171.363281 93.839844 171.363281 95.574219 L 171.363281 97.421875 L 178.433594 97.421875 L 178.433594 99.292969 L 171.363281 99.292969 L 171.363281 115.007812 L 169.152344 115.007812 L 169.152344 95.527344 C 169.152344 93.226562 169.679688 91.5 170.730469 90.351562 C 171.785156 89.1875 173.414062 88.601562 175.613281 88.601562 Z M 187.371094 115.371094 C 186.628906 113.996094 185.90625 112.554688 185.210938 111.046875 C 184.515625 109.558594 183.867188 108.042969 183.265625 106.507812 C 182.667969 104.984375 182.117188 103.460938 181.613281 101.9375 C 181.128906 100.402344 180.699219 98.894531 180.328125 97.421875 L 182.683594 97.421875 C 182.925781 98.507812 183.242188 99.679688 183.632812 100.941406 C 184.019531 102.207031 184.457031 103.503906 184.941406 104.828125 C 185.429688 106.175781 185.964844 107.550781 186.546875 108.960938 C 187.144531 110.351562 187.785156 111.730469 188.464844 113.089844 C 188.96875 111.695312 189.40625 110.375 189.777344 109.128906 C 190.164062 107.882812 190.53125 106.636719 190.871094 105.390625 C 191.195312 104.15625 191.511719 102.894531 191.816406 101.597656 C 192.125 100.304688 192.449219 98.910156 192.789062 97.421875 L 195 97.421875 C 194.269531 100.707031 193.4375 103.90625 192.496094 107.015625 C 191.574219 110.125 190.570312 112.96875 189.484375 115.542969 C 189.046875 116.5625 188.601562 117.445312 188.148438 118.191406 C 187.695312 118.917969 187.195312 119.527344 186.644531 120.011719 C 186.09375 120.480469 185.445312 120.832031 184.699219 121.058594 C 183.972656 121.285156 183.105469 121.398438 182.101562 121.398438 C 181.535156 121.398438 181.015625 121.332031 180.546875 121.203125 C 180.09375 121.058594 179.808594 120.953125 179.695312 120.886719 L 180.132812 119.039062 C 180.214844 119.121094 180.464844 119.21875 180.886719 119.332031 C 181.308594 119.460938 181.746094 119.527344 182.199219 119.527344 C 182.828125 119.527344 183.40625 119.460938 183.921875 119.332031 C 184.425781 119.1875 184.886719 118.953125 185.308594 118.628906 C 185.710938 118.304688 186.078125 117.875 186.402344 117.339844 C 186.722656 116.820312 187.046875 116.167969 187.371094 115.371094 Z M 187.371094 115.371094 "/>
<path style=" stroke:none;fill-rule:nonzero;fill:url(#linear0);" d="M 87.945312 103.890625 L 32.785156 103.890625 C 31.246094 103.890625 30 105.136719 30 106.675781 L 30 118.75 C 30 120.285156 31.246094 121.535156 32.785156 121.535156 L 87.945312 121.535156 C 89.480469 121.535156 90.730469 120.285156 90.730469 118.75 L 90.730469 106.675781 C 90.730469 105.136719 89.480469 103.890625 87.945312 103.890625 Z M 70.949219 115.40625 L 36.21875 115.40625 L 36.21875 110.019531 L 70.949219 110.019531 Z M 83.4375 115.21875 C 82.054688 115.21875 80.929688 114.097656 80.929688 112.710938 C 80.929688 111.328125 82.054688 110.207031 83.4375 110.207031 C 84.824219 110.207031 85.945312 111.328125 85.945312 112.710938 C 85.945312 114.097656 84.824219 115.21875 83.4375 115.21875 Z M 87.945312 124.121094 L 32.785156 124.121094 C 31.246094 124.121094 30 125.367188 30 126.90625 L 30 138.980469 C 30 140.519531 31.246094 141.765625 32.785156 141.765625 L 87.945312 141.765625 C 89.480469 141.765625 90.730469 140.515625 90.730469 138.980469 L 90.730469 126.90625 C 90.730469 125.367188 89.480469 124.121094 87.945312 124.121094 Z M 70.949219 135.636719 L 36.21875 135.636719 L 36.21875 130.25 L 70.949219 130.25 Z M 83.4375 135.449219 C 82.054688 135.449219 80.929688 134.328125 80.929688 132.945312 C 80.929688 131.558594 82.054688 130.4375 83.4375 130.4375 C 84.824219 130.4375 85.945312 131.558594 85.945312 132.945312 C 85.945312 134.328125 84.824219 135.449219 83.4375 135.449219 Z M 87.945312 83.234375 L 32.785156 83.234375 C 31.246094 83.234375 30 84.484375 30 86.023438 L 30 98.09375 C 30 99.632812 31.246094 100.878906 32.785156 100.878906 L 87.945312 100.878906 C 89.480469 100.878906 90.730469 99.632812 90.730469 98.09375 L 90.730469 86.019531 C 90.730469 84.484375 89.480469 83.234375 87.945312 83.234375 Z M 70.949219 94.75 L 36.21875 94.75 L 36.21875 89.363281 L 70.949219 89.363281 Z M 83.4375 94.5625 C 82.054688 94.5625 80.929688 93.441406 80.929688 92.058594 C 80.929688 90.671875 82.054688 89.550781 83.4375 89.550781 C 84.824219 89.550781 85.945312 90.671875 85.945312 92.058594 C 85.945312 93.441406 84.824219 94.5625 83.4375 94.5625 Z M 83.4375 94.5625 "/>
<path style=" stroke:none;fill-rule:nonzero;fill:rgb(0%,0%,0%);fill-opacity:1;" d="M 100.480469 128.976562 C 100.480469 129.011719 100.492188 129.011719 100.515625 129.011719 L 100.574219 129.011719 C 100.589844 129.011719 100.917969 129.597656 100.976562 129.707031 C 100.984375 129.71875 100.992188 129.726562 100.992188 129.75 C 100.992188 129.996094 100.988281 130.238281 100.96875 130.238281 L 100.867188 130.238281 C 100.835938 130.238281 100.828125 130.238281 100.828125 130.269531 C 100.828125 130.300781 100.828125 130.308594 100.859375 130.308594 C 100.886719 130.308594 101.003906 130.304688 101.089844 130.304688 C 101.207031 130.304688 101.285156 130.308594 101.332031 130.308594 C 101.355469 130.308594 101.359375 130.300781 101.359375 130.269531 C 101.359375 130.246094 101.355469 130.238281 101.332031 130.238281 L 101.191406 130.238281 C 101.179688 130.238281 101.171875 129.882812 101.171875 129.664062 C 101.171875 129.660156 101.171875 129.65625 101.179688 129.648438 C 101.257812 129.519531 101.539062 129.011719 101.550781 129.011719 L 101.617188 129.011719 C 101.644531 129.011719 101.65625 129.011719 101.65625 128.976562 C 101.65625 128.945312 101.644531 128.9375 101.617188 128.9375 C 101.585938 128.9375 101.550781 128.945312 101.464844 128.945312 C 101.378906 128.945312 101.332031 128.9375 101.308594 128.9375 C 101.277344 128.9375 101.273438 128.949219 101.273438 128.984375 C 101.273438 129.011719 101.285156 129.011719 101.316406 129.011719 L 101.421875 129.011719 C 101.421875 129.011719 101.425781 129.015625 101.425781 129.019531 C 101.425781 129.0625 101.199219 129.488281 101.144531 129.59375 C 101.128906 129.621094 101.128906 129.617188 101.113281 129.585938 C 101.050781 129.472656 100.867188 129.136719 100.824219 129.035156 C 100.816406 129.015625 100.8125 129.011719 100.839844 129.011719 L 100.960938 129.011719 C 100.992188 129.011719 100.996094 129.011719 100.996094 128.984375 C 100.996094 128.949219 100.992188 128.9375 100.96875 128.9375 C 100.933594 128.9375 100.84375 128.945312 100.730469 128.945312 C 100.613281 128.945312 100.542969 128.9375 100.515625 128.9375 C 100.488281 128.9375 100.480469 128.941406 100.480469 128.976562 Z M 102.6875 129.65625 C 102.6875 130.089844 103.023438 130.328125 103.351562 130.328125 C 103.75 130.328125 104.039062 130.050781 104.039062 129.640625 C 104.039062 129.25 103.785156 128.925781 103.378906 128.925781 C 103.003906 128.925781 102.6875 129.214844 102.6875 129.65625 Z M 102.890625 129.601562 C 102.890625 129.292969 103.074219 128.996094 103.359375 128.996094 C 103.683594 128.996094 103.839844 129.316406 103.839844 129.625 C 103.839844 129.933594 103.679688 130.257812 103.351562 130.257812 C 103.0625 130.257812 102.890625 129.964844 102.890625 129.601562 Z M 105.207031 128.984375 C 105.207031 129.019531 105.21875 129.023438 105.246094 129.023438 L 105.320312 129.023438 C 105.328125 129.023438 105.328125 129.074219 105.328125 129.136719 C 105.328125 129.296875 105.328125 129.773438 105.328125 129.839844 C 105.328125 130.085938 105.363281 130.328125 105.777344 130.328125 C 105.933594 130.328125 106.097656 130.265625 106.195312 130.210938 C 106.230469 130.191406 106.273438 130.171875 106.285156 130.171875 C 106.324219 130.171875 106.363281 130.316406 106.410156 130.316406 C 106.457031 130.316406 106.457031 130.261719 106.457031 130.246094 C 106.457031 130.207031 106.46875 129.933594 106.472656 129.65625 C 106.480469 129.363281 106.480469 129.023438 106.496094 129.023438 L 106.542969 129.023438 C 106.574219 129.023438 106.585938 129.019531 106.585938 128.992188 C 106.585938 128.957031 106.578125 128.949219 106.550781 128.949219 C 106.53125 128.949219 106.453125 128.953125 106.390625 128.953125 C 106.332031 128.953125 106.214844 128.949219 106.183594 128.949219 C 106.15625 128.949219 106.144531 128.953125 106.144531 128.984375 C 106.144531 129.019531 106.160156 129.023438 106.183594 129.023438 L 106.285156 129.023438 C 106.296875 129.023438 106.296875 129.097656 106.296875 129.183594 L 106.296875 129.796875 C 106.296875 130.09375 106.296875 130.085938 106.246094 130.117188 C 106.191406 130.15625 106.074219 130.222656 105.902344 130.222656 C 105.621094 130.222656 105.503906 130.089844 105.503906 129.835938 C 105.503906 129.753906 105.515625 129.023438 105.53125 129.023438 L 105.660156 129.023438 C 105.695312 129.023438 105.699219 129.019531 105.699219 128.992188 C 105.699219 128.957031 105.699219 128.949219 105.671875 128.949219 C 105.625 128.949219 105.496094 128.953125 105.4375 128.953125 C 105.375 128.953125 105.277344 128.949219 105.246094 128.949219 C 105.21875 128.949219 105.207031 128.953125 105.207031 128.984375 Z M 107.742188 128.984375 C 107.742188 129.015625 107.753906 129.027344 107.78125 129.027344 L 107.898438 129.023438 C 107.914062 129.023438 107.921875 129.433594 107.921875 129.714844 L 107.921875 129.984375 C 107.921875 130.109375 107.917969 130.238281 107.914062 130.238281 L 107.824219 130.238281 C 107.792969 130.238281 107.78125 130.238281 107.78125 130.269531 C 107.78125 130.300781 107.789062 130.308594 107.816406 130.308594 C 107.835938 130.308594 107.953125 130.304688 108.015625 130.304688 C 108.074219 130.304688 108.1875 130.308594 108.234375 130.308594 C 108.257812 130.308594 108.261719 130.300781 108.261719 130.269531 C 108.261719 130.246094 108.257812 130.238281 108.234375 130.238281 L 108.117188 130.238281 C 108.105469 130.238281 108.09375 129.804688 108.09375 129.6875 C 108.09375 129.675781 108.09375 129.671875 108.109375 129.671875 C 108.167969 129.671875 108.253906 129.671875 108.296875 129.671875 C 108.621094 129.679688 108.640625 129.921875 108.640625 130.164062 L 108.640625 130.28125 C 108.640625 130.300781 108.648438 130.304688 108.664062 130.304688 C 108.664062 130.304688 108.871094 130.308594 108.941406 130.308594 C 108.964844 130.308594 108.972656 130.304688 108.972656 130.289062 C 108.972656 130.246094 108.964844 130.238281 108.941406 130.238281 L 108.847656 130.238281 C 108.835938 130.238281 108.828125 130.230469 108.824219 130.113281 C 108.8125 129.777344 108.617188 129.683594 108.484375 129.640625 C 108.464844 129.636719 108.46875 129.636719 108.484375 129.625 C 108.570312 129.589844 108.757812 129.480469 108.757812 129.292969 C 108.757812 129.003906 108.515625 128.941406 108.3125 128.941406 C 108.265625 128.941406 108.082031 128.953125 108.019531 128.953125 C 107.960938 128.953125 107.816406 128.949219 107.785156 128.949219 C 107.757812 128.949219 107.742188 128.953125 107.742188 128.984375 Z M 108.09375 129.605469 L 108.09375 129.113281 C 108.09375 129.0625 108.097656 129.011719 108.105469 129.011719 C 108.136719 129.003906 108.175781 129.003906 108.207031 129.003906 C 108.394531 129.003906 108.574219 129.125 108.574219 129.320312 C 108.574219 129.488281 108.496094 129.570312 108.402344 129.617188 C 108.394531 129.621094 108.390625 129.621094 108.378906 129.621094 C 108.308594 129.617188 108.207031 129.617188 108.121094 129.613281 C 108.097656 129.613281 108.09375 129.613281 108.09375 129.605469 Z M 111.445312 130.269531 C 111.445312 130.300781 111.445312 130.308594 111.472656 130.308594 C 111.5 130.308594 111.542969 130.304688 111.628906 130.304688 C 111.714844 130.304688 111.796875 130.308594 111.816406 130.308594 C 111.84375 130.308594 111.84375 130.300781 111.84375 130.269531 C 111.84375 130.246094 111.84375 130.238281 111.816406 130.238281 L 111.664062 130.238281 C 111.664062 130.238281 111.660156 130.238281 111.660156 130.234375 C 111.664062 130.191406 111.773438 129.90625 111.824219 129.78125 C 111.835938 129.753906 111.835938 129.746094 111.867188 129.746094 L 112.273438 129.746094 C 112.296875 129.746094 112.296875 129.75 112.304688 129.78125 C 112.34375 129.890625 112.445312 130.195312 112.445312 130.234375 C 112.445312 130.238281 112.445312 130.238281 112.445312 130.238281 L 112.332031 130.238281 C 112.300781 130.238281 112.300781 130.238281 112.300781 130.269531 C 112.300781 130.300781 112.300781 130.308594 112.324219 130.308594 C 112.371094 130.308594 112.496094 130.304688 112.558594 130.304688 C 112.617188 130.304688 112.714844 130.308594 112.746094 130.308594 C 112.765625 130.308594 112.769531 130.300781 112.769531 130.269531 C 112.769531 130.246094 112.765625 130.238281 112.746094 130.238281 L 112.675781 130.238281 C 112.660156 130.238281 112.511719 129.828125 112.433594 129.601562 L 112.191406 128.921875 C 112.1875 128.910156 112.179688 128.902344 112.164062 128.902344 C 112.148438 128.902344 112.132812 128.933594 112.121094 128.960938 C 112.097656 129.015625 112.0625 129.03125 112.046875 129.074219 L 111.835938 129.570312 C 111.808594 129.636719 111.5625 130.238281 111.542969 130.238281 L 111.484375 130.238281 C 111.449219 130.238281 111.445312 130.238281 111.445312 130.269531 Z M 111.863281 129.679688 C 111.863281 129.675781 111.867188 129.667969 111.875 129.652344 L 112.074219 129.167969 C 112.078125 129.152344 112.082031 129.144531 112.085938 129.144531 C 112.089844 129.144531 112.089844 129.148438 112.097656 129.167969 L 112.265625 129.660156 C 112.269531 129.667969 112.269531 129.675781 112.269531 129.679688 C 112.269531 129.6875 112.265625 129.6875 112.253906 129.6875 L 111.890625 129.6875 C 111.863281 129.6875 111.863281 129.683594 111.863281 129.679688 Z M 113.886719 130.269531 C 113.886719 130.300781 113.890625 130.308594 113.921875 130.308594 C 113.96875 130.308594 114.105469 130.304688 114.167969 130.304688 C 114.226562 130.304688 114.855469 130.308594 114.902344 130.308594 C 114.941406 130.308594 114.949219 130.304688 114.953125 130.28125 C 114.960938 130.222656 114.996094 130.027344 114.996094 130.007812 C 114.996094 129.992188 114.972656 129.984375 114.949219 129.984375 C 114.933594 129.984375 114.921875 129.988281 114.921875 130.003906 L 114.898438 130.175781 C 114.890625 130.21875 114.890625 130.214844 114.855469 130.21875 C 114.835938 130.21875 114.472656 130.230469 114.265625 130.230469 C 114.261719 130.230469 114.253906 130.121094 114.253906 130 L 114.253906 129.441406 C 114.253906 129.257812 114.257812 129.011719 114.269531 129.011719 L 114.414062 129.011719 C 114.445312 129.011719 114.449219 129.003906 114.449219 128.976562 C 114.449219 128.945312 114.449219 128.9375 114.414062 128.9375 C 114.367188 128.9375 114.230469 128.945312 114.171875 128.945312 C 114.109375 128.945312 113.976562 128.9375 113.941406 128.9375 C 113.910156 128.9375 113.902344 128.945312 113.902344 128.976562 C 113.902344 129.003906 113.910156 129.011719 113.9375 129.011719 L 114.054688 129.011719 C 114.0625 129.011719 114.066406 129.089844 114.066406 129.1875 L 114.066406 129.652344 C 114.066406 129.933594 114.0625 130.238281 114.050781 130.238281 L 113.929688 130.238281 C 113.898438 130.238281 113.886719 130.242188 113.886719 130.269531 Z M 116.097656 130.269531 C 116.097656 130.300781 116.101562 130.308594 116.128906 130.308594 C 116.175781 130.308594 116.3125 130.304688 116.375 130.304688 C 116.433594 130.304688 117.0625 130.308594 117.109375 130.308594 C 117.148438 130.308594 117.160156 130.304688 117.160156 130.28125 C 117.167969 130.222656 117.203125 130.027344 117.203125 130.007812 C 117.203125 129.992188 117.183594 129.984375 117.15625 129.984375 C 117.144531 129.984375 117.132812 129.988281 117.128906 130.003906 L 117.105469 130.175781 C 117.097656 130.21875 117.097656 130.214844 117.0625 130.21875 C 117.042969 130.21875 116.679688 130.230469 116.472656 130.230469 C 116.46875 130.230469 116.460938 130.121094 116.460938 130 L 116.460938 129.441406 C 116.460938 129.257812 116.464844 129.011719 116.476562 129.011719 L 116.617188 129.011719 C 116.652344 129.011719 116.65625 129.003906 116.65625 128.976562 C 116.65625 128.945312 116.65625 128.9375 116.621094 128.9375 C 116.574219 128.9375 116.441406 128.945312 116.378906 128.945312 C 116.320312 128.945312 116.183594 128.9375 116.152344 128.9375 C 116.117188 128.9375 116.109375 128.945312 116.109375 128.976562 C 116.109375 129.003906 116.117188 129.011719 116.144531 129.011719 L 116.261719 129.011719 C 116.269531 129.011719 116.273438 129.089844 116.273438 129.1875 L 116.273438 129.652344 C 116.273438 129.933594 116.269531 130.238281 116.257812 130.238281 L 116.136719 130.238281 C 116.101562 130.238281 116.097656 130.242188 116.097656 130.269531 Z M 118.269531 129.890625 C 118.269531 129.898438 118.277344 129.902344 118.285156 129.902344 C 118.3125 129.902344 118.648438 129.890625 118.675781 129.886719 C 118.691406 129.886719 118.695312 129.832031 118.695312 129.808594 C 118.695312 129.800781 118.695312 129.792969 118.6875 129.792969 C 118.675781 129.792969 118.328125 129.800781 118.308594 129.804688 C 118.289062 129.808594 118.269531 129.878906 118.269531 129.890625 Z M 119.816406 130.269531 C 119.816406 130.300781 119.820312 130.308594 119.851562 130.308594 C 119.898438 130.308594 120.003906 130.304688 120.109375 130.304688 C 120.203125 130.304688 120.320312 130.308594 120.351562 130.308594 C 120.375 130.308594 120.378906 130.300781 120.378906 130.269531 C 120.378906 130.246094 120.375 130.238281 120.351562 130.238281 L 120.210938 130.238281 C 120.195312 130.238281 120.195312 129.859375 120.195312 129.597656 L 120.195312 129.324219 C 120.195312 129.21875 120.195312 129.011719 120.210938 129.011719 L 120.34375 129.011719 C 120.375 129.011719 120.378906 129.011719 120.378906 128.984375 C 120.378906 128.949219 120.375 128.9375 120.351562 128.9375 C 120.304688 128.9375 120.207031 128.945312 120.113281 128.945312 C 119.996094 128.945312 119.890625 128.9375 119.859375 128.9375 C 119.832031 128.9375 119.824219 128.941406 119.824219 128.976562 C 119.824219 129.011719 119.835938 129.011719 119.859375 129.011719 L 119.992188 129.011719 C 120 129.011719 120.007812 129.171875 120.007812 129.304688 L 120.007812 129.5 C 120.007812 129.765625 120.007812 130.238281 119.992188 130.238281 L 119.859375 130.238281 C 119.824219 130.238281 119.816406 130.238281 119.816406 130.269531 Z M 121.519531 130.269531 C 121.519531 130.300781 121.519531 130.308594 121.550781 130.308594 C 121.574219 130.308594 121.632812 130.304688 121.71875 130.304688 C 121.8125 130.304688 121.890625 130.308594 121.9375 130.308594 C 121.964844 130.308594 121.964844 130.300781 121.964844 130.269531 C 121.964844 130.246094 121.964844 130.238281 121.9375 130.238281 L 121.765625 130.238281 C 121.757812 130.238281 121.757812 130.144531 121.757812 130.035156 C 121.757812 129.84375 121.757812 129.558594 121.757812 129.34375 C 121.757812 129.238281 121.757812 129.175781 121.761719 129.097656 C 121.761719 129.058594 121.769531 129.078125 121.789062 129.097656 L 122.785156 130.304688 C 122.792969 130.320312 122.808594 130.339844 122.824219 130.339844 C 122.839844 130.339844 122.851562 130.324219 122.851562 130.289062 C 122.851562 130.269531 122.875 129.4375 122.875 129.125 C 122.875 129.066406 122.878906 129.011719 122.882812 129.011719 L 122.976562 129.011719 C 123.007812 129.011719 123.015625 129.011719 123.015625 128.984375 C 123.015625 128.949219 123.015625 128.9375 122.988281 128.9375 C 122.960938 128.9375 122.894531 128.945312 122.816406 128.945312 C 122.726562 128.945312 122.613281 128.9375 122.597656 128.9375 C 122.574219 128.9375 122.574219 128.949219 122.574219 128.980469 C 122.574219 129.003906 122.574219 129.011719 122.597656 129.011719 L 122.785156 129.011719 C 122.789062 129.011719 122.789062 129.105469 122.789062 129.121094 C 122.789062 129.324219 122.792969 129.679688 122.792969 129.878906 L 122.792969 129.964844 C 122.792969 130.003906 122.789062 130.015625 122.757812 129.976562 L 121.9375 128.96875 C 121.917969 128.949219 121.914062 128.9375 121.890625 128.9375 C 121.878906 128.9375 121.824219 128.945312 121.78125 128.945312 C 121.738281 128.945312 121.582031 128.9375 121.554688 128.9375 C 121.53125 128.9375 121.527344 128.949219 121.527344 128.980469 C 121.527344 129.003906 121.53125 129.011719 121.554688 129.011719 L 121.6875 129.011719 C 121.6875 129.082031 121.679688 129.710938 121.671875 130.035156 C 121.664062 130.167969 121.667969 130.238281 121.652344 130.238281 L 121.558594 130.238281 C 121.527344 130.238281 121.519531 130.238281 121.519531 130.269531 Z M 124.144531 129.890625 C 124.144531 129.898438 124.148438 129.902344 124.15625 129.902344 C 124.1875 129.902344 124.519531 129.890625 124.546875 129.886719 C 124.5625 129.886719 124.566406 129.832031 124.566406 129.808594 C 124.566406 129.800781 124.566406 129.792969 124.5625 129.792969 C 124.546875 129.792969 124.203125 129.800781 124.183594 129.804688 C 124.164062 129.808594 124.144531 129.878906 124.144531 129.890625 Z M 125.71875 129.65625 C 125.71875 130.089844 126.058594 130.328125 126.382812 130.328125 C 126.785156 130.328125 127.070312 130.050781 127.070312 129.640625 C 127.070312 129.25 126.816406 128.925781 126.414062 128.925781 C 126.035156 128.925781 125.71875 129.214844 125.71875 129.65625 Z M 125.921875 129.601562 C 125.921875 129.292969 126.109375 128.996094 126.390625 128.996094 C 126.714844 128.996094 126.871094 129.316406 126.871094 129.625 C 126.871094 129.933594 126.710938 130.257812 126.382812 130.257812 C 126.097656 130.257812 125.921875 129.964844 125.921875 129.601562 Z M 128.242188 130.269531 C 128.242188 130.300781 128.242188 130.308594 128.269531 130.308594 C 128.296875 130.308594 128.351562 130.304688 128.441406 130.304688 C 128.53125 130.304688 128.613281 130.308594 128.65625 130.308594 C 128.683594 130.308594 128.683594 130.300781 128.683594 130.269531 C 128.683594 130.246094 128.683594 130.238281 128.65625 130.238281 L 128.484375 130.238281 C 128.480469 130.238281 128.476562 130.144531 128.476562 130.035156 C 128.476562 129.84375 128.480469 129.558594 128.480469 129.34375 C 128.480469 129.238281 128.480469 129.175781 128.480469 129.097656 C 128.480469 129.058594 128.488281 129.078125 128.507812 129.097656 L 129.503906 130.304688 C 129.515625 130.320312 129.527344 130.339844 129.542969 130.339844 C 129.558594 130.339844 129.570312 130.324219 129.570312 130.289062 C 129.570312 130.269531 129.59375 129.4375 129.597656 129.125 C 129.597656 129.066406 129.601562 129.011719 129.605469 129.011719 L 129.695312 129.011719 C 129.726562 129.011719 129.734375 129.011719 129.734375 128.984375 C 129.734375 128.949219 129.734375 128.9375 129.707031 128.9375 C 129.679688 128.9375 129.617188 128.945312 129.535156 128.945312 C 129.445312 128.945312 129.332031 128.9375 129.316406 128.9375 C 129.292969 128.9375 129.292969 128.949219 129.292969 128.980469 C 129.292969 129.003906 129.292969 129.011719 129.316406 129.011719 L 129.503906 129.011719 C 129.507812 129.011719 129.507812 129.105469 129.507812 129.121094 C 129.507812 129.324219 129.511719 129.679688 129.511719 129.878906 L 129.511719 129.964844 C 129.511719 130.003906 129.507812 130.015625 129.476562 129.976562 L 128.65625 128.96875 C 128.640625 128.949219 128.636719 128.9375 128.613281 128.9375 C 128.601562 128.9375 128.546875 128.945312 128.5 128.945312 C 128.457031 128.945312 128.300781 128.9375 128.273438 128.9375 C 128.25 128.9375 128.246094 128.949219 128.246094 128.980469 C 128.246094 129.003906 128.25 129.011719 128.273438 129.011719 L 128.40625 129.011719 C 128.40625 129.082031 128.398438 129.710938 128.390625 130.035156 C 128.382812 130.167969 128.386719 130.238281 128.371094 130.238281 L 128.277344 130.238281 C 128.246094 130.238281 128.242188 130.238281 128.242188 130.269531 Z M 130.894531 130.269531 C 130.894531 130.300781 130.898438 130.308594 130.929688 130.308594 C 130.976562 130.308594 131.113281 130.304688 131.175781 130.304688 C 131.234375 130.304688 131.886719 130.308594 131.933594 130.308594 C 131.953125 130.308594 131.972656 130.304688 131.972656 130.28125 C 131.972656 130.222656 131.980469 130.101562 131.980469 130 C 131.980469 129.980469 131.957031 129.980469 131.941406 129.980469 C 131.921875 129.980469 131.90625 129.980469 131.90625 129.996094 C 131.902344 130.074219 131.902344 130.125 131.898438 130.175781 C 131.894531 130.210938 131.894531 130.21875 131.878906 130.21875 C 131.859375 130.21875 131.476562 130.222656 131.261719 130.222656 C 131.253906 130.222656 131.246094 129.9375 131.238281 129.671875 C 131.238281 129.640625 131.246094 129.648438 131.265625 129.648438 L 131.597656 129.648438 C 131.695312 129.648438 131.699219 129.664062 131.699219 129.675781 L 131.699219 129.777344 C 131.699219 129.796875 131.726562 129.796875 131.742188 129.796875 C 131.757812 129.796875 131.773438 129.796875 131.773438 129.78125 C 131.773438 129.753906 131.769531 129.679688 131.769531 129.609375 C 131.769531 129.535156 131.773438 129.464844 131.773438 129.449219 C 131.773438 129.429688 131.753906 129.429688 131.742188 129.429688 C 131.726562 129.429688 131.699219 129.429688 131.699219 129.449219 L 131.699219 129.554688 C 131.699219 129.578125 131.636719 129.582031 131.597656 129.582031 L 131.257812 129.582031 C 131.242188 129.582031 131.238281 129.582031 131.238281 129.554688 C 131.238281 129.453125 131.234375 129.355469 131.234375 129.265625 C 131.234375 129.21875 131.234375 129.015625 131.25 129.015625 C 131.425781 129.015625 131.789062 129.019531 131.789062 129.027344 C 131.789062 129.054688 131.78125 129.175781 131.78125 129.183594 C 131.78125 129.207031 131.792969 129.214844 131.820312 129.214844 C 131.847656 129.214844 131.855469 129.210938 131.855469 129.191406 C 131.855469 129.035156 131.863281 128.964844 131.863281 128.925781 C 131.863281 128.898438 131.851562 128.898438 131.824219 128.898438 C 131.796875 128.898438 131.796875 128.90625 131.792969 128.925781 C 131.789062 128.949219 131.800781 128.949219 131.667969 128.949219 C 131.578125 128.949219 131.269531 128.953125 131.160156 128.953125 C 131.085938 128.953125 130.953125 128.949219 130.9375 128.949219 C 130.921875 128.949219 130.910156 128.953125 130.910156 128.984375 C 130.910156 129.015625 130.921875 129.019531 130.945312 129.019531 L 131.042969 129.019531 C 131.050781 129.019531 131.058594 129.171875 131.058594 129.304688 C 131.058594 129.316406 131.066406 129.671875 131.066406 129.898438 L 131.066406 130.089844 C 131.066406 130.1875 131.0625 130.238281 131.058594 130.238281 L 130.9375 130.238281 C 130.90625 130.238281 130.894531 130.242188 130.894531 130.269531 Z M 134.542969 130.269531 C 134.542969 130.300781 134.542969 130.308594 134.574219 130.308594 C 134.621094 130.308594 134.753906 130.304688 134.816406 130.304688 C 134.878906 130.304688 134.996094 130.308594 135.042969 130.308594 C 135.066406 130.308594 135.066406 130.300781 135.066406 130.269531 C 135.066406 130.246094 135.066406 130.238281 135.042969 130.238281 L 134.910156 130.238281 C 134.898438 130.238281 134.890625 129.914062 134.890625 129.664062 C 134.890625 129.636719 134.890625 129.636719 134.910156 129.636719 L 135.664062 129.636719 C 135.675781 129.636719 135.675781 129.636719 135.675781 129.660156 L 135.675781 129.910156 C 135.675781 130.074219 135.675781 130.238281 135.667969 130.238281 L 135.554688 130.238281 C 135.523438 130.238281 135.519531 130.238281 135.519531 130.269531 C 135.519531 130.300781 135.519531 130.308594 135.546875 130.308594 C 135.59375 130.308594 135.714844 130.304688 135.777344 130.304688 C 135.835938 130.304688 135.921875 130.308594 135.96875 130.308594 C 135.992188 130.308594 135.996094 130.300781 135.996094 130.269531 C 135.996094 130.246094 135.992188 130.238281 135.96875 130.238281 L 135.863281 130.238281 C 135.855469 130.238281 135.851562 129.816406 135.851562 129.496094 C 135.851562 129.257812 135.851562 129.011719 135.859375 129.011719 L 135.949219 129.011719 C 135.980469 129.011719 135.984375 129.011719 135.984375 128.984375 C 135.984375 128.949219 135.984375 128.9375 135.957031 128.9375 C 135.933594 128.9375 135.84375 128.945312 135.761719 128.945312 C 135.664062 128.945312 135.574219 128.9375 135.542969 128.9375 C 135.515625 128.9375 135.511719 128.945312 135.511719 128.976562 C 135.511719 129.007812 135.519531 129.011719 135.546875 129.011719 L 135.660156 129.011719 C 135.667969 129.011719 135.675781 129.171875 135.675781 129.304688 L 135.675781 129.550781 C 135.675781 129.574219 135.675781 129.574219 135.652344 129.574219 L 134.914062 129.574219 C 134.890625 129.574219 134.890625 129.574219 134.890625 129.542969 C 134.890625 129.484375 134.886719 129.378906 134.886719 129.277344 C 134.886719 129.152344 134.890625 129.011719 134.898438 129.011719 L 135.011719 129.011719 C 135.042969 129.011719 135.046875 129.011719 135.046875 128.984375 C 135.046875 128.949219 135.046875 128.9375 135.019531 128.9375 C 134.972656 128.9375 134.886719 128.945312 134.800781 128.945312 C 134.714844 128.945312 134.644531 128.9375 134.609375 128.9375 C 134.585938 128.9375 134.570312 128.941406 134.570312 128.976562 C 134.570312 129.011719 134.589844 129.011719 134.609375 129.011719 L 134.699219 129.011719 C 134.710938 129.011719 134.710938 129.285156 134.710938 129.515625 L 134.710938 129.722656 C 134.710938 129.933594 134.710938 130.238281 134.699219 130.238281 L 134.582031 130.238281 C 134.550781 130.238281 134.542969 130.238281 134.542969 130.269531 Z M 137.15625 128.984375 C 137.15625 129.019531 137.167969 129.023438 137.191406 129.023438 L 137.269531 129.023438 C 137.277344 129.023438 137.277344 129.074219 137.277344 129.136719 C 137.277344 129.296875 137.273438 129.773438 137.273438 129.839844 C 137.273438 130.085938 137.308594 130.328125 137.722656 130.328125 C 137.878906 130.328125 138.046875 130.265625 138.140625 130.210938 C 138.179688 130.191406 138.21875 130.171875 138.234375 130.171875 C 138.269531 130.171875 138.308594 130.316406 138.359375 130.316406 C 138.40625 130.316406 138.40625 130.261719 138.40625 130.246094 C 138.40625 130.207031 138.414062 129.933594 138.421875 129.65625 C 138.429688 129.363281 138.425781 129.023438 138.441406 129.023438 L 138.488281 129.023438 C 138.523438 129.023438 138.53125 129.019531 138.53125 128.992188 C 138.53125 128.957031 138.527344 128.949219 138.496094 128.949219 C 138.476562 128.949219 138.398438 128.953125 138.339844 128.953125 C 138.277344 128.953125 138.164062 128.949219 138.132812 128.949219 C 138.105469 128.949219 138.089844 128.953125 138.089844 128.984375 C 138.089844 129.019531 138.105469 129.023438 138.132812 129.023438 L 138.234375 129.023438 C 138.242188 129.023438 138.246094 129.097656 138.246094 129.183594 L 138.246094 129.796875 C 138.246094 130.09375 138.246094 130.085938 138.195312 130.117188 C 138.140625 130.15625 138.023438 130.222656 137.851562 130.222656 C 137.566406 130.222656 137.453125 130.089844 137.453125 129.835938 C 137.453125 129.753906 137.460938 129.023438 137.480469 129.023438 L 137.609375 129.023438 C 137.640625 129.023438 137.648438 129.019531 137.648438 128.992188 C 137.648438 128.957031 137.648438 128.949219 137.617188 128.949219 C 137.570312 128.949219 137.445312 128.953125 137.382812 128.953125 C 137.324219 128.953125 137.222656 128.949219 137.191406 128.949219 C 137.164062 128.949219 137.15625 128.953125 137.15625 128.984375 Z M 139.691406 128.984375 C 139.691406 129.019531 139.703125 129.027344 139.730469 129.027344 L 139.851562 129.023438 C 139.859375 129.023438 139.867188 129.277344 139.867188 129.503906 L 139.867188 130.15625 C 139.867188 130.203125 139.867188 130.238281 139.863281 130.238281 L 139.757812 130.238281 C 139.722656 130.238281 139.714844 130.238281 139.714844 130.269531 C 139.714844 130.300781 139.71875 130.308594 139.746094 130.308594 C 139.765625 130.308594 139.902344 130.304688 139.960938 130.304688 C 139.988281 130.304688 140.0625 130.308594 140.15625 130.308594 C 140.382812 130.308594 140.730469 130.273438 140.730469 129.957031 C 140.730469 129.671875 140.464844 129.625 140.367188 129.609375 C 140.355469 129.609375 140.351562 129.609375 140.351562 129.605469 C 140.351562 129.605469 140.359375 129.601562 140.371094 129.597656 C 140.460938 129.5625 140.671875 129.476562 140.671875 129.277344 C 140.671875 129.027344 140.457031 128.949219 140.214844 128.949219 C 140.132812 128.949219 140.046875 128.953125 139.96875 128.953125 C 139.90625 128.953125 139.761719 128.949219 139.730469 128.949219 C 139.703125 128.949219 139.691406 128.953125 139.691406 128.984375 Z M 140.046875 129.660156 C 140.046875 129.652344 140.046875 129.644531 140.0625 129.644531 L 140.128906 129.644531 C 140.21875 129.644531 140.3125 129.648438 140.367188 129.664062 C 140.492188 129.707031 140.539062 129.800781 140.539062 129.941406 C 140.539062 130.089844 140.472656 130.238281 140.179688 130.238281 L 140.058594 130.238281 C 140.046875 130.238281 140.046875 129.78125 140.046875 129.660156 Z M 140.046875 129.574219 L 140.046875 129.476562 C 140.046875 129.324219 140.046875 129.015625 140.054688 129.011719 C 140.0625 129.003906 140.105469 129.003906 140.136719 129.003906 C 140.339844 129.003906 140.488281 129.117188 140.488281 129.3125 C 140.488281 129.476562 140.382812 129.554688 140.292969 129.585938 C 140.28125 129.589844 140.265625 129.589844 140.253906 129.589844 C 140.242188 129.589844 140.222656 129.589844 140.1875 129.589844 L 140.074219 129.589844 C 140.046875 129.589844 140.046875 129.585938 140.046875 129.574219 Z M 143.3125 128.984375 C 143.3125 129.015625 143.332031 129.019531 143.355469 129.019531 L 143.445312 129.019531 C 143.453125 129.019531 143.464844 129.171875 143.464844 129.304688 C 143.464844 129.316406 143.46875 129.671875 143.46875 129.898438 L 143.46875 130.089844 C 143.46875 130.1875 143.46875 130.238281 143.460938 130.238281 L 143.375 130.238281 C 143.34375 130.238281 143.332031 130.238281 143.332031 130.269531 C 143.332031 130.300781 143.335938 130.308594 143.363281 130.308594 C 143.394531 130.308594 143.515625 130.304688 143.574219 130.304688 C 143.636719 130.304688 143.773438 130.308594 143.816406 130.308594 C 143.84375 130.308594 143.847656 130.300781 143.847656 130.269531 C 143.847656 130.246094 143.84375 130.238281 143.816406 130.238281 L 143.65625 130.238281 C 143.644531 130.238281 143.648438 129.945312 143.640625 129.679688 C 143.640625 129.644531 143.640625 129.648438 143.667969 129.648438 L 144.019531 129.648438 C 144.121094 129.648438 144.121094 129.660156 144.121094 129.675781 L 144.121094 129.800781 C 144.121094 129.820312 144.152344 129.820312 144.167969 129.820312 C 144.179688 129.820312 144.199219 129.820312 144.199219 129.800781 C 144.199219 129.777344 144.195312 129.679688 144.195312 129.609375 C 144.195312 129.535156 144.199219 129.464844 144.199219 129.445312 C 144.199219 129.429688 144.183594 129.429688 144.164062 129.429688 C 144.140625 129.429688 144.121094 129.429688 144.121094 129.449219 L 144.121094 129.554688 C 144.121094 129.578125 144.058594 129.582031 144.019531 129.582031 L 143.667969 129.582031 C 143.636719 129.582031 143.640625 129.585938 143.640625 129.554688 C 143.640625 129.507812 143.636719 129.367188 143.636719 129.238281 C 143.636719 129.132812 143.640625 129.015625 143.652344 129.015625 C 143.851562 129.015625 144.167969 129.019531 144.210938 129.027344 C 144.210938 129.050781 144.203125 129.175781 144.203125 129.183594 C 144.203125 129.207031 144.214844 129.214844 144.242188 129.214844 C 144.269531 129.214844 144.277344 129.210938 144.277344 129.191406 C 144.277344 129.035156 144.289062 128.964844 144.289062 128.925781 C 144.289062 128.902344 144.273438 128.898438 144.246094 128.898438 C 144.226562 128.898438 144.21875 128.898438 144.214844 128.925781 C 144.210938 128.949219 144.222656 128.949219 144.085938 128.949219 C 144 128.949219 143.667969 128.953125 143.5625 128.953125 C 143.492188 128.953125 143.355469 128.949219 143.339844 128.949219 C 143.324219 128.949219 143.3125 128.953125 143.3125 128.984375 Z M 145.445312 129.65625 C 145.445312 130.089844 145.785156 130.328125 146.113281 130.328125 C 146.511719 130.328125 146.796875 130.050781 146.796875 129.640625 C 146.796875 129.25 146.546875 128.925781 146.140625 128.925781 C 145.765625 128.925781 145.445312 129.214844 145.445312 129.65625 Z M 145.648438 129.601562 C 145.648438 129.292969 145.835938 128.996094 146.121094 128.996094 C 146.445312 128.996094 146.597656 129.316406 146.597656 129.625 C 146.597656 129.933594 146.441406 130.257812 146.113281 130.257812 C 145.824219 130.257812 145.648438 129.964844 145.648438 129.601562 Z M 147.96875 128.984375 C 147.96875 129.015625 147.976562 129.027344 148.007812 129.027344 L 148.125 129.023438 C 148.140625 129.023438 148.144531 129.433594 148.144531 129.714844 L 148.144531 129.984375 C 148.144531 130.109375 148.144531 130.238281 148.136719 130.238281 L 148.050781 130.238281 C 148.015625 130.238281 148.007812 130.238281 148.007812 130.269531 C 148.007812 130.300781 148.011719 130.308594 148.042969 130.308594 C 148.058594 130.308594 148.179688 130.304688 148.238281 130.304688 C 148.300781 130.304688 148.410156 130.308594 148.457031 130.308594 C 148.484375 130.308594 148.488281 130.300781 148.488281 130.269531 C 148.488281 130.246094 148.484375 130.238281 148.457031 130.238281 L 148.339844 130.238281 C 148.332031 130.238281 148.316406 129.804688 148.316406 129.6875 C 148.316406 129.675781 148.316406 129.671875 148.335938 129.671875 C 148.390625 129.671875 148.476562 129.671875 148.519531 129.671875 C 148.84375 129.679688 148.863281 129.921875 148.863281 130.164062 L 148.863281 130.28125 C 148.863281 130.300781 148.871094 130.304688 148.886719 130.304688 C 148.886719 130.304688 149.09375 130.308594 149.164062 130.308594 C 149.1875 130.308594 149.195312 130.304688 149.195312 130.289062 C 149.195312 130.246094 149.1875 130.238281 149.164062 130.238281 L 149.074219 130.238281 C 149.058594 130.238281 149.054688 130.230469 149.050781 130.113281 C 149.039062 129.777344 148.839844 129.683594 148.710938 129.640625 C 148.6875 129.636719 148.691406 129.636719 148.710938 129.625 C 148.792969 129.589844 148.984375 129.480469 148.984375 129.292969 C 148.984375 129.003906 148.738281 128.941406 148.539062 128.941406 C 148.488281 128.941406 148.304688 128.953125 148.246094 128.953125 C 148.183594 128.953125 148.042969 128.949219 148.007812 128.949219 C 147.984375 128.949219 147.96875 128.953125 147.96875 128.984375 Z M 148.316406 129.605469 L 148.316406 129.113281 C 148.316406 129.0625 148.320312 129.011719 148.328125 129.011719 C 148.359375 129.003906 148.398438 129.003906 148.433594 129.003906 C 148.621094 129.003906 148.800781 129.125 148.800781 129.320312 C 148.800781 129.488281 148.722656 129.570312 148.625 129.617188 C 148.621094 129.621094 148.613281 129.621094 148.605469 129.621094 C 148.535156 129.617188 148.433594 129.617188 148.34375 129.613281 C 148.320312 129.613281 148.316406 129.613281 148.316406 129.605469 Z M 151.691406 128.984375 C 151.691406 129.019531 151.695312 129.027344 151.726562 129.027344 L 151.859375 129.023438 C 151.867188 129.023438 151.867188 129.125 151.867188 129.234375 L 151.867188 129.339844 C 151.867188 129.589844 151.867188 130.238281 151.851562 130.238281 L 151.753906 130.238281 C 151.722656 130.238281 151.710938 130.238281 151.710938 130.269531 C 151.710938 130.300781 151.710938 130.308594 151.742188 130.308594 C 151.757812 130.308594 151.902344 130.304688 151.960938 130.304688 C 152.023438 130.304688 152.148438 130.308594 152.195312 130.308594 C 152.21875 130.308594 152.222656 130.300781 152.222656 130.269531 C 152.222656 130.246094 152.21875 130.238281 152.195312 130.238281 L 152.050781 130.238281 C 152.042969 130.238281 152.042969 130.007812 152.042969 129.863281 L 152.042969 129.726562 C 152.042969 129.714844 152.042969 129.710938 152.054688 129.710938 C 152.113281 129.710938 152.160156 129.71875 152.234375 129.71875 C 152.519531 129.71875 152.722656 129.609375 152.722656 129.347656 C 152.722656 129.070312 152.507812 128.945312 152.230469 128.945312 C 152.183594 128.945312 152.027344 128.953125 151.964844 128.953125 C 151.929688 128.953125 151.757812 128.949219 151.726562 128.949219 C 151.703125 128.949219 151.691406 128.953125 151.691406 128.984375 Z M 152.042969 129.640625 L 152.042969 129.113281 C 152.042969 129.0625 152.046875 129.011719 152.050781 129.011719 C 152.070312 129.007812 152.09375 129.007812 152.117188 129.007812 C 152.355469 129.007812 152.535156 129.125 152.535156 129.316406 C 152.535156 129.570312 152.34375 129.660156 152.117188 129.660156 C 152.078125 129.660156 152.042969 129.65625 152.042969 129.640625 Z M 153.660156 130.269531 C 153.660156 130.300781 153.660156 130.308594 153.6875 130.308594 C 153.710938 130.308594 153.757812 130.304688 153.839844 130.304688 C 153.929688 130.304688 154.007812 130.308594 154.03125 130.308594 C 154.054688 130.308594 154.054688 130.300781 154.054688 130.269531 C 154.054688 130.246094 154.054688 130.238281 154.03125 130.238281 L 153.875 130.238281 C 153.875 130.238281 153.875 130.238281 153.875 130.234375 C 153.875 130.191406 153.988281 129.90625 154.039062 129.78125 C 154.046875 129.753906 154.050781 129.746094 154.078125 129.746094 L 154.488281 129.746094 C 154.507812 129.746094 154.507812 129.75 154.519531 129.78125 C 154.558594 129.890625 154.660156 130.195312 154.660156 130.234375 C 154.660156 130.238281 154.660156 130.238281 154.660156 130.238281 L 154.546875 130.238281 C 154.515625 130.238281 154.511719 130.238281 154.511719 130.269531 C 154.511719 130.300781 154.515625 130.308594 154.539062 130.308594 C 154.585938 130.308594 154.710938 130.304688 154.769531 130.304688 C 154.832031 130.304688 154.929688 130.308594 154.957031 130.308594 C 154.980469 130.308594 154.980469 130.300781 154.980469 130.269531 C 154.980469 130.246094 154.980469 130.238281 154.957031 130.238281 L 154.886719 130.238281 C 154.875 130.238281 154.726562 129.828125 154.644531 129.601562 L 154.402344 128.921875 C 154.402344 128.910156 154.390625 128.902344 154.378906 128.902344 C 154.359375 128.902344 154.347656 128.933594 154.335938 128.960938 C 154.3125 129.015625 154.277344 129.03125 154.261719 129.074219 L 154.046875 129.570312 C 154.023438 129.636719 153.773438 130.238281 153.757812 130.238281 L 153.695312 130.238281 C 153.664062 130.238281 153.660156 130.238281 153.660156 130.269531 Z M 154.078125 129.679688 C 154.078125 129.675781 154.082031 129.667969 154.089844 129.652344 L 154.285156 129.167969 C 154.292969 129.152344 154.296875 129.144531 154.300781 129.144531 C 154.300781 129.144531 154.304688 129.148438 154.308594 129.167969 L 154.476562 129.660156 C 154.480469 129.667969 154.484375 129.675781 154.484375 129.679688 C 154.484375 129.6875 154.480469 129.6875 154.464844 129.6875 L 154.105469 129.6875 C 154.078125 129.6875 154.078125 129.683594 154.078125 129.679688 Z M 155.917969 128.976562 C 155.917969 129.011719 155.933594 129.011719 155.957031 129.011719 L 156.015625 129.011719 C 156.035156 129.011719 156.359375 129.597656 156.417969 129.707031 C 156.425781 129.71875 156.433594 129.726562 156.433594 129.75 C 156.433594 129.996094 156.429688 130.238281 156.410156 130.238281 L 156.308594 130.238281 C 156.277344 130.238281 156.269531 130.238281 156.269531 130.269531 C 156.269531 130.300781 156.273438 130.308594 156.300781 130.308594 C 156.328125 130.308594 156.445312 130.304688 156.53125 130.304688 C 156.648438 130.304688 156.726562 130.308594 156.773438 130.308594 C 156.796875 130.308594 156.800781 130.300781 156.800781 130.269531 C 156.800781 130.246094 156.796875 130.238281 156.773438 130.238281 L 156.632812 130.238281 C 156.621094 130.238281 156.613281 129.882812 156.613281 129.664062 C 156.613281 129.660156 156.613281 129.65625 156.621094 129.648438 C 156.699219 129.519531 156.980469 129.011719 156.992188 129.011719 L 157.058594 129.011719 C 157.085938 129.011719 157.097656 129.011719 157.097656 128.976562 C 157.097656 128.945312 157.085938 128.9375 157.058594 128.9375 C 157.027344 128.9375 156.992188 128.945312 156.90625 128.945312 C 156.820312 128.945312 156.773438 128.9375 156.746094 128.9375 C 156.71875 128.9375 156.714844 128.949219 156.714844 128.984375 C 156.714844 129.011719 156.726562 129.011719 156.757812 129.011719 L 156.863281 129.011719 C 156.863281 129.011719 156.867188 129.015625 156.867188 129.019531 C 156.867188 129.0625 156.640625 129.488281 156.585938 129.59375 C 156.570312 129.621094 156.570312 129.617188 156.554688 129.585938 C 156.492188 129.472656 156.308594 129.136719 156.265625 129.035156 C 156.257812 129.015625 156.253906 129.011719 156.28125 129.011719 L 156.402344 129.011719 C 156.433594 129.011719 156.4375 129.011719 156.4375 128.984375 C 156.4375 128.949219 156.433594 128.9375 156.410156 128.9375 C 156.375 128.9375 156.285156 128.945312 156.171875 128.945312 C 156.054688 128.945312 155.984375 128.9375 155.957031 128.9375 C 155.929688 128.9375 155.917969 128.941406 155.917969 128.976562 Z M 158.1875 130.269531 C 158.1875 130.300781 158.191406 130.308594 158.222656 130.308594 C 158.253906 130.308594 158.328125 130.304688 158.386719 130.304688 C 158.449219 130.304688 158.519531 130.308594 158.566406 130.308594 C 158.589844 130.308594 158.59375 130.300781 158.59375 130.269531 C 158.59375 130.246094 158.589844 130.238281 158.566406 130.238281 L 158.425781 130.238281 C 158.417969 130.238281 158.414062 130.144531 158.414062 130.035156 C 158.414062 129.773438 158.421875 129.363281 158.433594 129.097656 C 158.4375 129.039062 158.441406 129.042969 158.460938 129.09375 L 158.929688 130.257812 C 158.945312 130.289062 158.957031 130.316406 158.972656 130.316406 C 158.984375 130.316406 158.996094 130.300781 159.007812 130.277344 C 159.058594 130.179688 159.082031 130.175781 159.121094 130.078125 L 159.496094 129.125 C 159.515625 129.078125 159.519531 129.058594 159.523438 129.125 C 159.527344 129.296875 159.53125 129.703125 159.53125 129.886719 C 159.53125 130.066406 159.527344 130.238281 159.519531 130.238281 L 159.425781 130.238281 C 159.394531 130.238281 159.386719 130.238281 159.386719 130.269531 C 159.386719 130.300781 159.390625 130.308594 159.417969 130.308594 C 159.445312 130.308594 159.546875 130.304688 159.632812 130.304688 C 159.695312 130.304688 159.804688 130.308594 159.851562 130.308594 C 159.875 130.308594 159.878906 130.300781 159.878906 130.269531 C 159.878906 130.242188 159.871094 130.238281 159.84375 130.238281 L 159.738281 130.238281 C 159.722656 130.238281 159.710938 129.695312 159.710938 129.347656 L 159.710938 129.167969 C 159.710938 129.082031 159.714844 129.023438 159.71875 129.011719 L 159.816406 129.011719 C 159.847656 129.011719 159.855469 129.011719 159.855469 128.984375 C 159.855469 128.949219 159.851562 128.9375 159.824219 128.9375 C 159.777344 128.9375 159.679688 128.945312 159.617188 128.945312 L 159.519531 128.945312 C 159.488281 128.945312 159.484375 128.953125 159.46875 128.996094 L 159.070312 130.027344 C 159.058594 130.058594 159.054688 130.070312 159.039062 130.03125 L 158.613281 128.96875 C 158.605469 128.945312 158.597656 128.9375 158.574219 128.9375 C 158.566406 128.9375 158.492188 128.945312 158.449219 128.945312 C 158.375 128.945312 158.253906 128.9375 158.222656 128.9375 C 158.203125 128.9375 158.203125 128.949219 158.203125 128.980469 C 158.203125 129.003906 158.203125 129.011719 158.222656 129.011719 L 158.324219 129.011719 C 158.363281 129.011719 158.363281 129.015625 158.363281 129.03125 C 158.363281 129.175781 158.332031 129.914062 158.328125 130.035156 C 158.320312 130.144531 158.320312 130.238281 158.3125 130.238281 L 158.230469 130.238281 C 158.199219 130.238281 158.1875 130.238281 158.1875 130.269531 Z M 161.019531 130.269531 C 161.019531 130.300781 161.023438 130.308594 161.050781 130.308594 C 161.097656 130.308594 161.234375 130.304688 161.296875 130.304688 C 161.355469 130.304688 162.007812 130.308594 162.054688 130.308594 C 162.074219 130.308594 162.09375 130.304688 162.09375 130.28125 C 162.09375 130.222656 162.101562 130.101562 162.101562 130 C 162.101562 129.980469 162.078125 129.980469 162.0625 129.980469 C 162.042969 129.980469 162.027344 129.980469 162.027344 129.996094 C 162.023438 130.074219 162.023438 130.125 162.023438 130.175781 C 162.015625 130.210938 162.015625 130.21875 162.003906 130.21875 C 161.980469 130.21875 161.601562 130.222656 161.382812 130.222656 C 161.375 130.222656 161.367188 129.9375 161.363281 129.671875 C 161.363281 129.640625 161.367188 129.648438 161.386719 129.648438 L 161.71875 129.648438 C 161.820312 129.648438 161.824219 129.664062 161.824219 129.675781 L 161.824219 129.777344 C 161.824219 129.796875 161.851562 129.796875 161.867188 129.796875 C 161.878906 129.796875 161.898438 129.796875 161.898438 129.78125 C 161.898438 129.753906 161.894531 129.679688 161.894531 129.609375 C 161.894531 129.535156 161.898438 129.464844 161.898438 129.449219 C 161.898438 129.429688 161.878906 129.429688 161.863281 129.429688 C 161.847656 129.429688 161.824219 129.429688 161.824219 129.449219 L 161.824219 129.554688 C 161.824219 129.578125 161.757812 129.582031 161.71875 129.582031 L 161.378906 129.582031 C 161.363281 129.582031 161.363281 129.582031 161.363281 129.554688 C 161.359375 129.453125 161.355469 129.355469 161.355469 129.265625 C 161.355469 129.21875 161.355469 129.015625 161.371094 129.015625 C 161.546875 129.015625 161.910156 129.019531 161.910156 129.027344 C 161.910156 129.054688 161.902344 129.175781 161.902344 129.183594 C 161.902344 129.207031 161.914062 129.214844 161.941406 129.214844 C 161.96875 129.214844 161.976562 129.210938 161.976562 129.191406 C 161.976562 129.035156 161.988281 128.964844 161.988281 128.925781 C 161.988281 128.898438 161.972656 128.898438 161.945312 128.898438 C 161.917969 128.898438 161.917969 128.90625 161.914062 128.925781 C 161.910156 128.949219 161.921875 128.949219 161.789062 128.949219 C 161.699219 128.949219 161.390625 128.953125 161.28125 128.953125 C 161.210938 128.953125 161.074219 128.949219 161.0625 128.949219 C 161.042969 128.949219 161.035156 128.953125 161.035156 128.984375 C 161.035156 129.015625 161.042969 129.019531 161.070312 129.019531 L 161.164062 129.019531 C 161.171875 129.019531 161.183594 129.171875 161.183594 129.304688 C 161.183594 129.316406 161.191406 129.671875 161.191406 129.898438 L 161.191406 130.089844 C 161.191406 130.1875 161.183594 130.238281 161.183594 130.238281 L 161.058594 130.238281 C 161.027344 130.238281 161.019531 130.242188 161.019531 130.269531 Z M 163.25 130.269531 C 163.25 130.300781 163.253906 130.308594 163.28125 130.308594 C 163.308594 130.308594 163.363281 130.304688 163.453125 130.304688 C 163.542969 130.304688 163.625 130.308594 163.671875 130.308594 C 163.695312 130.308594 163.695312 130.300781 163.695312 130.269531 C 163.695312 130.246094 163.695312 130.238281 163.671875 130.238281 L 163.496094 130.238281 C 163.488281 130.238281 163.488281 130.144531 163.488281 130.035156 C 163.488281 129.84375 163.488281 129.558594 163.488281 129.34375 C 163.488281 129.238281 163.488281 129.175781 163.492188 129.097656 C 163.492188 129.058594 163.503906 129.078125 163.519531 129.097656 L 164.515625 130.304688 C 164.527344 130.320312 164.539062 130.339844 164.554688 130.339844 C 164.570312 130.339844 164.582031 130.324219 164.582031 130.289062 C 164.582031 130.269531 164.605469 129.4375 164.609375 129.125 C 164.609375 129.066406 164.613281 129.011719 164.617188 129.011719 L 164.707031 129.011719 C 164.742188 129.011719 164.746094 129.011719 164.746094 128.984375 C 164.746094 128.949219 164.746094 128.9375 164.71875 128.9375 C 164.691406 128.9375 164.628906 128.945312 164.546875 128.945312 C 164.460938 128.945312 164.34375 128.9375 164.328125 128.9375 C 164.304688 128.9375 164.304688 128.949219 164.304688 128.980469 C 164.304688 129.003906 164.304688 129.011719 164.328125 129.011719 L 164.519531 129.011719 C 164.519531 129.011719 164.519531 129.105469 164.519531 129.121094 C 164.519531 129.324219 164.523438 129.679688 164.523438 129.878906 L 164.523438 129.964844 C 164.523438 130.003906 164.519531 130.015625 164.488281 129.976562 L 163.667969 128.96875 C 163.652344 128.949219 163.648438 128.9375 163.625 128.9375 C 163.613281 128.9375 163.558594 128.945312 163.511719 128.945312 C 163.46875 128.945312 163.316406 128.9375 163.285156 128.9375 C 163.261719 128.9375 163.257812 128.949219 163.257812 128.980469 C 163.257812 129.003906 163.261719 129.011719 163.285156 129.011719 L 163.417969 129.011719 C 163.417969 129.082031 163.414062 129.710938 163.402344 130.035156 C 163.398438 130.167969 163.398438 130.238281 163.382812 130.238281 L 163.289062 130.238281 C 163.257812 130.238281 163.25 130.238281 163.25 130.269531 Z M 165.871094 129.203125 C 165.871094 129.226562 165.894531 129.226562 165.914062 129.226562 C 165.9375 129.226562 165.945312 129.222656 165.945312 129.195312 L 165.960938 129.039062 C 165.964844 129.027344 166.042969 129.019531 166.152344 129.019531 L 166.4375 129.019531 C 166.445312 129.019531 166.449219 129.105469 166.449219 129.195312 C 166.449219 129.40625 166.441406 130.238281 166.425781 130.238281 L 166.296875 130.238281 C 166.265625 130.238281 166.257812 130.238281 166.257812 130.269531 C 166.257812 130.300781 166.261719 130.308594 166.289062 130.308594 C 166.335938 130.308594 166.480469 130.304688 166.539062 130.304688 C 166.601562 130.304688 166.734375 130.308594 166.78125 130.308594 C 166.804688 130.308594 166.808594 130.300781 166.808594 130.269531 C 166.808594 130.246094 166.804688 130.238281 166.78125 130.238281 L 166.636719 130.238281 C 166.632812 130.238281 166.632812 130.175781 166.632812 130.113281 C 166.632812 129.859375 166.648438 129.339844 166.648438 129.332031 C 166.648438 129.226562 166.648438 129.019531 166.664062 129.019531 L 166.894531 129.019531 C 166.996094 129.019531 167.117188 129.023438 167.117188 129.035156 C 167.117188 129.054688 167.113281 129.1875 167.113281 129.195312 C 167.113281 129.21875 167.121094 129.226562 167.148438 129.226562 C 167.175781 129.226562 167.1875 129.226562 167.1875 129.203125 C 167.1875 129.046875 167.195312 128.96875 167.195312 128.933594 C 167.195312 128.902344 167.183594 128.902344 167.152344 128.902344 C 167.132812 128.902344 167.125 128.910156 167.121094 128.933594 C 167.121094 128.945312 167.027344 128.953125 166.90625 128.953125 L 166.1875 128.953125 C 166.089844 128.953125 165.972656 128.953125 165.972656 128.941406 L 165.972656 128.921875 C 165.972656 128.902344 165.953125 128.902344 165.941406 128.902344 C 165.910156 128.902344 165.90625 128.910156 165.902344 128.9375 C 165.894531 129.039062 165.871094 129.195312 165.871094 129.203125 Z M 168.34375 129.3125 C 168.34375 129.789062 169.0625 129.664062 169.0625 130.015625 C 169.0625 130.152344 168.941406 130.257812 168.800781 130.257812 C 168.683594 130.257812 168.453125 130.1875 168.449219 130.132812 L 168.4375 129.945312 C 168.433594 129.917969 168.421875 129.910156 168.398438 129.910156 L 168.386719 129.910156 C 168.355469 129.910156 168.355469 129.921875 168.355469 129.941406 C 168.355469 129.96875 168.371094 130.164062 168.375 130.234375 C 168.378906 130.265625 168.5625 130.335938 168.785156 130.335938 C 169.007812 130.335938 169.242188 130.191406 169.242188 129.9375 C 169.242188 129.457031 168.523438 129.613281 168.523438 129.246094 C 168.523438 129.101562 168.636719 128.992188 168.785156 128.992188 C 168.933594 128.992188 169.09375 129.140625 169.09375 129.183594 C 169.09375 129.203125 169.085938 129.304688 169.085938 129.3125 C 169.085938 129.332031 169.09375 129.34375 169.128906 129.34375 C 169.164062 129.34375 169.167969 129.335938 169.167969 129.308594 C 169.167969 129.207031 169.179688 129.011719 169.179688 128.988281 C 169.179688 128.953125 169.171875 128.953125 169.136719 128.953125 C 169.101562 128.953125 169.101562 128.957031 169.097656 128.988281 C 169.097656 129 169.097656 129.023438 169.089844 129.023438 C 169.082031 129.023438 169.070312 129.019531 169.058594 129.011719 C 168.945312 128.933594 168.855469 128.921875 168.785156 128.921875 C 168.5625 128.921875 168.34375 129.082031 168.34375 129.3125 Z M 171.789062 130.269531 C 171.789062 130.300781 171.789062 130.308594 171.816406 130.308594 C 171.839844 130.308594 171.886719 130.304688 171.96875 130.304688 C 172.058594 130.304688 172.136719 130.308594 172.160156 130.308594 C 172.183594 130.308594 172.183594 130.300781 172.183594 130.269531 C 172.183594 130.246094 172.183594 130.238281 172.160156 130.238281 L 172.003906 130.238281 C 172.003906 130.238281 172 130.238281 172 130.234375 C 172.003906 130.191406 172.113281 129.90625 172.164062 129.78125 C 172.175781 129.753906 172.175781 129.746094 172.207031 129.746094 L 172.617188 129.746094 C 172.636719 129.746094 172.636719 129.75 172.648438 129.78125 C 172.6875 129.890625 172.789062 130.195312 172.789062 130.234375 C 172.789062 130.238281 172.785156 130.238281 172.785156 130.238281 L 172.675781 130.238281 C 172.640625 130.238281 172.640625 130.238281 172.640625 130.269531 C 172.640625 130.300781 172.640625 130.308594 172.667969 130.308594 C 172.714844 130.308594 172.839844 130.304688 172.898438 130.304688 C 172.960938 130.304688 173.058594 130.308594 173.085938 130.308594 C 173.105469 130.308594 173.109375 130.300781 173.109375 130.269531 C 173.109375 130.246094 173.105469 130.238281 173.085938 130.238281 L 173.015625 130.238281 C 173 130.238281 172.855469 129.828125 172.773438 129.601562 L 172.53125 128.921875 C 172.53125 128.910156 172.519531 128.902344 172.507812 128.902344 C 172.488281 128.902344 172.476562 128.933594 172.464844 128.960938 C 172.441406 129.015625 172.40625 129.03125 172.390625 129.074219 L 172.175781 129.570312 C 172.148438 129.636719 171.902344 130.238281 171.882812 130.238281 L 171.824219 130.238281 C 171.792969 130.238281 171.789062 130.238281 171.789062 130.269531 Z M 172.207031 129.679688 C 172.207031 129.675781 172.210938 129.667969 172.214844 129.652344 L 172.414062 129.167969 C 172.417969 129.152344 172.425781 129.144531 172.429688 129.144531 C 172.429688 129.144531 172.433594 129.148438 172.4375 129.167969 L 172.605469 129.660156 C 172.609375 129.667969 172.613281 129.675781 172.613281 129.679688 C 172.613281 129.6875 172.609375 129.6875 172.59375 129.6875 L 172.230469 129.6875 C 172.207031 129.6875 172.207031 129.683594 172.207031 129.679688 Z M 174.230469 130.269531 C 174.230469 130.300781 174.230469 130.308594 174.257812 130.308594 C 174.285156 130.308594 174.339844 130.304688 174.429688 130.304688 C 174.519531 130.304688 174.601562 130.308594 174.648438 130.308594 C 174.671875 130.308594 174.671875 130.300781 174.671875 130.269531 C 174.671875 130.246094 174.671875 130.238281 174.648438 130.238281 L 174.476562 130.238281 C 174.46875 130.238281 174.464844 130.144531 174.464844 130.035156 C 174.464844 129.84375 174.46875 129.558594 174.46875 129.34375 C 174.46875 129.238281 174.46875 129.175781 174.46875 129.097656 C 174.46875 129.058594 174.480469 129.078125 174.496094 129.097656 L 175.492188 130.304688 C 175.503906 130.320312 175.515625 130.339844 175.535156 130.339844 C 175.550781 130.339844 175.558594 130.324219 175.558594 130.289062 C 175.558594 130.269531 175.582031 129.4375 175.585938 129.125 C 175.585938 129.066406 175.589844 129.011719 175.59375 129.011719 L 175.683594 129.011719 C 175.71875 129.011719 175.726562 129.011719 175.726562 128.984375 C 175.726562 128.949219 175.726562 128.9375 175.699219 128.9375 C 175.667969 128.9375 175.605469 128.945312 175.527344 128.945312 C 175.4375 128.945312 175.320312 128.9375 175.304688 128.9375 C 175.285156 128.9375 175.285156 128.949219 175.285156 128.980469 C 175.285156 129.003906 175.285156 129.011719 175.304688 129.011719 L 175.496094 129.011719 C 175.496094 129.011719 175.496094 129.105469 175.496094 129.121094 C 175.496094 129.324219 175.5 129.679688 175.5 129.878906 L 175.5 129.964844 C 175.5 130.003906 175.5 130.015625 175.464844 129.976562 L 174.648438 128.96875 C 174.628906 128.949219 174.625 128.9375 174.601562 128.9375 C 174.589844 128.9375 174.535156 128.945312 174.492188 128.945312 C 174.449219 128.945312 174.292969 128.9375 174.265625 128.9375 C 174.238281 128.9375 174.234375 128.949219 174.234375 128.980469 C 174.234375 129.003906 174.238281 129.011719 174.265625 129.011719 L 174.394531 129.011719 C 174.394531 129.082031 174.390625 129.710938 174.378906 130.035156 C 174.375 130.167969 174.375 130.238281 174.359375 130.238281 L 174.269531 130.238281 C 174.234375 130.238281 174.230469 130.238281 174.230469 130.269531 Z M 176.875 130.277344 C 176.875 130.300781 176.878906 130.3125 176.902344 130.3125 C 176.925781 130.3125 177.105469 130.304688 177.160156 130.304688 C 177.285156 130.304688 177.410156 130.3125 177.535156 130.3125 C 177.914062 130.3125 178.257812 130.078125 178.257812 129.621094 C 178.257812 129.183594 177.921875 128.921875 177.484375 128.921875 C 177.402344 128.921875 177.21875 128.945312 177.070312 128.945312 C 177 128.945312 176.933594 128.945312 176.925781 128.945312 C 176.902344 128.945312 176.898438 128.957031 176.898438 128.984375 C 176.898438 129.011719 176.90625 129.011719 176.925781 129.011719 L 177.066406 129.007812 C 177.070312 129.007812 177.070312 129.085938 177.070312 129.160156 C 177.070312 129.332031 177.058594 130.242188 177.046875 130.242188 L 176.917969 130.242188 C 176.890625 130.242188 176.875 130.242188 176.875 130.277344 Z M 177.246094 130.125 C 177.246094 129.84375 177.246094 129.5625 177.25 129.289062 C 177.25 129.203125 177.257812 129 177.261719 129 C 177.304688 128.988281 177.390625 128.984375 177.4375 128.984375 C 177.808594 128.984375 178.042969 129.308594 178.042969 129.59375 C 178.042969 129.769531 178.035156 130.246094 177.363281 130.246094 C 177.324219 130.246094 177.265625 130.246094 177.25 130.242188 C 177.246094 130.238281 177.246094 130.179688 177.246094 130.125 Z M 180.855469 129.621094 C 180.855469 130.113281 181.195312 130.335938 181.570312 130.335938 C 181.828125 130.335938 182.082031 130.195312 182.089844 130.152344 C 182.113281 129.964844 182.121094 129.878906 182.121094 129.875 C 182.121094 129.859375 182.117188 129.851562 182.09375 129.851562 C 182.082031 129.851562 182.074219 129.847656 182.070312 129.847656 C 182.054688 129.847656 182.046875 129.855469 182.042969 129.878906 L 182.015625 130.113281 C 182.011719 130.132812 181.855469 130.246094 181.628906 130.246094 C 181.320312 130.246094 181.074219 129.964844 181.074219 129.625 C 181.074219 129.261719 181.277344 128.988281 181.566406 128.988281 C 181.835938 128.988281 182.027344 129.203125 182.027344 129.226562 C 182.027344 129.242188 182.019531 129.402344 182.019531 129.410156 C 182.019531 129.429688 182.027344 129.4375 182.066406 129.4375 C 182.09375 129.4375 182.101562 129.433594 182.101562 129.410156 C 182.101562 129.304688 182.113281 129.042969 182.113281 129.007812 C 182.113281 128.980469 182.097656 128.976562 182.066406 128.976562 C 182.03125 128.976562 182.027344 128.984375 182.027344 129.007812 L 182.027344 129.0625 C 182.027344 129.078125 182.023438 129.078125 182.003906 129.066406 C 181.964844 129.035156 181.824219 128.917969 181.582031 128.917969 C 181.171875 128.917969 180.855469 129.195312 180.855469 129.621094 Z M 183.332031 128.984375 C 183.332031 129.015625 183.34375 129.027344 183.371094 129.027344 L 183.488281 129.023438 C 183.503906 129.023438 183.507812 129.433594 183.507812 129.714844 L 183.507812 129.984375 C 183.507812 130.109375 183.507812 130.238281 183.5 130.238281 L 183.414062 130.238281 C 183.382812 130.238281 183.371094 130.238281 183.371094 130.269531 C 183.371094 130.300781 183.378906 130.308594 183.40625 130.308594 C 183.421875 130.308594 183.542969 130.304688 183.605469 130.304688 C 183.664062 130.304688 183.777344 130.308594 183.820312 130.308594 C 183.847656 130.308594 183.851562 130.300781 183.851562 130.269531 C 183.851562 130.246094 183.847656 130.238281 183.820312 130.238281 L 183.703125 130.238281 C 183.695312 130.238281 183.683594 129.804688 183.683594 129.6875 C 183.683594 129.675781 183.683594 129.671875 183.699219 129.671875 C 183.753906 129.671875 183.84375 129.671875 183.886719 129.671875 C 184.207031 129.679688 184.230469 129.921875 184.230469 130.164062 L 184.230469 130.28125 C 184.230469 130.300781 184.234375 130.304688 184.25 130.304688 C 184.25 130.304688 184.457031 130.308594 184.527344 130.308594 C 184.550781 130.308594 184.558594 130.304688 184.558594 130.289062 C 184.558594 130.246094 184.550781 130.238281 184.53125 130.238281 L 184.4375 130.238281 C 184.421875 130.238281 184.417969 130.230469 184.414062 130.113281 C 184.402344 129.777344 184.203125 129.683594 184.074219 129.640625 C 184.054688 129.636719 184.058594 129.636719 184.074219 129.625 C 184.160156 129.589844 184.347656 129.480469 184.347656 129.292969 C 184.347656 129.003906 184.101562 128.941406 183.902344 128.941406 C 183.855469 128.941406 183.667969 128.953125 183.609375 128.953125 C 183.546875 128.953125 183.40625 128.949219 183.371094 128.949219 C 183.347656 128.949219 183.332031 128.953125 183.332031 128.984375 Z M 183.683594 129.605469 L 183.683594 129.113281 C 183.683594 129.0625 183.6875 129.011719 183.691406 129.011719 C 183.722656 129.003906 183.765625 129.003906 183.796875 129.003906 C 183.984375 129.003906 184.164062 129.125 184.164062 129.320312 C 184.164062 129.488281 184.085938 129.570312 183.988281 129.617188 C 183.984375 129.621094 183.976562 129.621094 183.96875 129.621094 C 183.898438 129.617188 183.796875 129.617188 183.710938 129.613281 C 183.683594 129.613281 183.683594 129.613281 183.683594 129.605469 Z M 185.519531 128.976562 C 185.519531 129.011719 185.53125 129.011719 185.554688 129.011719 L 185.613281 129.011719 C 185.632812 129.011719 185.957031 129.597656 186.015625 129.707031 C 186.023438 129.71875 186.03125 129.726562 186.03125 129.75 C 186.03125 129.996094 186.027344 130.238281 186.007812 130.238281 L 185.90625 130.238281 C 185.875 130.238281 185.867188 130.238281 185.867188 130.269531 C 185.867188 130.300781 185.871094 130.308594 185.898438 130.308594 C 185.925781 130.308594 186.042969 130.304688 186.128906 130.304688 C 186.246094 130.304688 186.324219 130.308594 186.371094 130.308594 C 186.394531 130.308594 186.398438 130.300781 186.398438 130.269531 C 186.398438 130.246094 186.394531 130.238281 186.371094 130.238281 L 186.230469 130.238281 C 186.21875 130.238281 186.214844 129.882812 186.214844 129.664062 C 186.214844 129.660156 186.214844 129.65625 186.21875 129.648438 C 186.296875 129.519531 186.578125 129.011719 186.589844 129.011719 L 186.65625 129.011719 C 186.683594 129.011719 186.695312 129.011719 186.695312 128.976562 C 186.695312 128.945312 186.683594 128.9375 186.65625 128.9375 C 186.625 128.9375 186.589844 128.945312 186.503906 128.945312 C 186.417969 128.945312 186.371094 128.9375 186.347656 128.9375 C 186.320312 128.9375 186.3125 128.949219 186.3125 128.984375 C 186.3125 129.011719 186.324219 129.011719 186.355469 129.011719 L 186.460938 129.011719 C 186.464844 129.011719 186.464844 129.015625 186.464844 129.019531 C 186.464844 129.0625 186.238281 129.488281 186.183594 129.59375 C 186.167969 129.621094 186.167969 129.617188 186.152344 129.585938 C 186.09375 129.472656 185.90625 129.136719 185.863281 129.035156 C 185.855469 129.015625 185.855469 129.011719 185.878906 129.011719 L 186 129.011719 C 186.03125 129.011719 186.035156 129.011719 186.035156 128.984375 C 186.035156 128.949219 186.03125 128.9375 186.007812 128.9375 C 185.972656 128.9375 185.882812 128.945312 185.769531 128.945312 C 185.652344 128.945312 185.582031 128.9375 185.554688 128.9375 C 185.527344 128.9375 185.519531 128.941406 185.519531 128.976562 Z M 187.796875 128.984375 C 187.796875 129.019531 187.804688 129.027344 187.832031 129.027344 L 187.964844 129.023438 C 187.976562 129.023438 187.976562 129.125 187.976562 129.234375 L 187.976562 129.339844 C 187.976562 129.589844 187.972656 130.238281 187.957031 130.238281 L 187.859375 130.238281 C 187.828125 130.238281 187.816406 130.238281 187.816406 130.269531 C 187.816406 130.300781 187.820312 130.308594 187.847656 130.308594 C 187.863281 130.308594 188.007812 130.304688 188.066406 130.304688 C 188.128906 130.304688 188.253906 130.308594 188.300781 130.308594 C 188.324219 130.308594 188.328125 130.300781 188.328125 130.269531 C 188.328125 130.246094 188.324219 130.238281 188.300781 130.238281 L 188.15625 130.238281 C 188.152344 130.238281 188.148438 130.007812 188.148438 129.863281 L 188.148438 129.726562 C 188.148438 129.714844 188.148438 129.710938 188.164062 129.710938 C 188.21875 129.710938 188.265625 129.71875 188.339844 129.71875 C 188.625 129.71875 188.828125 129.609375 188.828125 129.347656 C 188.828125 129.070312 188.613281 128.945312 188.335938 128.945312 C 188.289062 128.945312 188.132812 128.953125 188.070312 128.953125 C 188.035156 128.953125 187.863281 128.949219 187.832031 128.949219 C 187.808594 128.949219 187.796875 128.953125 187.796875 128.984375 Z M 188.152344 129.640625 L 188.152344 129.113281 C 188.152344 129.0625 188.152344 129.011719 188.160156 129.011719 C 188.175781 129.007812 188.203125 129.007812 188.222656 129.007812 C 188.460938 129.007812 188.640625 129.125 188.640625 129.316406 C 188.640625 129.570312 188.449219 129.660156 188.222656 129.660156 C 188.183594 129.660156 188.152344 129.65625 188.152344 129.640625 Z M 189.910156 129.203125 C 189.910156 129.226562 189.9375 129.226562 189.953125 129.226562 C 189.976562 129.226562 189.980469 129.222656 189.984375 129.195312 L 190 129.039062 C 190.003906 129.027344 190.082031 129.019531 190.191406 129.019531 L 190.476562 129.019531 C 190.484375 129.019531 190.488281 129.105469 190.488281 129.195312 C 190.488281 129.40625 190.480469 130.238281 190.464844 130.238281 L 190.335938 130.238281 C 190.304688 130.238281 190.300781 130.238281 190.300781 130.269531 C 190.300781 130.300781 190.300781 130.308594 190.328125 130.308594 C 190.375 130.308594 190.519531 130.304688 190.578125 130.304688 C 190.640625 130.304688 190.773438 130.308594 190.820312 130.308594 C 190.84375 130.308594 190.851562 130.300781 190.851562 130.269531 C 190.851562 130.246094 190.84375 130.238281 190.820312 130.238281 L 190.679688 130.238281 C 190.671875 130.238281 190.671875 130.175781 190.671875 130.113281 C 190.671875 129.859375 190.683594 129.339844 190.683594 129.332031 C 190.6875 129.226562 190.6875 129.019531 190.699219 129.019531 L 190.933594 129.019531 C 191.039062 129.019531 191.15625 129.023438 191.15625 129.035156 C 191.15625 129.054688 191.148438 129.1875 191.148438 129.195312 C 191.148438 129.21875 191.160156 129.226562 191.1875 129.226562 C 191.214844 129.226562 191.226562 129.226562 191.226562 129.203125 C 191.226562 129.046875 191.234375 128.96875 191.234375 128.933594 C 191.234375 128.902344 191.222656 128.902344 191.195312 128.902344 C 191.171875 128.902344 191.164062 128.910156 191.160156 128.933594 C 191.160156 128.945312 191.066406 128.953125 190.945312 128.953125 L 190.226562 128.953125 C 190.128906 128.953125 190.011719 128.953125 190.011719 128.941406 L 190.011719 128.921875 C 190.011719 128.902344 189.992188 128.902344 189.980469 128.902344 C 189.949219 128.902344 189.941406 128.910156 189.941406 128.9375 C 189.933594 129.039062 189.910156 129.195312 189.910156 129.203125 Z M 192.28125 129.65625 C 192.28125 130.089844 192.621094 130.328125 192.945312 130.328125 C 193.347656 130.328125 193.632812 130.050781 193.632812 129.640625 C 193.632812 129.25 193.378906 128.925781 192.976562 128.925781 C 192.601562 128.925781 192.28125 129.214844 192.28125 129.65625 Z M 192.484375 129.601562 C 192.484375 129.292969 192.671875 128.996094 192.957031 128.996094 C 193.277344 128.996094 193.433594 129.316406 193.433594 129.625 C 193.433594 129.933594 193.277344 130.257812 192.949219 130.257812 C 192.660156 130.257812 192.484375 129.964844 192.484375 129.601562 Z M 194.785156 130.222656 C 194.785156 130.257812 194.847656 130.320312 194.910156 130.320312 C 194.933594 130.320312 195 130.261719 195 130.195312 C 195 130.140625 194.917969 130.097656 194.878906 130.097656 C 194.839844 130.097656 194.785156 130.175781 194.785156 130.222656 Z M 194.785156 130.222656 "/>
</g>
</svg>
