<?xml version="1.0" encoding="UTF-8"?>
<svg xmlns="http://www.w3.org/2000/svg" xmlns:xlink="http://www.w3.org/1999/xlink" width="150px" height="150px" viewBox="0 0 225 225" version="1.1">
<g id="surface1">
<path style=" stroke:none;fill-rule:nonzero;fill:rgb(49.803922%,85.882354%,57.254905%);fill-opacity:1;" d="M 48.519531 82.125 C 49.714844 82.148438 50.914062 82.171875 52.113281 82.191406 C 55.246094 82.253906 58.375 82.34375 61.503906 82.445312 C 64.070312 82.519531 66.636719 82.570312 69.203125 82.621094 C 74.496094 82.730469 79.785156 82.851562 85.078125 83.011719 C 86.480469 83.054688 86.480469 83.054688 87.910156 83.097656 C 90 83.25 90 83.25 90.75 84 C 90.96875 86.050781 91.136719 88.082031 91.265625 90.140625 C 91.3125 90.707031 91.355469 91.273438 91.402344 91.859375 C 91.4375 92.417969 91.472656 92.972656 91.507812 93.546875 C 91.558594 94.304688 91.558594 94.304688 91.613281 95.082031 C 91.464844 97.285156 90.71875 99.167969 90 101.25 C 82.398438 101.265625 74.796875 101.28125 67.195312 101.289062 C 63.664062 101.292969 60.136719 101.296875 56.605469 101.304688 C 53.203125 101.316406 49.800781 101.320312 46.394531 101.320312 C 45.09375 101.324219 43.792969 101.324219 42.492188 101.328125 C 40.675781 101.335938 38.859375 101.335938 37.039062 101.335938 C 36.5 101.335938 35.957031 101.339844 35.398438 101.34375 C 31.671875 101.335938 31.671875 101.335938 30 100.5 C 30 97.53125 30 94.558594 30 91.5 C 29.503906 91.5 29.011719 91.5 28.5 91.5 C 28.246094 89.164062 28.207031 88.117188 29.699219 86.25 C 35.742188 81.683594 41.316406 81.859375 48.519531 82.125 Z M 36.75 90 C 36.75 91.484375 36.75 92.96875 36.75 94.5 C 47.886719 94.5 59.023438 94.5 70.5 94.5 C 70.5 93.015625 70.5 91.53125 70.5 90 C 59.363281 90 48.226562 90 36.75 90 Z M 81.75 90 C 81.503906 90.988281 81.253906 91.980469 81 93 C 82.484375 93.742188 82.484375 93.742188 84 94.5 C 84.496094 94.003906 84.988281 93.511719 85.5 93 C 85.261719 91.417969 85.261719 91.417969 84.75 90 C 83.761719 90 82.769531 90 81.75 90 Z M 81.75 90 "/>
<path style=" stroke:none;fill-rule:nonzero;fill:rgb(50.980395%,87.450981%,58.039218%);fill-opacity:1;" d="M 36.949219 123.652344 C 37.789062 123.652344 37.789062 123.652344 38.648438 123.648438 C 40.507812 123.644531 42.367188 123.648438 44.226562 123.648438 C 45.515625 123.648438 46.804688 123.648438 48.09375 123.648438 C 50.796875 123.648438 53.5 123.648438 56.203125 123.652344 C 59.675781 123.65625 63.144531 123.652344 66.617188 123.648438 C 69.277344 123.648438 71.941406 123.648438 74.601562 123.648438 C 75.882812 123.648438 77.164062 123.648438 78.441406 123.648438 C 80.230469 123.644531 82.015625 123.648438 83.800781 123.652344 C 84.335938 123.652344 84.867188 123.648438 85.414062 123.648438 C 89.078125 123.664062 89.078125 123.664062 90.75 124.5 C 91.125 126.785156 91.355469 128.945312 91.5 131.25 C 91.585938 132.421875 91.585938 132.421875 91.675781 133.621094 C 91.710938 134.414062 91.746094 135.210938 91.78125 136.03125 C 91.816406 136.78125 91.855469 137.527344 91.890625 138.296875 C 91.5 140.25 91.5 140.25 89.953125 141.484375 C 87.265625 142.722656 84.996094 142.777344 82.105469 142.699219 C 81.546875 142.691406 80.992188 142.6875 80.421875 142.679688 C 78.59375 142.660156 76.769531 142.621094 74.941406 142.582031 C 73.671875 142.5625 72.398438 142.542969 71.128906 142.527344 C 68.472656 142.488281 65.8125 142.441406 63.15625 142.390625 C 59.742188 142.324219 56.328125 142.269531 52.914062 142.222656 C 49.660156 142.175781 46.410156 142.121094 43.160156 142.066406 C 42.535156 142.058594 41.914062 142.046875 41.269531 142.035156 C 39.515625 142.007812 37.761719 141.976562 36.007812 141.941406 C 35.484375 141.933594 34.960938 141.925781 34.417969 141.914062 C 30.835938 141.835938 30.835938 141.835938 30 141 C 29.933594 139.773438 29.917969 138.546875 29.925781 137.316406 C 29.929688 136.574219 29.929688 135.832031 29.933594 135.070312 C 29.941406 134.289062 29.945312 133.507812 29.953125 132.703125 C 29.957031 131.917969 29.960938 131.136719 29.964844 130.328125 C 29.972656 128.386719 29.984375 126.441406 30 124.5 C 32.230469 123.386719 34.503906 123.644531 36.949219 123.652344 Z M 36.75 130.5 C 36.75 131.984375 36.75 133.46875 36.75 135 C 40.71875 135.660156 44.535156 135.859375 48.554688 135.847656 C 49.164062 135.851562 49.769531 135.851562 50.394531 135.851562 C 51.667969 135.851562 52.9375 135.851562 54.210938 135.847656 C 56.167969 135.84375 58.121094 135.847656 60.074219 135.851562 C 61.316406 135.851562 62.554688 135.851562 63.789062 135.847656 C 64.378906 135.851562 64.964844 135.851562 65.570312 135.855469 C 68.257812 136.09375 68.257812 136.09375 70.5 135 C 70.5 133.515625 70.5 132.03125 70.5 130.5 C 59.363281 130.5 48.226562 130.5 36.75 130.5 Z M 82.5 130.5 C 81.667969 131.914062 81.667969 131.914062 81 133.5 C 81.246094 133.996094 81.496094 134.488281 81.75 135 C 82.988281 134.753906 84.226562 134.503906 85.5 134.25 C 85.300781 132.761719 85.300781 132.761719 84.75 131.25 C 84.007812 131.003906 83.265625 130.753906 82.5 130.5 Z M 82.5 130.5 "/>
<path style=" stroke:none;fill-rule:nonzero;fill:rgb(50.196081%,86.666667%,57.254905%);fill-opacity:1;" d="M 36.949219 103.402344 C 37.789062 103.402344 37.789062 103.402344 38.648438 103.398438 C 40.507812 103.394531 42.367188 103.398438 44.226562 103.398438 C 45.515625 103.398438 46.804688 103.398438 48.09375 103.398438 C 50.796875 103.398438 53.5 103.398438 56.203125 103.402344 C 59.675781 103.40625 63.144531 103.402344 66.617188 103.398438 C 69.277344 103.398438 71.941406 103.398438 74.601562 103.398438 C 75.882812 103.398438 77.164062 103.398438 78.441406 103.398438 C 80.230469 103.394531 82.015625 103.398438 83.800781 103.402344 C 84.335938 103.402344 84.867188 103.398438 85.414062 103.398438 C 89.078125 103.414062 89.078125 103.414062 90.75 104.25 C 90.917969 106.703125 91.070312 109.15625 91.21875 111.609375 C 91.265625 112.304688 91.316406 113.003906 91.363281 113.71875 C 91.402344 114.390625 91.441406 115.058594 91.480469 115.75 C 91.523438 116.367188 91.5625 116.980469 91.601562 117.617188 C 91.5 119.25 91.5 119.25 90 121.5 C 88.15625 121.746094 86.492188 121.84375 84.644531 121.847656 C 83.816406 121.863281 83.816406 121.863281 82.972656 121.878906 C 81.144531 121.910156 79.320312 121.921875 77.488281 121.9375 C 76.222656 121.953125 74.953125 121.96875 73.683594 121.988281 C 71.023438 122.023438 68.359375 122.050781 65.699219 122.074219 C 62.285156 122.101562 58.875 122.144531 55.464844 122.195312 C 52.84375 122.234375 50.222656 122.261719 47.601562 122.289062 C 46.34375 122.304688 45.085938 122.320312 43.828125 122.339844 C 42.066406 122.363281 40.308594 122.375 38.550781 122.386719 C 37.769531 122.402344 37.769531 122.402344 36.972656 122.414062 C 34.023438 122.421875 32.742188 122.121094 30 120.75 C 30 115.304688 30 109.859375 30 104.25 C 32.230469 103.136719 34.503906 103.394531 36.949219 103.402344 Z M 36.75 110.25 C 36.75 111.734375 36.75 113.21875 36.75 114.75 C 40.570312 115.527344 44.210938 115.597656 48.085938 115.574219 C 48.730469 115.570312 49.375 115.570312 50.035156 115.570312 C 52.074219 115.566406 54.117188 115.554688 56.15625 115.546875 C 57.542969 115.542969 58.933594 115.539062 60.320312 115.535156 C 63.714844 115.527344 67.109375 115.515625 70.5 115.5 C 70.5 113.765625 70.5 112.035156 70.5 110.25 C 59.363281 110.25 48.226562 110.25 36.75 110.25 Z M 83.25 110.25 C 82.507812 110.992188 81.765625 111.734375 81 112.5 C 81.742188 113.613281 81.742188 113.613281 82.5 114.75 C 83.488281 114.503906 84.480469 114.253906 85.5 114 C 85.238281 112.519531 85.238281 112.519531 84.75 111 C 84.253906 110.753906 83.761719 110.503906 83.25 110.25 Z M 83.25 110.25 "/>
<path style=" stroke:none;fill-rule:nonzero;fill:rgb(95.294118%,98.823529%,98.823529%);fill-opacity:1;" d="M 113.25 88.5 C 113.992188 88.5 114.734375 88.5 115.5 88.5 C 115.5 97.164062 115.5 105.824219 115.5 114.75 C 113.570312 115.714844 112.125 115.625 109.96875 115.640625 C 109.25 115.652344 108.535156 115.660156 107.796875 115.671875 C 104.917969 115.429688 103.363281 114.679688 101.4375 112.546875 C 99.898438 108.773438 99.644531 104.164062 101.164062 100.328125 C 102.398438 98.367188 103.636719 97.6875 105.75 96.75 C 108.570312 96.554688 110.566406 96.605469 113.25 97.5 C 113.25 94.53125 113.25 91.558594 113.25 88.5 Z M 105.84375 99.984375 C 104.351562 101.121094 104.351562 101.121094 103.5 102 C 103.320312 103.671875 103.320312 103.671875 103.3125 105.609375 C 103.292969 106.265625 103.273438 106.917969 103.253906 107.59375 C 103.550781 109.894531 104.109375 110.871094 105.75 112.5 C 108.226562 113.308594 110.867188 113.691406 113.25 112.5 C 113.25 108.539062 113.25 104.578125 113.25 100.5 C 108.449219 98.511719 108.449219 98.511719 105.84375 99.984375 Z M 105.84375 99.984375 "/>
<path style=" stroke:none;fill-rule:nonzero;fill:rgb(94.901961%,98.823529%,98.823529%);fill-opacity:1;" d="M 129.75 96.75 C 131.625 98.15625 132.464844 99.179688 133.5 101.25 C 133.5625 102.28125 133.582031 103.316406 133.574219 104.351562 C 133.570312 104.953125 133.570312 105.558594 133.566406 106.179688 C 133.558594 106.8125 133.554688 107.441406 133.546875 108.09375 C 133.542969 108.730469 133.539062 109.367188 133.535156 110.023438 C 133.527344 111.601562 133.515625 113.175781 133.5 114.75 C 131.484375 115.757812 129.84375 115.683594 127.59375 115.734375 C 126.808594 115.761719 126.019531 115.789062 125.210938 115.820312 C 122.476562 115.425781 121.640625 114.683594 120 112.5 C 119.578125 109.875 119.578125 109.875 120 107.25 C 121.453125 105.421875 121.453125 105.421875 123.75 104.25 C 126.023438 104.019531 128.222656 104.070312 130.5 104.25 C 130.03125 102.355469 130.03125 102.355469 129 100.5 C 127.246094 99.863281 127.246094 99.863281 125.25 99.75 C 124 99.5 122.75 99.25 121.5 99 C 121.5 98.503906 121.5 98.011719 121.5 97.5 C 124.085938 96.207031 126.921875 96.371094 129.75 96.75 Z M 123 108 C 122.625 109.875 122.625 109.875 123 111.75 C 125.582031 113.46875 126.726562 113.445312 129.75 113.25 C 130.804688 112.367188 130.804688 112.367188 130.59375 109.875 C 130.804688 107.382812 130.804688 107.382812 129.75 106.5 C 126.726562 106.304688 125.582031 106.28125 123 108 Z M 123 108 "/>
<path style=" stroke:none;fill-rule:nonzero;fill:rgb(95.294118%,98.431373%,98.431373%);fill-opacity:1;" d="M 180.75 96.75 C 181.492188 96.75 182.234375 96.75 183 96.75 C 184.734375 101.453125 186.464844 106.15625 188.25 111 C 189.734375 106.296875 191.21875 101.59375 192.75 96.75 C 193.492188 96.75 194.234375 96.75 195 96.75 C 194.554688 105.234375 191.824219 113.894531 186.75 120.75 C 184.339844 121.957031 181.921875 121.542969 179.25 121.5 C 179.71875 120.046875 179.71875 120.046875 180.75 118.5 C 183.09375 117.9375 183.09375 117.9375 185.25 117.75 C 186.414062 114.175781 185.453125 112.210938 183.890625 108.890625 C 182.175781 105.132812 180.71875 101.582031 180 97.5 C 180.246094 97.253906 180.496094 97.003906 180.75 96.75 Z M 180.75 96.75 "/>
<path style=" stroke:none;fill-rule:nonzero;fill:rgb(95.294118%,98.823529%,99.215686%);fill-opacity:1;" d="M 159.75 96.75 C 161.804688 97.789062 161.804688 97.789062 163.5 99.75 C 163.984375 102.308594 163.886719 104.796875 163.78125 107.390625 C 163.765625 108.433594 163.765625 108.433594 163.75 109.5 C 163.636719 114.613281 163.636719 114.613281 162.75 115.5 C 158.519531 115.953125 154.941406 116.242188 151.265625 113.953125 C 150 111.75 150 111.75 149.90625 109.03125 C 150.75 106.5 150.75 106.5 152.25 105.046875 C 155.292969 103.96875 158.054688 104.0625 161.25 104.25 C 160.839844 102.347656 160.839844 102.347656 159.75 100.5 C 157.152344 99.765625 154.957031 99.75 152.25 99.75 C 152.25 99.007812 152.25 98.265625 152.25 97.5 C 154.613281 96.320312 157.195312 96.246094 159.75 96.75 Z M 154.21875 108 C 153.816406 108.496094 153.414062 108.988281 153 109.5 C 153.914062 111.519531 153.914062 111.519531 155.25 113.25 C 157.875 113.375 157.875 113.375 160.5 113.25 C 161.554688 112.367188 161.554688 112.367188 161.34375 109.875 C 161.554688 107.382812 161.554688 107.382812 160.5 106.5 C 157.644531 106.183594 156.460938 106.113281 154.21875 108 Z M 154.21875 108 "/>
<path style=" stroke:none;fill-rule:nonzero;fill:rgb(94.117647%,98.039216%,98.431373%);fill-opacity:1;" d="M 175.96875 88.453125 C 176.886719 88.464844 176.886719 88.464844 177.828125 88.472656 C 178.53125 88.488281 178.53125 88.488281 179.25 88.5 C 179.25 89.488281 179.25 90.480469 179.25 91.5 C 177.023438 91.5 174.796875 91.5 172.5 91.5 C 172.253906 93.234375 172.003906 94.964844 171.75 96.75 C 173.976562 96.75 176.203125 96.75 178.5 96.75 C 178.5 97.738281 178.5 98.730469 178.5 99.75 C 176.273438 99.75 174.046875 99.75 171.75 99.75 C 171.75 104.949219 171.75 110.144531 171.75 115.5 C 170.761719 115.5 169.769531 115.5 168.75 115.5 C 168.695312 112.363281 168.652344 109.230469 168.625 106.09375 C 168.613281 105.027344 168.601562 103.960938 168.582031 102.894531 C 168.554688 101.359375 168.539062 99.824219 168.53125 98.289062 C 168.519531 97.363281 168.507812 96.441406 168.496094 95.492188 C 168.769531 92.789062 169.375 91.398438 171 89.25 C 172.804688 88.347656 173.960938 88.425781 175.96875 88.453125 Z M 175.96875 88.453125 "/>
<path style=" stroke:none;fill-rule:nonzero;fill:rgb(92.941177%,98.039216%,98.823529%);fill-opacity:1;" d="M 138.75 91.5 C 139.492188 91.5 140.234375 91.5 141 91.5 C 141 93.234375 141 94.964844 141 96.75 C 143.226562 96.75 145.453125 96.75 147.75 96.75 C 147.75 97.738281 147.75 98.730469 147.75 99.75 C 145.523438 99.75 143.296875 99.75 141 99.75 C 141.246094 103.957031 141.496094 108.164062 141.75 112.5 C 143.976562 112.5 146.203125 112.5 148.5 112.5 C 148.5 113.242188 148.5 113.984375 148.5 114.75 C 146.117188 115.941406 143.59375 115.804688 141 115.5 C 138.996094 114.140625 138.78125 113.339844 138 111 C 137.929688 109.570312 137.902344 108.136719 137.898438 106.703125 C 137.898438 105.871094 137.898438 105.035156 137.898438 104.171875 C 137.898438 103.300781 137.902344 102.429688 137.90625 101.53125 C 137.902344 100.652344 137.902344 99.777344 137.898438 98.871094 C 137.898438 98.039062 137.898438 97.203125 137.898438 96.34375 C 137.902344 95.578125 137.902344 94.8125 137.902344 94.019531 C 138 92.25 138 92.25 138.75 91.5 Z M 138.75 91.5 "/>
<path style=" stroke:none;fill-rule:nonzero;fill:rgb(55.29412%,84.705883%,65.098041%);fill-opacity:1;" d="M 41.25 83.25 C 47.59375 83.234375 53.9375 83.21875 60.28125 83.210938 C 63.226562 83.207031 66.171875 83.203125 69.113281 83.195312 C 71.957031 83.183594 74.796875 83.179688 77.636719 83.179688 C 78.722656 83.175781 79.804688 83.175781 80.890625 83.171875 C 82.40625 83.164062 83.925781 83.164062 85.441406 83.164062 C 86.734375 83.164062 86.734375 83.164062 88.058594 83.160156 C 90 83.25 90 83.25 90.75 84 C 90.804688 86.023438 90.820312 88.023438 90.796875 90.046875 C 90.792969 90.617188 90.789062 91.183594 90.785156 91.769531 C 90.777344 93.179688 90.765625 94.589844 90.75 96 C 90.007812 95.257812 90.007812 95.257812 89.25 94.5 C 89.25 91.28125 89.25 88.066406 89.25 84.75 C 65.488281 84.378906 65.488281 84.378906 41.25 84 C 41.25 83.753906 41.25 83.503906 41.25 83.25 Z M 41.25 83.25 "/>
<path style=" stroke:none;fill-rule:nonzero;fill:rgb(49.411765%,76.47059%,59.607846%);fill-opacity:1;" d="M 31.5 123.75 C 39.003906 123.734375 46.507812 123.71875 54.011719 123.710938 C 57.496094 123.707031 60.980469 123.703125 64.464844 123.695312 C 67.824219 123.683594 71.183594 123.679688 74.542969 123.679688 C 75.828125 123.675781 77.113281 123.675781 78.394531 123.671875 C 80.191406 123.664062 81.984375 123.664062 83.777344 123.664062 C 84.3125 123.664062 84.847656 123.660156 85.398438 123.65625 C 89.078125 123.664062 89.078125 123.664062 90.75 124.5 C 91.21875 126.421875 91.21875 126.421875 91.5 128.25 C 90.875 127.761719 90.246094 127.277344 89.601562 126.777344 C 86.890625 124.980469 84.65625 124.863281 81.394531 124.839844 C 80.582031 124.828125 80.582031 124.828125 79.753906 124.816406 C 77.972656 124.796875 76.199219 124.792969 74.421875 124.792969 C 73.183594 124.78125 71.945312 124.769531 70.707031 124.753906 C 67.457031 124.722656 64.210938 124.707031 60.964844 124.695312 C 57.644531 124.679688 54.328125 124.648438 51.007812 124.621094 C 44.507812 124.5625 38.003906 124.527344 31.5 124.5 C 31.5 124.253906 31.5 124.003906 31.5 123.75 Z M 31.5 123.75 "/>
<path style=" stroke:none;fill-rule:nonzero;fill:rgb(51.372552%,87.843138%,59.215689%);fill-opacity:1;" d="M 90.75 104.25 C 90.917969 106.703125 91.070312 109.15625 91.21875 111.609375 C 91.265625 112.304688 91.316406 113.003906 91.367188 113.71875 C 91.402344 114.390625 91.441406 115.058594 91.484375 115.75 C 91.523438 116.367188 91.5625 116.980469 91.601562 117.617188 C 91.5 119.25 91.5 119.25 90 121.5 C 87.65625 121.640625 87.65625 121.640625 85.5 121.5 C 86.011719 120.316406 86.011719 120.316406 86.53125 119.109375 C 87.46875 116.917969 88.375 114.71875 89.25 112.5 C 88.753906 112.5 88.261719 112.5 87.75 112.5 C 87.503906 111.511719 87.253906 110.519531 87 109.5 C 87.496094 109.253906 87.988281 109.003906 88.5 108.75 C 88.5 107.511719 88.5 106.273438 88.5 105 C 90 104.25 90 104.25 90.75 104.25 Z M 90.75 104.25 "/>
<path style=" stroke:none;fill-rule:nonzero;fill:rgb(53.725493%,85.490197%,62.7451%);fill-opacity:1;" d="M 30.75 120 C 48.570312 120.246094 66.390625 120.496094 84.75 120.75 C 84.75 120.996094 84.75 121.246094 84.75 121.5 C 78.042969 121.617188 71.332031 121.726562 64.625 121.832031 C 61.507812 121.882812 58.394531 121.933594 55.28125 121.984375 C 52.273438 122.039062 49.269531 122.085938 46.265625 122.132812 C 45.117188 122.148438 43.96875 122.167969 42.820312 122.191406 C 41.214844 122.21875 39.609375 122.242188 38.007812 122.265625 C 37.089844 122.28125 36.175781 122.296875 35.234375 122.3125 C 33 122.25 33 122.25 30.75 121.5 C 30.75 121.003906 30.75 120.511719 30.75 120 Z M 30.75 120 "/>
<path style=" stroke:none;fill-rule:nonzero;fill:rgb(92.156863%,96.078432%,96.470588%);fill-opacity:1;" d="M 138.75 91.5 C 139.492188 91.5 140.234375 91.5 141 91.5 C 141 93.234375 141 94.964844 141 96.75 C 143.226562 96.75 145.453125 96.75 147.75 96.75 C 147.75 97.738281 147.75 98.730469 147.75 99.75 C 145.523438 99.75 143.296875 99.75 141 99.75 C 141 103.214844 141 106.679688 141 110.25 C 140.753906 110.25 140.503906 110.25 140.25 110.25 C 140.25 104.308594 140.25 98.371094 140.25 92.25 C 139.753906 92.003906 139.261719 91.753906 138.75 91.5 Z M 138.75 91.5 "/>
<path style=" stroke:none;fill-rule:nonzero;fill:rgb(54.509807%,89.019608%,60.000002%);fill-opacity:1;" d="M 84.75 126 C 86.914062 126.96875 88.402344 127.996094 90 129.75 C 90.246094 129.007812 90.496094 128.265625 90.75 127.5 C 91.332031 130.054688 91.574219 132.378906 91.5 135 C 90.757812 135.371094 90.757812 135.371094 90 135.75 C 89.503906 135.007812 89.011719 134.265625 88.5 133.5 C 87.757812 133.253906 87.015625 133.003906 86.25 132.75 C 86.25 132.007812 86.25 131.265625 86.25 130.5 C 84.097656 128.921875 84.097656 128.921875 81.75 128.25 C 82.738281 128.003906 83.730469 127.753906 84.75 127.5 C 84.75 127.003906 84.75 126.511719 84.75 126 Z M 84.75 126 "/>
<path style=" stroke:none;fill-rule:nonzero;fill:rgb(98.431373%,99.215686%,99.607843%);fill-opacity:1;" d="M 138.75 92.25 C 139.246094 92.25 139.738281 92.25 140.25 92.25 C 141.210938 98.335938 140.773438 104.140625 140.25 110.25 C 139.753906 110.003906 139.261719 109.753906 138.75 109.5 C 138.75 103.808594 138.75 98.113281 138.75 92.25 Z M 138.75 92.25 "/>
<path style=" stroke:none;fill-rule:nonzero;fill:rgb(53.333336%,84.705883%,61.56863%);fill-opacity:1;" d="M 81 88.5 C 83.109375 88.3125 83.109375 88.3125 85.5 88.5 C 87.03125 90.03125 87.75 90.8125 87.75 93 C 86.78125 94.03125 85.78125 95.03125 84.75 96 C 82.894531 95.257812 82.894531 95.257812 81 94.5 C 81.988281 94.253906 82.980469 94.003906 84 93.75 C 84.246094 92.761719 84.496094 91.769531 84.75 90.75 C 83.761719 90.503906 82.769531 90.253906 81.75 90 C 81.253906 90.988281 80.761719 91.980469 80.25 93 C 80.496094 91.515625 80.746094 90.03125 81 88.5 Z M 81 88.5 "/>
<path style=" stroke:none;fill-rule:nonzero;fill:rgb(54.11765%,83.529413%,62.7451%);fill-opacity:1;" d="M 90.75 104.25 C 90.917969 106.703125 91.070312 109.15625 91.21875 111.609375 C 91.265625 112.304688 91.316406 113.003906 91.367188 113.71875 C 91.402344 114.390625 91.441406 115.058594 91.484375 115.75 C 91.523438 116.367188 91.5625 116.980469 91.601562 117.617188 C 91.5 119.25 91.5 119.25 90 121.5 C 89.257812 121.253906 88.515625 121.003906 87.75 120.75 C 87.996094 120.113281 88.238281 119.472656 88.492188 118.816406 C 89.285156 116.128906 89.425781 113.980469 89.390625 111.1875 C 89.386719 110.339844 89.382812 109.492188 89.375 108.621094 C 89.390625 106.539062 89.390625 106.539062 88.5 105 C 90 104.25 90 104.25 90.75 104.25 Z M 90.75 104.25 "/>
<path style=" stroke:none;fill-rule:nonzero;fill:rgb(52.549022%,83.92157%,60.784316%);fill-opacity:1;" d="M 79.5 109.5 C 81.480469 109.5 83.460938 109.5 85.5 109.5 C 85.5 109.996094 85.5 110.488281 85.5 111 C 84.261719 111 83.023438 111 81.75 111 C 81.949219 112.488281 81.949219 112.488281 82.5 114 C 83.242188 114.246094 83.984375 114.496094 84.75 114.75 C 84.75 115.246094 84.75 115.738281 84.75 116.25 C 82.96875 116.0625 82.96875 116.0625 81 115.5 C 79.425781 113.328125 79.5 112.289062 79.5 109.5 Z M 79.5 109.5 "/>
<path style=" stroke:none;fill-rule:nonzero;fill:rgb(53.333336%,85.490197%,59.607846%);fill-opacity:1;" d="M 90 137.25 C 90.496094 137.496094 90.988281 137.746094 91.5 138 C 91.3125 139.40625 91.3125 139.40625 90.75 141 C 89.203125 141.9375 89.203125 141.9375 87.75 142.5 C 87.75 142.003906 87.75 141.511719 87.75 141 C 84.039062 141 80.324219 141 76.5 141 C 76.5 140.753906 76.5 140.503906 76.5 140.25 C 80.953125 140.003906 85.410156 139.753906 90 139.5 C 90 138.757812 90 138.015625 90 137.25 Z M 90 137.25 "/>
<path style=" stroke:none;fill-rule:nonzero;fill:rgb(91.37255%,96.862745%,96.862745%);fill-opacity:1;" d="M 111 96.75 C 110.753906 97.246094 110.503906 97.738281 110.25 98.25 C 110.746094 98.746094 111.238281 99.238281 111.75 99.75 C 109.25 99.75 106.75 99.75 104.25 99.75 C 103.507812 99.996094 102.765625 100.246094 102 100.5 C 102 100.003906 102 99.511719 102 99 C 104.980469 96.652344 107.28125 96.53125 111 96.75 Z M 111 96.75 "/>
<path style=" stroke:none;fill-rule:nonzero;fill:rgb(92.156863%,97.647059%,98.431373%);fill-opacity:1;" d="M 180.75 96.75 C 181.492188 96.75 182.234375 96.75 183 96.75 C 183.246094 98.234375 183.496094 99.71875 183.75 101.25 C 182.761719 101.25 181.769531 101.25 180.75 101.25 C 180.464844 100.007812 180.214844 98.757812 180 97.5 C 180.246094 97.253906 180.496094 97.003906 180.75 96.75 Z M 180.75 96.75 "/>
<path style=" stroke:none;fill-rule:nonzero;fill:rgb(50.980395%,80.784315%,62.352943%);fill-opacity:1;" d="M 84.75 123.75 C 89.0625 123.65625 89.0625 123.65625 90.75 124.5 C 91.21875 126.421875 91.21875 126.421875 91.5 128.25 C 89.25 126.75 87 125.25 84.75 123.75 Z M 84.75 123.75 "/>
<path style=" stroke:none;fill-rule:nonzero;fill:rgb(52.549022%,85.09804%,60.000002%);fill-opacity:1;" d="M 87 134.25 C 86.503906 135.488281 86.011719 136.726562 85.5 138 C 84.511719 137.503906 83.519531 137.011719 82.5 136.5 C 82.5 136.003906 82.5 135.511719 82.5 135 C 84.75 134.25 84.75 134.25 87 134.25 Z M 87 134.25 "/>
<path style=" stroke:none;fill-rule:nonzero;fill:rgb(67.058825%,80.392158%,82.352942%);fill-opacity:1;" d="M 162.75 129 C 163.492188 129 164.234375 129 165 129 C 165 129.496094 165 129.988281 165 130.5 C 164.257812 130.5 163.515625 130.5 162.75 130.5 C 162.75 130.003906 162.75 129.511719 162.75 129 Z M 162.75 129 "/>
<path style=" stroke:none;fill-rule:nonzero;fill:rgb(63.921571%,81.960785%,83.92157%);fill-opacity:1;" d="M 174 129 C 174.742188 129 175.484375 129 176.25 129 C 176.25 129.496094 176.25 129.988281 176.25 130.5 C 175.507812 130.5 174.765625 130.5 174 130.5 C 174 130.003906 174 129.511719 174 129 Z M 174 129 "/>
<path style=" stroke:none;fill-rule:nonzero;fill:rgb(62.352943%,76.078433%,77.64706%);fill-opacity:1;" d="M 134.25 129 C 134.992188 129 135.734375 129 136.5 129 C 136.5 129.496094 136.5 129.988281 136.5 130.5 C 135.757812 130.5 135.015625 130.5 134.25 130.5 C 134.25 130.003906 134.25 129.511719 134.25 129 Z M 134.25 129 "/>
<path style=" stroke:none;fill-rule:nonzero;fill:rgb(59.215689%,73.333335%,69.01961%);fill-opacity:1;" d="M 125.25 129 C 125.992188 129 126.734375 129 127.5 129 C 127.5 129.496094 127.5 129.988281 127.5 130.5 C 126.757812 130.5 126.015625 130.5 125.25 130.5 C 125.25 130.003906 125.25 129.511719 125.25 129 Z M 125.25 129 "/>
<path style=" stroke:none;fill-rule:nonzero;fill:rgb(75.686276%,86.666667%,87.058824%);fill-opacity:1;" d="M 177 128.25 C 177.742188 128.621094 177.742188 128.621094 178.5 129 C 178.5 129.496094 178.5 129.988281 178.5 130.5 C 178.003906 130.5 177.511719 130.5 177 130.5 C 177 129.757812 177 129.015625 177 128.25 Z M 177 128.25 "/>
<path style=" stroke:none;fill-rule:nonzero;fill:rgb(64.313728%,85.490197%,85.882354%);fill-opacity:1;" d="M 166.5 128.25 C 166.746094 128.992188 166.996094 129.734375 167.25 130.5 C 166.753906 130.5 166.261719 130.5 165.75 130.5 C 165.996094 129.757812 166.246094 129.015625 166.5 128.25 Z M 166.5 128.25 "/>
<path style=" stroke:none;fill-rule:nonzero;fill:rgb(68.235296%,79.215688%,76.47059%);fill-opacity:1;" d="M 131.25 128.25 C 131.496094 128.992188 131.746094 129.734375 132 130.5 C 131.503906 130.5 131.011719 130.5 130.5 130.5 C 130.746094 129.757812 130.996094 129.015625 131.25 128.25 Z M 131.25 128.25 "/>
<path style=" stroke:none;fill-rule:nonzero;fill:rgb(77.64706%,90.196079%,94.117647%);fill-opacity:1;" d="M 192 129 C 192.496094 129 192.988281 129 193.5 129 C 193.5 129.496094 193.5 129.988281 193.5 130.5 C 193.003906 130.5 192.511719 130.5 192 130.5 C 192 130.003906 192 129.511719 192 129 Z M 192 129 "/>
<path style=" stroke:none;fill-rule:nonzero;fill:rgb(73.725492%,85.490197%,85.490197%);fill-opacity:1;" d="M 183 129 C 183.496094 129 183.988281 129 184.5 129 C 184.5 129.496094 184.5 129.988281 184.5 130.5 C 184.003906 130.5 183.511719 130.5 183 130.5 C 183 130.003906 183 129.511719 183 129 Z M 183 129 "/>
<path style=" stroke:none;fill-rule:nonzero;fill:rgb(74.901962%,85.882354%,85.490197%);fill-opacity:1;" d="M 180.75 129 C 181.246094 129 181.738281 129 182.25 129 C 182.25 129.496094 182.25 129.988281 182.25 130.5 C 181.753906 130.5 181.261719 130.5 180.75 130.5 C 180.75 130.003906 180.75 129.511719 180.75 129 Z M 180.75 129 "/>
<path style=" stroke:none;fill-rule:nonzero;fill:rgb(66.666669%,79.215688%,81.960785%);fill-opacity:1;" d="M 171.75 129 C 172.246094 129 172.738281 129 173.25 129 C 173.25 129.496094 173.25 129.988281 173.25 130.5 C 172.753906 130.5 172.261719 130.5 171.75 130.5 C 171.75 130.003906 171.75 129.511719 171.75 129 Z M 171.75 129 "/>
<path style=" stroke:none;fill-rule:nonzero;fill:rgb(69.01961%,80.000001%,82.745099%);fill-opacity:1;" d="M 160.5 129 C 160.996094 129 161.488281 129 162 129 C 162 129.496094 162 129.988281 162 130.5 C 161.503906 130.5 161.011719 130.5 160.5 130.5 C 160.5 130.003906 160.5 129.511719 160.5 129 Z M 160.5 129 "/>
<path style=" stroke:none;fill-rule:nonzero;fill:rgb(70.588237%,82.745099%,84.705883%);fill-opacity:1;" d="M 158.25 129 C 158.746094 129 159.238281 129 159.75 129 C 159.75 129.496094 159.75 129.988281 159.75 130.5 C 159.253906 130.5 158.761719 130.5 158.25 130.5 C 158.25 130.003906 158.25 129.511719 158.25 129 Z M 158.25 129 "/>
<path style=" stroke:none;fill-rule:nonzero;fill:rgb(65.882355%,79.607844%,82.745099%);fill-opacity:1;" d="M 153.75 129 C 154.246094 129 154.738281 129 155.25 129 C 155.25 129.496094 155.25 129.988281 155.25 130.5 C 154.753906 130.5 154.261719 130.5 153.75 130.5 C 153.75 130.003906 153.75 129.511719 153.75 129 Z M 153.75 129 "/>
<path style=" stroke:none;fill-rule:nonzero;fill:rgb(65.098041%,79.215688%,81.568629%);fill-opacity:1;" d="M 145.5 129 C 145.996094 129 146.488281 129 147 129 C 147 129.496094 147 129.988281 147 130.5 C 146.503906 130.5 146.011719 130.5 145.5 130.5 C 145.5 130.003906 145.5 129.511719 145.5 129 Z M 145.5 129 "/>
<path style=" stroke:none;fill-rule:nonzero;fill:rgb(67.058825%,80.392158%,82.745099%);fill-opacity:1;" d="M 139.5 129 C 139.996094 129 140.488281 129 141 129 C 141 129.496094 141 129.988281 141 130.5 C 140.503906 130.5 140.011719 130.5 139.5 130.5 C 139.5 130.003906 139.5 129.511719 139.5 129 Z M 139.5 129 "/>
<path style=" stroke:none;fill-rule:nonzero;fill:rgb(64.705884%,78.431374%,80.784315%);fill-opacity:1;" d="M 137.25 129 C 137.746094 129 138.238281 129 138.75 129 C 138.75 129.496094 138.75 129.988281 138.75 130.5 C 138.253906 130.5 137.761719 130.5 137.25 130.5 C 137.25 130.003906 137.25 129.511719 137.25 129 Z M 137.25 129 "/>
<path style=" stroke:none;fill-rule:nonzero;fill:rgb(60.392159%,73.725492%,69.411767%);fill-opacity:1;" d="M 128.25 129 C 128.746094 129 129.238281 129 129.75 129 C 129.75 129.496094 129.75 129.988281 129.75 130.5 C 129.253906 130.5 128.761719 130.5 128.25 130.5 C 128.25 130.003906 128.25 129.511719 128.25 129 Z M 128.25 129 "/>
<path style=" stroke:none;fill-rule:nonzero;fill:rgb(63.921571%,78.039217%,73.333335%);fill-opacity:1;" d="M 121.5 129 C 121.996094 129 122.488281 129 123 129 C 123 129.496094 123 129.988281 123 130.5 C 122.503906 130.5 122.011719 130.5 121.5 130.5 C 121.5 130.003906 121.5 129.511719 121.5 129 Z M 121.5 129 "/>
<path style=" stroke:none;fill-rule:nonzero;fill:rgb(63.529414%,79.215688%,80.392158%);fill-opacity:1;" d="M 111.75 129 C 112.246094 129.496094 112.738281 129.988281 113.25 130.5 C 112.507812 130.253906 111.765625 130.003906 111 129.75 C 111.246094 129.503906 111.496094 129.253906 111.75 129 Z M 111.75 129 "/>
<path style=" stroke:none;fill-rule:nonzero;fill:rgb(65.882355%,79.607844%,82.745099%);fill-opacity:1;" d="M 107.25 129 C 107.746094 129 108.238281 129 108.75 129 C 108.75 129.496094 108.75 129.988281 108.75 130.5 C 108.253906 130.5 107.761719 130.5 107.25 130.5 C 107.25 130.003906 107.25 129.511719 107.25 129 Z M 107.25 129 "/>
<path style=" stroke:none;fill-rule:nonzero;fill:rgb(60.784316%,75.686276%,75.686276%);fill-opacity:1;" d="M 102.75 129 C 103.246094 129 103.738281 129 104.25 129 C 104.25 129.496094 104.25 129.988281 104.25 130.5 C 103.753906 130.5 103.261719 130.5 102.75 130.5 C 102.75 130.003906 102.75 129.511719 102.75 129 Z M 102.75 129 "/>
<path style=" stroke:none;fill-rule:nonzero;fill:rgb(68.627453%,81.568629%,82.352942%);fill-opacity:1;" d="M 168 129 C 168.496094 129 168.988281 129 169.5 129 C 169.5 129.496094 169.5 129.988281 169.5 130.5 C 169.003906 130.5 168.511719 130.5 168 130.5 C 168 130.003906 168 129.511719 168 129 Z M 168 129 "/>
<path style=" stroke:none;fill-rule:nonzero;fill:rgb(63.529414%,76.862746%,79.215688%);fill-opacity:1;" d="M 147.75 129 C 148.246094 129 148.738281 129 149.25 129 C 149.25 129.496094 149.25 129.988281 149.25 130.5 C 148.753906 130.5 148.261719 130.5 147.75 130.5 C 147.75 130.003906 147.75 129.511719 147.75 129 Z M 147.75 129 "/>
<path style=" stroke:none;fill-rule:nonzero;fill:rgb(63.137257%,78.431374%,78.431374%);fill-opacity:1;" d="M 105 129 C 105.496094 129 105.988281 129 106.5 129 C 106.5 129.496094 106.5 129.988281 106.5 130.5 C 106.003906 130.5 105.511719 130.5 105 130.5 C 105 130.003906 105 129.511719 105 129 Z M 105 129 "/>
<path style=" stroke:none;fill-rule:nonzero;fill:rgb(68.627453%,80.392158%,85.882354%);fill-opacity:1;" d="M 156 129 C 156.742188 129.371094 156.742188 129.371094 157.5 129.75 C 156.757812 130.121094 156.757812 130.121094 156 130.5 C 156 130.003906 156 129.511719 156 129 Z M 156 129 "/>
<path style=" stroke:none;fill-rule:nonzero;fill:rgb(63.921571%,79.215688%,81.176472%);fill-opacity:1;" d="M 143.25 129 C 143.992188 129.371094 143.992188 129.371094 144.75 129.75 C 144.007812 130.121094 144.007812 130.121094 143.25 130.5 C 143.25 130.003906 143.25 129.511719 143.25 129 Z M 143.25 129 "/>
<path style=" stroke:none;fill-rule:nonzero;fill:rgb(65.882355%,75.294119%,76.078433%);fill-opacity:1;" d="M 116.25 129 C 116.746094 129.496094 117.238281 129.988281 117.75 130.5 C 117.253906 130.5 116.761719 130.5 116.25 130.5 C 116.25 130.003906 116.25 129.511719 116.25 129 Z M 116.25 129 "/>
<path style=" stroke:none;fill-rule:nonzero;fill:rgb(61.960787%,75.294119%,79.215688%);fill-opacity:1;" d="M 100.5 129 C 101.242188 129.371094 101.242188 129.371094 102 129.75 C 101.257812 130.121094 101.257812 130.121094 100.5 130.5 C 100.5 130.003906 100.5 129.511719 100.5 129 Z M 100.5 129 "/>
<path style=" stroke:none;fill-rule:nonzero;fill:rgb(78.823531%,90.196079%,90.196079%);fill-opacity:1;" d="M 187.5 129 C 188.242188 129.371094 188.242188 129.371094 189 129.75 C 188.257812 130.121094 188.257812 130.121094 187.5 130.5 C 187.5 130.003906 187.5 129.511719 187.5 129 Z M 187.5 129 "/>
<path style=" stroke:none;fill-rule:nonzero;fill:rgb(76.078433%,87.843138%,89.803922%);fill-opacity:1;" d="M 185.25 129 C 185.746094 129 186.238281 129 186.75 129 C 186.503906 129.496094 186.253906 129.988281 186 130.5 C 185.753906 130.003906 185.503906 129.511719 185.25 129 Z M 185.25 129 "/>
<path style=" stroke:none;fill-rule:nonzero;fill:rgb(63.137257%,77.64706%,79.607844%);fill-opacity:1;" d="M 151.5 129 C 152.242188 129.371094 152.242188 129.371094 153 129.75 C 152.257812 130.121094 152.257812 130.121094 151.5 130.5 C 151.5 130.003906 151.5 129.511719 151.5 129 Z M 151.5 129 "/>
</g>
</svg>
