<?xml version="1.0" encoding="UTF-8"?>
<svg version="1.1" xmlns="http://www.w3.org/2000/svg" width="300" height="300">
<path d="M0 0 C1.59751075 0.03302091 3.195087 0.06299897 4.79270935 0.09008789 C8.96753225 0.16958117 13.13996547 0.29273355 17.31341553 0.42462158 C20.735807 0.52548433 24.15851101 0.59554127 27.58168125 0.66403198 C34.63661809 0.80552253 41.6913509 0.96631541 48.74438477 1.18359375 C50.61441917 1.23858032 50.61441917 1.23858032 52.52223206 1.29467773 C55.30859375 1.5 55.30859375 1.5 56.30859375 2.5 C56.60212828 5.23669066 56.82497717 7.94279008 56.99609375 10.6875 C57.05603516 11.44353516 57.11597656 12.19957031 57.17773438 12.97851562 C57.22478516 13.72166016 57.27183594 14.46480469 57.3203125 15.23046875 C57.38931763 16.24210083 57.38931763 16.24210083 57.4597168 17.27416992 C57.2600771 20.21458213 56.26924305 22.72548644 55.30859375 25.5 C45.17320298 25.52313729 35.03781846 25.54092219 24.90240669 25.55181217 C20.19648432 25.55703795 15.49057997 25.5641301 10.78466797 25.57543945 C6.24595843 25.58627912 1.70726625 25.59227914 -2.83145523 25.59487724 C-4.56586099 25.59672954 -6.30026576 25.60034643 -8.03466415 25.60573006 C-10.45786366 25.61295478 -12.88099073 25.61399033 -15.30419922 25.61352539 C-16.02636627 25.61712067 -16.74853333 25.62071594 -17.49258423 25.62442017 C-22.46330193 25.61405216 -22.46330193 25.61405216 -24.69140625 24.5 C-24.69140625 20.54 -24.69140625 16.58 -24.69140625 12.5 C-25.35140625 12.5 -26.01140625 12.5 -26.69140625 12.5 C-27.03159673 9.38604076 -27.08433436 7.99142702 -25.0907135 5.49804688 C-17.03369683 -0.58652462 -9.60078015 -0.3521345 0 0 Z M-15.69140625 10.5 C-15.69140625 12.48 -15.69140625 14.46 -15.69140625 16.5 C-0.84140625 16.5 14.00859375 16.5 29.30859375 16.5 C29.30859375 14.52 29.30859375 12.54 29.30859375 10.5 C14.45859375 10.5 -0.39140625 10.5 -15.69140625 10.5 Z M44.30859375 10.5 C43.97859375 11.82 43.64859375 13.14 43.30859375 14.5 C45.28859375 15.49 45.28859375 15.49 47.30859375 16.5 C47.96859375 15.84 48.62859375 15.18 49.30859375 14.5 C48.99007605 12.39179203 48.99007605 12.39179203 48.30859375 10.5 C46.98859375 10.5 45.66859375 10.5 44.30859375 10.5 Z " fill="#7FDB92" transform="translate(64.69140625,109.5)"/>
<path d="M0 0 C1.1221566 -0.00262848 1.1221566 -0.00262848 2.26698303 -0.00531006 C4.74637148 -0.00972079 7.22568892 -0.00679331 9.70507812 -0.00341797 C11.42378757 -0.00409123 13.14249693 -0.00506144 14.86120605 -0.00631714 C18.4659109 -0.00779306 22.07059099 -0.00564295 25.67529297 -0.00097656 C30.3025586 0.00472066 34.92976623 0.00144109 39.55702972 -0.00454903 C43.10683634 -0.00815749 46.65662913 -0.00701473 50.20643616 -0.00442123 C51.91292833 -0.00375276 53.61942175 -0.00457764 55.32591248 -0.00690079 C57.70819435 -0.00943197 60.09038146 -0.00558011 62.47265625 0 C63.18233047 -0.00202423 63.8920047 -0.00404846 64.6231842 -0.00613403 C69.50779907 0.01513 69.50779907 0.01513 71.73632812 1.12939453 C72.23589188 4.17673346 72.54457688 7.05701659 72.73632812 10.12939453 C72.85234375 11.69367188 72.85234375 11.69367188 72.97070312 13.28955078 C73.01710938 14.35044922 73.06351562 15.41134766 73.11132812 16.50439453 C73.1603125 17.50212891 73.20929688 18.49986328 73.25976562 19.52783203 C72.73632812 22.12939453 72.73632812 22.12939453 70.6741333 23.77545166 C67.09271058 25.4260178 64.06479982 25.49764947 60.20800781 25.39404297 C59.46761261 25.38633377 58.72721741 25.37862457 57.96438599 25.37068176 C55.52852998 25.3415156 53.0936765 25.2904748 50.65820312 25.23876953 C48.96382375 25.21326021 47.2694257 25.18896508 45.57501221 25.16583252 C42.03090223 25.11434488 38.48716201 25.05285871 34.94335938 24.98339844 C30.39136012 24.89431762 25.83930977 24.82296592 21.2869072 24.75811386 C16.95223206 24.69549765 12.61772609 24.62353587 8.28320312 24.55126953 C7.45190636 24.53831596 6.62060959 24.5253624 5.76412201 24.5120163 C3.42497279 24.47399559 1.08605534 24.4292658 -1.25292969 24.38232422 C-1.95213531 24.37185562 -2.65134094 24.36138702 -3.37173462 24.3506012 C-8.14895554 24.24411086 -8.14895554 24.24411086 -9.26367188 23.12939453 C-9.3506753 21.49466571 -9.3706825 19.85625398 -9.36132812 18.21923828 C-9.35810547 17.22988281 -9.35488281 16.24052734 -9.3515625 15.22119141 C-9.34318359 14.18027344 -9.33480469 13.13935547 -9.32617188 12.06689453 C-9.32166016 11.02210938 -9.31714844 9.97732422 -9.3125 8.90087891 C-9.300671 6.31032793 -9.28418877 3.71988895 -9.26367188 1.12939453 C-6.29004262 -0.35742009 -3.26000005 -0.00929862 0 0 Z M-0.26367188 9.12939453 C-0.26367188 11.10939453 -0.26367188 13.08939453 -0.26367188 15.12939453 C5.03017418 16.01068119 10.11709439 16.27630035 15.47851562 16.26220703 C16.28749298 16.26316376 17.09647034 16.26412048 17.92996216 16.2651062 C19.62583495 16.26578256 21.3217104 16.26396652 23.01757812 16.25976562 C25.62440697 16.25436745 28.23106679 16.2597504 30.83789062 16.26611328 C32.48893267 16.26545322 34.13997462 16.26417357 35.79101562 16.26220703 C36.57322479 16.26423126 37.35543396 16.26625549 38.16134644 16.26834106 C41.74497284 16.58758433 41.74497284 16.58758433 44.73632812 15.12939453 C44.73632812 13.14939453 44.73632812 11.16939453 44.73632812 9.12939453 C29.88632813 9.12939453 15.03632812 9.12939453 -0.26367188 9.12939453 Z M60.73632812 9.12939453 C59.6279639 11.01255612 59.6279639 11.01255612 58.73632812 13.12939453 C59.06632812 13.78939453 59.39632812 14.44939453 59.73632812 15.12939453 C61.38632813 14.79939453 63.03632812 14.46939453 64.73632812 14.12939453 C64.46956609 12.14447811 64.46956609 12.14447811 63.73632812 10.12939453 C62.74632813 9.79939453 61.75632812 9.46939453 60.73632812 9.12939453 Z " fill="#82DF94" transform="translate(49.263671875,164.87060546875)"/>
<path d="M0 0 C1.1221566 -0.00262848 1.1221566 -0.00262848 2.26698303 -0.00531006 C4.74637148 -0.00972079 7.22568892 -0.00679331 9.70507812 -0.00341797 C11.42378757 -0.00409123 13.14249693 -0.00506144 14.86120605 -0.00631714 C18.4659109 -0.00779306 22.07059099 -0.00564295 25.67529297 -0.00097656 C30.3025586 0.00472066 34.92976623 0.00144109 39.55702972 -0.00454903 C43.10683634 -0.00815749 46.65662913 -0.00701473 50.20643616 -0.00442123 C51.91292833 -0.00375276 53.61942175 -0.00457764 55.32591248 -0.00690079 C57.70819435 -0.00943197 60.09038146 -0.00558011 62.47265625 0 C63.18233047 -0.00202423 63.8920047 -0.00404846 64.6231842 -0.00613403 C69.50779907 0.01513 69.50779907 0.01513 71.73632812 1.12939453 C71.96220586 4.39926488 72.16399418 7.67018734 72.36132812 10.94189453 C72.42578125 11.87066406 72.49023438 12.79943359 72.55664062 13.75634766 C72.60820313 14.64902344 72.65976563 15.54169922 72.71289062 16.46142578 C72.76525879 17.28360596 72.81762695 18.10578613 72.87158203 18.95288086 C72.73632812 21.12939453 72.73632812 21.12939453 70.73632812 24.12939453 C68.27719339 24.45649047 66.06161006 24.58746945 63.59619141 24.59350586 C62.49348404 24.61361221 62.49348404 24.61361221 61.36849976 24.63412476 C58.93117946 24.67460711 56.49422339 24.69348534 54.05664062 24.71142578 C52.36512953 24.73334672 50.67363132 24.75628396 48.98214722 24.78019714 C45.43295671 24.82712506 41.88385331 24.86374912 38.33447266 24.89282227 C33.78556666 24.93061299 29.23729176 24.99060811 24.68873787 25.05794239 C21.19382951 25.10776828 17.69886447 25.14739605 14.20379257 25.18378258 C12.52683121 25.20216235 10.84989808 25.22333803 9.17300797 25.24735451 C6.82705445 25.27909918 4.4813678 25.29750968 2.13525391 25.31225586 C1.0955545 25.32999809 1.0955545 25.32999809 0.03485107 25.34809875 C-3.90043793 25.35624622 -5.60881057 24.95682518 -9.26367188 23.12939453 C-9.26367188 15.86939453 -9.26367188 8.60939453 -9.26367188 1.12939453 C-6.29004262 -0.35742009 -3.26000005 -0.00929862 0 0 Z M-0.26367188 9.12939453 C-0.26367188 11.10939453 -0.26367188 13.08939453 -0.26367188 15.12939453 C4.82825099 16.16425087 9.68580153 16.2594942 14.85351562 16.22705078 C15.71067169 16.22563583 16.56782776 16.22422089 17.45095825 16.22276306 C20.17111802 16.21719475 22.89119351 16.20464817 25.61132812 16.19189453 C27.46288943 16.18687543 29.31445204 16.18231324 31.16601562 16.17822266 C35.68948528 16.16723571 40.21289244 16.14999305 44.73632812 16.12939453 C44.73632812 13.81939453 44.73632812 11.50939453 44.73632812 9.12939453 C29.88632813 9.12939453 15.03632812 9.12939453 -0.26367188 9.12939453 Z M61.73632812 9.12939453 C60.74632813 10.11939453 59.75632812 11.10939453 58.73632812 12.12939453 C59.72632812 13.61439453 59.72632812 13.61439453 60.73632812 15.12939453 C62.05632812 14.79939453 63.37632813 14.46939453 64.73632812 14.12939453 C64.38846104 12.15402708 64.38846104 12.15402708 63.73632812 10.12939453 C63.07632813 9.79939453 62.41632813 9.46939453 61.73632812 9.12939453 Z " fill="#80DD92" transform="translate(49.263671875,137.87060546875)"/>
<path d="M0 0 C0.99 0 1.98 0 3 0 C3 11.55 3 23.1 3 35 C0.426671 36.2866645 -1.50223038 36.16824551 -4.375 36.1875 C-5.33148438 36.20167969 -6.28796875 36.21585938 -7.2734375 36.23046875 C-11.11030051 35.90614938 -13.18111006 34.90662815 -15.75 32.0625 C-17.80262135 27.03357768 -18.14254801 20.88670317 -16.1171875 15.76953125 C-14.46620152 13.154508 -12.81601887 12.25156394 -10 11 C-6.24064683 10.74073426 -3.57634313 10.80788562 0 12 C0 8.04 0 4.08 0 0 Z M-9.875 15.3125 C-11.86478763 16.82678566 -11.86478763 16.82678566 -13 18 C-13.23875423 20.22831353 -13.23875423 20.22831353 -13.25 22.8125 C-13.27578125 23.68519531 -13.3015625 24.55789062 -13.328125 25.45703125 C-12.93242063 28.52374008 -12.18498609 29.82974416 -10 32 C-6.69946528 33.07839253 -3.17496494 33.58748247 0 32 C0 26.72 0 21.44 0 16 C-6.40269916 13.35139846 -6.40269916 13.35139846 -9.875 15.3125 Z " fill="#F3FCFC" transform="translate(151,118)"/>
<path d="M0 0 C2.50160818 1.87620613 3.61945652 3.23891303 5 6 C5.08308638 7.37548156 5.10736016 8.75485796 5.09765625 10.1328125 C5.09443359 10.93847656 5.09121094 11.74414062 5.08789062 12.57421875 C5.07951172 13.41597656 5.07113281 14.25773438 5.0625 15.125 C5.05798828 15.97449219 5.05347656 16.82398438 5.04882812 17.69921875 C5.03702874 19.79950909 5.01909306 21.8997633 5 24 C2.31432703 25.34283649 0.12253147 25.24287519 -2.875 25.3125 C-3.92429688 25.34988281 -4.97359375 25.38726562 -6.0546875 25.42578125 C-9.69779903 24.89912454 -10.81360846 23.91001995 -13 21 C-13.5625 17.5 -13.5625 17.5 -13 14 C-11.0625 11.5625 -11.0625 11.5625 -8 10 C-4.96719442 9.69063354 -2.03580379 9.76189774 1 10 C0.37466625 7.47636012 0.37466625 7.47636012 -1 5 C-3.33696961 4.14874817 -3.33696961 4.14874817 -6 4 C-7.66666667 3.66666667 -9.33333333 3.33333333 -11 3 C-11 2.34 -11 1.68 -11 1 C-7.55258453 -0.72370774 -3.76964661 -0.50306672 0 0 Z M-9 15 C-9.5 17.5 -9.5 17.5 -9 20 C-5.55892734 22.29404844 -4.03160191 22.26293056 0 22 C1.40432936 20.82281015 1.40432936 20.82281015 1.125 17.5 C1.40432936 14.17718985 1.40432936 14.17718985 0 13 C-4.03160191 12.73706944 -5.55892734 12.70595156 -9 15 Z " fill="#F2FCFC" transform="translate(173,129)"/>
<path d="M0 0 C0.99 0 1.98 0 3 0 C5.31 6.27 7.62 12.54 10 19 C11.98 12.73 13.96 6.46 16 0 C16.99 0 17.98 0 19 0 C18.40459553 11.31268493 14.76468643 22.85853185 8 32 C4.78548731 33.60725635 1.56387464 33.05748185 -2 33 C-1.375 31.0625 -1.375 31.0625 0 29 C3.125 28.25 3.125 28.25 6 28 C7.55222237 23.23566427 6.27277321 20.61687424 4.1875 16.1875 C1.90315394 11.17716327 -0.03969089 6.44175164 -1 1 C-0.67 0.67 -0.34 0.34 0 0 Z " fill="#F3FBFB" transform="translate(241,129)"/>
<path d="M0 0 C2.73828125 1.3828125 2.73828125 1.3828125 5 4 C5.64330682 7.41306831 5.51619195 10.72829716 5.375 14.1875 C5.35373047 15.5787207 5.35373047 15.5787207 5.33203125 16.99804688 C5.18236958 23.81763042 5.18236958 23.81763042 4 25 C-1.64218218 25.60575576 -6.4104206 25.98973811 -11.3125 22.9375 C-13 20 -13 20 -13.125 16.375 C-12 13 -12 13 -10 11.0625 C-5.94015168 9.62463705 -2.26168837 9.74931245 2 10 C1.45291273 7.46255685 1.45291273 7.46255685 0 5 C-3.46257138 4.02144722 -6.39210397 4 -10 4 C-10 3.01 -10 2.02 -10 1 C-6.85154494 -0.57422753 -3.40781928 -0.66928343 0 0 Z M-7.375 15 C-7.91125 15.66 -8.4475 16.32 -9 17 C-7.77992056 19.6905528 -7.77992056 19.6905528 -6 22 C-2.5 22.16666667 -2.5 22.16666667 1 22 C2.40432936 20.82281015 2.40432936 20.82281015 2.125 17.5 C2.40432936 14.17718985 2.40432936 14.17718985 1 13 C-2.80800122 12.57688875 -4.38574473 12.4827324 -7.375 15 Z " fill="#F3FCFD" transform="translate(213,129)"/>
<path d="M0 0 C1.22589844 0.01353516 1.22589844 0.01353516 2.4765625 0.02734375 C3.41628906 0.04474609 3.41628906 0.04474609 4.375 0.0625 C4.375 1.3825 4.375 2.7025 4.375 4.0625 C1.405 4.0625 -1.565 4.0625 -4.625 4.0625 C-4.955 6.3725 -5.285 8.6825 -5.625 11.0625 C-2.655 11.0625 0.315 11.0625 3.375 11.0625 C3.375 12.3825 3.375 13.7025 3.375 15.0625 C0.405 15.0625 -2.565 15.0625 -5.625 15.0625 C-5.625 21.9925 -5.625 28.9225 -5.625 36.0625 C-6.945 36.0625 -8.265 36.0625 -9.625 36.0625 C-9.69941989 31.88162848 -9.75372818 27.7011127 -9.78979492 23.51977539 C-9.8048376 22.09880859 -9.82527704 20.67788787 -9.85131836 19.25708008 C-9.88790347 17.20903114 -9.90477097 15.1615985 -9.91796875 13.11328125 C-9.9336792 11.88262939 -9.94938965 10.65197754 -9.96557617 9.3840332 C-9.59637159 5.78329609 -8.79418163 3.92716457 -6.625 1.0625 C-4.21954362 -0.14022819 -2.67503047 -0.03821472 0 0 Z " fill="#F0FAFB" transform="translate(234.625,117.9375)"/>
<path d="M0 0 C0.99 0 1.98 0 3 0 C3 2.31 3 4.62 3 7 C5.97 7 8.94 7 12 7 C12 8.32 12 9.64 12 11 C9.03 11 6.06 11 3 11 C3.33 16.61 3.66 22.22 4 28 C6.97 28 9.94 28 13 28 C13 28.99 13 29.98 13 31 C9.82178465 32.58910767 6.46060271 32.40420974 3 32 C0.32568511 30.18836733 0.04079641 29.12238923 -1 26 C-1.09419688 24.0929575 -1.13071199 22.18280381 -1.1328125 20.2734375 C-1.13410156 19.1596875 -1.13539063 18.0459375 -1.13671875 16.8984375 C-1.13285156 15.73570312 -1.12898437 14.57296875 -1.125 13.375 C-1.12886719 12.20453125 -1.13273438 11.0340625 -1.13671875 9.828125 C-1.13542969 8.71695313 -1.13414062 7.60578125 -1.1328125 6.4609375 C-1.13168457 5.43790527 -1.13055664 4.41487305 -1.12939453 3.36083984 C-1 1 -1 1 0 0 Z " fill="#EDFAFC" transform="translate(185,122)"/>
<path d="M0 0 C8.45767334 -0.02312659 16.91533356 -0.0409167 25.37303066 -0.05181217 C29.29988658 -0.05704031 33.22672094 -0.06413669 37.15356445 -0.07543945 C40.94014257 -0.0862708 44.7266999 -0.09227736 48.51329231 -0.09487724 C49.96104319 -0.09673105 51.40879288 -0.10035081 52.85653496 -0.10573006 C54.87757135 -0.11294367 56.89862848 -0.11340808 58.91967773 -0.11352539 C60.64842384 -0.11685631 60.64842384 -0.11685631 62.41209412 -0.12025452 C65 0 65 0 66 1 C66.07319621 3.69654854 66.09242537 6.36691458 66.0625 9.0625 C66.05798828 9.82111328 66.05347656 10.57972656 66.04882812 11.36132812 C66.0370068 13.24091871 66.01907078 15.12046899 66 17 C65.01 16.01 65.01 16.01 64 15 C64 10.71 64 6.42 64 2 C32.32 1.505 32.32 1.505 0 1 C0 0.67 0 0.34 0 0 Z " fill="#8DD8A6" transform="translate(55,111)"/>
<path d="M0 0 C10.0050069 -0.02313763 20.01000746 -0.04092237 30.01503563 -0.05181217 C34.66042397 -0.05703788 39.30579405 -0.06412989 43.95117188 -0.07543945 C48.43152675 -0.08627939 52.91186402 -0.0922792 57.39223099 -0.09487724 C59.10430809 -0.09672949 60.81638419 -0.10034629 62.52845383 -0.10573006 C64.92052059 -0.11295514 67.31251398 -0.11399032 69.70458984 -0.11352539 C70.41740616 -0.11712067 71.13022247 -0.12071594 71.86463928 -0.12442017 C76.77189568 -0.11405216 76.77189568 -0.11405216 79 1 C79.625 3.5625 79.625 3.5625 80 6 C79.16415375 5.35125916 78.3283075 4.70251831 77.46713257 4.03411865 C73.85208913 1.63844778 70.87716773 1.48380319 66.52587891 1.45410156 C65.44191833 1.43859505 65.44191833 1.43859505 64.33605957 1.42277527 C61.9659967 1.39346065 59.59679202 1.39185059 57.2265625 1.390625 C55.57602318 1.37563559 53.92549881 1.35890684 52.2749939 1.34051514 C47.94479668 1.29691445 43.61480177 1.27685882 39.28442383 1.26177979 C34.86006748 1.24218232 30.43592878 1.20021532 26.01171875 1.16015625 C17.3412029 1.08493308 8.67077271 1.03459403 0 1 C0 0.67 0 0.34 0 0 Z " fill="#7EC398" transform="translate(42,165)"/>
<path d="M0 0 C0.22587773 3.26987035 0.42766605 6.54079281 0.625 9.8125 C0.68945312 10.74126953 0.75390625 11.67003906 0.8203125 12.62695312 C0.871875 13.51962891 0.9234375 14.41230469 0.9765625 15.33203125 C1.02893066 16.15421143 1.08129883 16.9763916 1.13525391 17.82348633 C1 20 1 20 -1 23 C-4.125 23.1875 -4.125 23.1875 -7 23 C-6.319375 21.4221875 -6.319375 21.4221875 -5.625 19.8125 C-4.37239999 16.89174547 -3.16489979 13.95705332 -2 11 C-2.66 11 -3.32 11 -4 11 C-4.33 9.68 -4.66 8.36 -5 7 C-4.34 6.67 -3.68 6.34 -3 6 C-3 4.35 -3 2.7 -3 1 C-1 0 -1 0 0 0 Z " fill="#83E097" transform="translate(121,139)"/>
<path d="M0 0 C23.76 0.33 47.52 0.66 72 1 C72 1.33 72 1.66 72 2 C63.05542306 2.15379407 54.11077599 2.30197537 45.16598797 2.4429636 C41.01270642 2.50860485 36.85947533 2.57618946 32.70629883 2.64819336 C28.69932653 2.71759136 24.69230214 2.78191327 20.6851902 2.84269524 C19.15533291 2.8667972 17.62550347 2.89273761 16.09570885 2.92053413 C13.95537035 2.95911226 11.81502675 2.99119158 9.67456055 3.02172852 C8.45544479 3.04171402 7.23632904 3.06169952 5.98027039 3.08229065 C3 3 3 3 0 2 C0 1.34 0 0.68 0 0 Z " fill="#89DAA0" transform="translate(41,160)"/>
<path d="M0 0 C0.99 0 1.98 0 3 0 C3 2.31 3 4.62 3 7 C5.97 7 8.94 7 12 7 C12 8.32 12 9.64 12 11 C9.03 11 6.06 11 3 11 C3 15.62 3 20.24 3 25 C2.67 25 2.34 25 2 25 C2 17.08 2 9.16 2 1 C1.34 0.67 0.68 0.34 0 0 Z " fill="#EBF5F6" transform="translate(185,122)"/>
<path d="M0 0 C2.88437779 1.29299694 4.87219421 2.65941363 7 5 C7.33 4.01 7.66 3.02 8 2 C8.77842938 5.40562852 9.09978121 8.50765756 9 12 C8.01 12.495 8.01 12.495 7 13 C6.34 12.01 5.68 11.02 5 10 C4.01 9.67 3.02 9.34 2 9 C2 8.01 2 7.02 2 6 C-0.8684413 3.89767656 -0.8684413 3.89767656 -4 3 C-2.68 2.67 -1.36 2.34 0 2 C0 1.34 0 0.68 0 0 Z " fill="#8BE399" transform="translate(113,168)"/>
<path d="M0 0 C0.66 0 1.32 0 2 0 C3.28162626 8.11696631 2.6976874 15.85315786 2 24 C1.34 23.67 0.68 23.34 0 23 C0 15.41 0 7.82 0 0 Z " fill="#FBFDFE" transform="translate(185,123)"/>
<path d="M0 0 C2.8125 -0.25 2.8125 -0.25 6 0 C8.04040776 2.04040776 9 3.08325244 9 6 C7.70766393 7.37310707 6.37562854 8.71034824 5 10 C2.525 9.01 2.525 9.01 0 8 C1.32 7.67 2.64 7.34 4 7 C4.33 5.68 4.66 4.36 5 3 C3.68 2.67 2.36 2.34 1 2 C0.34 3.32 -0.32 4.64 -1 6 C-0.67 4.02 -0.34 2.04 0 0 Z " fill="#88D89D" transform="translate(108,118)"/>
<path d="M0 0 C0.22587773 3.26987035 0.42766605 6.54079281 0.625 9.8125 C0.68945312 10.74126953 0.75390625 11.67003906 0.8203125 12.62695312 C0.871875 13.51962891 0.9234375 14.41230469 0.9765625 15.33203125 C1.02893066 16.15421143 1.08129883 16.9763916 1.13525391 17.82348633 C1 20 1 20 -1 23 C-1.99 22.67 -2.98 22.34 -4 22 C-3.67386719 21.14921875 -3.34773438 20.2984375 -3.01171875 19.421875 C-1.9529858 15.84098672 -1.76533696 12.97159232 -1.8125 9.25 C-1.81894531 8.12078125 -1.82539062 6.9915625 -1.83203125 5.828125 C-1.81092781 3.05031247 -1.81092781 3.05031247 -3 1 C-1 0 -1 0 0 0 Z " fill="#8AD5A0" transform="translate(121,139)"/>
<path d="M0 0 C2.64 0 5.28 0 8 0 C8 0.66 8 1.32 8 2 C6.35 2 4.7 2 3 2 C3.26676204 3.98491642 3.26676204 3.98491642 4 6 C4.99 6.33 5.98 6.66 7 7 C7 7.66 7 8.32 7 9 C4.625 8.75 4.625 8.75 2 8 C-0.09862498 5.10189884 0 3.71621139 0 0 Z " fill="#86D69B" transform="translate(106,146)"/>
<path d="M0 0 C0.66 0.33 1.32 0.66 2 1 C1.75 2.875 1.75 2.875 1 5 C-1.0625 6.25 -1.0625 6.25 -3 7 C-3 6.34 -3 5.68 -3 5 C-7.95 5 -12.9 5 -18 5 C-18 4.67 -18 4.34 -18 4 C-12.06 3.67 -6.12 3.34 0 3 C0 2.01 0 1.02 0 0 Z " fill="#88DA98" transform="translate(120,183)"/>
<path d="M0 0 C-0.33 0.66 -0.66 1.32 -1 2 C-0.34 2.66 0.32 3.32 1 4 C-2.33333333 4 -5.66666667 4 -9 4 C-9.99 4.33 -10.98 4.66 -12 5 C-12 4.34 -12 3.68 -12 3 C-8.02806853 -0.12940055 -4.95769796 -0.29162929 0 0 Z " fill="#E9F7F7" transform="translate(148,129)"/>
<path d="M0 0 C0.99 0 1.98 0 3 0 C3.33 1.98 3.66 3.96 4 6 C2.68 6 1.36 6 0 6 C-0.38218767 4.34385343 -0.71395102 2.67542976 -1 1 C-0.67 0.67 -0.34 0.34 0 0 Z " fill="#EBF9FB" transform="translate(241,129)"/>
<path d="M0 0 C5.75 -0.125 5.75 -0.125 8 1 C8.625 3.5625 8.625 3.5625 9 6 C6 4 3 2 0 0 Z " fill="#82CE9F" transform="translate(113,165)"/>
<path d="M0 0 C-0.66 1.65 -1.32 3.3 -2 5 C-3.32 4.34 -4.64 3.68 -6 3 C-6 2.34 -6 1.68 -6 1 C-3 0 -3 0 0 0 Z " fill="#86D999" transform="translate(116,179)"/>
<path d="M0 0 C0.99 0 1.98 0 3 0 C3 0.66 3 1.32 3 2 C2.01 2 1.02 2 0 2 C0 1.34 0 0.68 0 0 Z " fill="#ABCDD2" transform="translate(217,172)"/>
<path d="M0 0 C0.99 0 1.98 0 3 0 C3 0.66 3 1.32 3 2 C2.01 2 1.02 2 0 2 C0 1.34 0 0.68 0 0 Z " fill="#A3D1D6" transform="translate(232,172)"/>
<path d="M0 0 C0.99 0 1.98 0 3 0 C3 0.66 3 1.32 3 2 C2.01 2 1.02 2 0 2 C0 1.34 0 0.68 0 0 Z " fill="#9FC2C6" transform="translate(179,172)"/>
<path d="M0 0 C0.99 0 1.98 0 3 0 C3 0.66 3 1.32 3 2 C2.01 2 1.02 2 0 2 C0 1.34 0 0.68 0 0 Z " fill="#97BBB0" transform="translate(167,172)"/>
<path d="M0 0 C0.99 0.495 0.99 0.495 2 1 C2 1.66 2 2.32 2 3 C1.34 3 0.68 3 0 3 C0 2.01 0 1.02 0 0 Z " fill="#C1DDDE" transform="translate(236,171)"/>
<path d="M0 0 C0.33 0.99 0.66 1.98 1 3 C0.34 3 -0.32 3 -1 3 C-0.67 2.01 -0.34 1.02 0 0 Z " fill="#A4DADB" transform="translate(222,171)"/>
<path d="M0 0 C0.33 0.99 0.66 1.98 1 3 C0.34 3 -0.32 3 -1 3 C-0.67 2.01 -0.34 1.02 0 0 Z " fill="#AECAC3" transform="translate(175,171)"/>
<path d="M0 0 C0.66 0 1.32 0 2 0 C2 0.66 2 1.32 2 2 C1.34 2 0.68 2 0 2 C0 1.34 0 0.68 0 0 Z " fill="#C6E6F0" transform="translate(256,172)"/>
<path d="M0 0 C0.66 0 1.32 0 2 0 C2 0.66 2 1.32 2 2 C1.34 2 0.68 2 0 2 C0 1.34 0 0.68 0 0 Z " fill="#BCDADA" transform="translate(244,172)"/>
<path d="M0 0 C0.66 0 1.32 0 2 0 C2 0.66 2 1.32 2 2 C1.34 2 0.68 2 0 2 C0 1.34 0 0.68 0 0 Z " fill="#BFDBDA" transform="translate(241,172)"/>
<path d="M0 0 C0.66 0 1.32 0 2 0 C2 0.66 2 1.32 2 2 C1.34 2 0.68 2 0 2 C0 1.34 0 0.68 0 0 Z " fill="#AACAD1" transform="translate(229,172)"/>
<path d="M0 0 C0.66 0 1.32 0 2 0 C2 0.66 2 1.32 2 2 C1.34 2 0.68 2 0 2 C0 1.34 0 0.68 0 0 Z " fill="#B0CCD3" transform="translate(214,172)"/>
<path d="M0 0 C0.66 0 1.32 0 2 0 C2 0.66 2 1.32 2 2 C1.34 2 0.68 2 0 2 C0 1.34 0 0.68 0 0 Z " fill="#B4D3D8" transform="translate(211,172)"/>
<path d="M0 0 C0.66 0 1.32 0 2 0 C2 0.66 2 1.32 2 2 C1.34 2 0.68 2 0 2 C0 1.34 0 0.68 0 0 Z " fill="#A8CBD3" transform="translate(205,172)"/>
<path d="M0 0 C0.66 0 1.32 0 2 0 C2 0.66 2 1.32 2 2 C1.34 2 0.68 2 0 2 C0 1.34 0 0.68 0 0 Z " fill="#A6CAD0" transform="translate(194,172)"/>
<path d="M0 0 C0.66 0 1.32 0 2 0 C2 0.66 2 1.32 2 2 C1.34 2 0.68 2 0 2 C0 1.34 0 0.68 0 0 Z " fill="#ABCDD3" transform="translate(186,172)"/>
<path d="M0 0 C0.66 0 1.32 0 2 0 C2 0.66 2 1.32 2 2 C1.34 2 0.68 2 0 2 C0 1.34 0 0.68 0 0 Z " fill="#A5C8CE" transform="translate(183,172)"/>
<path d="M0 0 C0.66 0 1.32 0 2 0 C2 0.66 2 1.32 2 2 C1.34 2 0.68 2 0 2 C0 1.34 0 0.68 0 0 Z " fill="#9ABCB1" transform="translate(171,172)"/>
<path d="M0 0 C0.66 0 1.32 0 2 0 C2 0.66 2 1.32 2 2 C1.34 2 0.68 2 0 2 C0 1.34 0 0.68 0 0 Z " fill="#A3C7BB" transform="translate(162,172)"/>
<path d="M0 0 C0.66 0.66 1.32 1.32 2 2 C1.01 1.67 0.02 1.34 -1 1 C-0.67 0.67 -0.34 0.34 0 0 Z " fill="#A2CACD" transform="translate(149,172)"/>
<path d="M0 0 C0.66 0 1.32 0 2 0 C2 0.66 2 1.32 2 2 C1.34 2 0.68 2 0 2 C0 1.34 0 0.68 0 0 Z " fill="#A8CBD3" transform="translate(143,172)"/>
<path d="M0 0 C0.66 0 1.32 0 2 0 C2 0.66 2 1.32 2 2 C1.34 2 0.68 2 0 2 C0 1.34 0 0.68 0 0 Z " fill="#9BC1C1" transform="translate(137,172)"/>
<path d="M0 0 C0.66 0 1.32 0 2 0 C2 0.66 2 1.32 2 2 C1.34 2 0.68 2 0 2 C0 1.34 0 0.68 0 0 Z " fill="#AFD0D2" transform="translate(224,172)"/>
<path d="M0 0 C0.66 0 1.32 0 2 0 C2 0.66 2 1.32 2 2 C1.34 2 0.68 2 0 2 C0 1.34 0 0.68 0 0 Z " fill="#A2C4CA" transform="translate(197,172)"/>
<path d="M0 0 C0.66 0 1.32 0 2 0 C2 0.66 2 1.32 2 2 C1.34 2 0.68 2 0 2 C0 1.34 0 0.68 0 0 Z " fill="#A1C8C8" transform="translate(140,172)"/>
<path d="M0 0 C0.99 0.495 0.99 0.495 2 1 C1.01 1.495 1.01 1.495 0 2 C0 1.34 0 0.68 0 0 Z " fill="#AFCDDB" transform="translate(208,172)"/>
<path d="M0 0 C0.99 0.495 0.99 0.495 2 1 C1.01 1.495 1.01 1.495 0 2 C0 1.34 0 0.68 0 0 Z " fill="#A3CACF" transform="translate(191,172)"/>
<path d="M0 0 C0.66 0.66 1.32 1.32 2 2 C1.34 2 0.68 2 0 2 C0 1.34 0 0.68 0 0 Z " fill="#A8C0C2" transform="translate(155,172)"/>
<path d="M0 0 C0.99 0.495 0.99 0.495 2 1 C1.01 1.495 1.01 1.495 0 2 C0 1.34 0 0.68 0 0 Z " fill="#9EC0CA" transform="translate(134,172)"/>
<path d="M0 0 C0.99 0.495 0.99 0.495 2 1 C1.01 1.495 1.01 1.495 0 2 C0 1.34 0 0.68 0 0 Z " fill="#C9E6E6" transform="translate(250,172)"/>
<path d="M0 0 C0.66 0 1.32 0 2 0 C1.67 0.66 1.34 1.32 1 2 C0.67 1.34 0.34 0.68 0 0 Z " fill="#C2E0E5" transform="translate(247,172)"/>
<path d="M0 0 C0.99 0.495 0.99 0.495 2 1 C1.01 1.495 1.01 1.495 0 2 C0 1.34 0 0.68 0 0 Z " fill="#A1C6CB" transform="translate(202,172)"/>
<path d="" fill="#C6E4EB" transform="translate(0,0)"/>
<path d="" fill="#9EC1BB" transform="translate(0,0)"/>
<path d="" fill="#ABCFD2" transform="translate(0,0)"/>
<path d="" fill="#CCFFFF" transform="translate(0,0)"/>
</svg>
